<?xml version="1.0" encoding="UTF-8" standalone="no"?>
<!-- Created with Inkscape (http://www.inkscape.org/) -->

<svg
   width="360"
   height="360"
   viewBox="0 0 95.25 95.25"
   version="1.1"
   id="svg5"
   xml:space="preserve"
   sodipodi:docname="card-bg.svg"
   inkscape:version="1.2.2 (b0a8486541, 2022-12-01)"
   xmlns:inkscape="http://www.inkscape.org/namespaces/inkscape"
   xmlns:sodipodi="http://sodipodi.sourceforge.net/DTD/sodipodi-0.dtd"
   xmlns:xlink="http://www.w3.org/1999/xlink"
   xmlns="http://www.w3.org/2000/svg"
   xmlns:svg="http://www.w3.org/2000/svg"><sodipodi:namedview
     id="namedview15653"
     pagecolor="#ffffff"
     bordercolor="#ffffff"
     borderopacity="1"
     inkscape:showpageshadow="0"
     inkscape:pageopacity="0.91764706"
     inkscape:pagecheckerboard="1"
     inkscape:deskcolor="#505050"
     showgrid="false"
     inkscape:zoom="1.5418857"
     inkscape:cx="145.27666"
     inkscape:cy="116.41589"
     inkscape:window-width="1920"
     inkscape:window-height="1011"
     inkscape:window-x="0"
     inkscape:window-y="0"
     inkscape:window-maximized="1"
     inkscape:current-layer="g2207" /><defs
     id="defs2"><linearGradient
       inkscape:collect="always"
       id="linearGradient50651"><stop
         style="stop-color:#ffdbff;stop-opacity:1;"
         offset="0.09214328"
         id="stop50645" /><stop
         style="stop-color:#eb4f9a;stop-opacity:0.92675978;"
         offset="0.53053921"
         id="stop50647" /><stop
         style="stop-color:#a5122c;stop-opacity:0.82940102;"
         offset="1"
         id="stop50649" /></linearGradient><linearGradient
       inkscape:collect="always"
       id="linearGradient47345"><stop
         style="stop-color:#ffeaff;stop-opacity:1;"
         offset="0.28555045"
         id="stop47339" /><stop
         style="stop-color:#eb62a5;stop-opacity:0.92675978;"
         offset="0.65825689"
         id="stop47341" /><stop
         style="stop-color:#ac223a;stop-opacity:0.82940102;"
         offset="1"
         id="stop47343" /></linearGradient><linearGradient
       inkscape:collect="always"
       id="linearGradient43233"><stop
         style="stop-color:#ffe8ff;stop-opacity:1;"
         offset="0.09214328"
         id="stop43231" /><stop
         style="stop-color:#eb4f9a;stop-opacity:0.92675978;"
         offset="0.53053921"
         id="stop43237" /><stop
         style="stop-color:#a5122c;stop-opacity:0.82940102;"
         offset="1"
         id="stop43229" /></linearGradient><linearGradient
       id="linearGradient39304"><stop
         style="stop-color:#f3d4a7;stop-opacity:1;"
         offset="0"
         id="stop39300" /><stop
         style="stop-color:#fb951a;stop-opacity:1;"
         offset="1"
         id="stop39302" /></linearGradient><linearGradient
       id="linearGradient9525"><stop
         style="stop-color:#f3efe9;stop-opacity:1;"
         offset="0"
         id="stop9521" /><stop
         style="stop-color:#deb660;stop-opacity:1;"
         offset="1"
         id="stop9523" /></linearGradient><linearGradient
       id="linearGradient9507"><stop
         style="stop-color:#f3efe9;stop-opacity:1;"
         offset="0"
         id="stop9503" /><stop
         style="stop-color:#deb660;stop-opacity:1;"
         offset="1"
         id="stop9505" /></linearGradient><linearGradient
       id="linearGradient5871"><stop
         style="stop-color:#e13e9c;stop-opacity:0.80392158;"
         offset="0.6779266"
         id="stop5867" /><stop
         style="stop-color:#ce2a3b;stop-opacity:0.88627452;"
         offset="1"
         id="stop5869" /></linearGradient><linearGradient
       id="linearGradient5137"><stop
         style="stop-color:#dd9e9e;stop-opacity:1;"
         offset="0.24562253"
         id="stop5131" /><stop
         style="stop-color:#e13e51;stop-opacity:0.80392158;"
         offset="0.6779266"
         id="stop5133" /><stop
         style="stop-color:#bc2c26;stop-opacity:0.88627452;"
         offset="1"
         id="stop5135" /></linearGradient><linearGradient
       id="linearGradient2943"><stop
         style="stop-color:#349970;stop-opacity:1;"
         offset="0.18633434"
         id="stop2939" /><stop
         style="stop-color:#64c2b4;stop-opacity:0.52549022;"
         offset="1"
         id="stop2941" /></linearGradient><linearGradient
       id="linearGradient1446"><stop
         style="stop-color:#349970;stop-opacity:1;"
         offset="0.18633434"
         id="stop1442" /><stop
         style="stop-color:#64c2b4;stop-opacity:0.52549022;"
         offset="1"
         id="stop1444" /></linearGradient><linearGradient
       id="linearGradient9034"><stop
         style="stop-color:#ec9d3c;stop-opacity:0;"
         offset="0.81277984"
         id="stop9032" /><stop
         style="stop-color:#ec9d3c;stop-opacity:1;"
         offset="1"
         id="stop9030" /></linearGradient><linearGradient
       id="linearGradient2046"><stop
         style="stop-color:#63c2b4;stop-opacity:0.44835767;"
         offset="0"
         id="stop2042" /><stop
         style="stop-color:#38a596;stop-opacity:0.41555768;"
         offset="1"
         id="stop2044" /></linearGradient><linearGradient
       id="linearGradient4797"><stop
         style="stop-color:#0f8845;stop-opacity:0.80000001;"
         offset="0"
         id="stop4793" /><stop
         style="stop-color:#025e2a;stop-opacity:0.47260743;"
         offset="1"
         id="stop4795" /></linearGradient><linearGradient
       id="linearGradient4750"><stop
         style="stop-color:#f3d4a7;stop-opacity:1;"
         offset="0"
         id="stop4746" /><stop
         style="stop-color:#e98a18;stop-opacity:1;"
         offset="1"
         id="stop4748" /></linearGradient><linearGradient
       id="linearGradient4738"><stop
         style="stop-color:#dd9e9e;stop-opacity:1;"
         offset="0.24562253"
         id="stop4734" /><stop
         style="stop-color:#ff1870;stop-opacity:0.80363768;"
         offset="0.6779266"
         id="stop4744" /><stop
         style="stop-color:#d60404;stop-opacity:0.88745117;"
         offset="1"
         id="stop4736" /></linearGradient><linearGradient
       id="linearGradient4720"><stop
         style="stop-color:#000000;stop-opacity:1;"
         offset="0"
         id="stop4718" /></linearGradient><linearGradient
       id="linearGradient1264"><stop
         style="stop-color:#005726;stop-opacity:1;"
         offset="0.18633434"
         id="stop1260" /><stop
         style="stop-color:#23cb6f;stop-opacity:0.52521974;"
         offset="1"
         id="stop1262" /></linearGradient><linearGradient
       id="linearGradient6122"><stop
         style="stop-color:#530000;stop-opacity:1;"
         offset="0"
         id="stop6120" /></linearGradient><linearGradient
       xlink:href="#linearGradient1446"
       id="linearGradient1266"
       x1="90.915199"
       y1="39.994488"
       x2="401.08569"
       y2="39.994488"
       gradientUnits="userSpaceOnUse" /><radialGradient
       xlink:href="#linearGradient5871"
       id="radialGradient4742"
       cx="-29.969952"
       cy="33.567963"
       fx="-29.969952"
       fy="33.567963"
       r="48.395096"
       gradientTransform="matrix(1,0,0,1.0034602,0,-0.1161534)"
       gradientUnits="userSpaceOnUse" /><radialGradient
       xlink:href="#linearGradient39304"
       id="radialGradient4756"
       cx="10.295885"
       cy="75.48941"
       fx="10.295885"
       fy="75.48941"
       r="87.823441"
       gradientTransform="matrix(1,0,0,1.0120135,0,-0.90689204)"
       gradientUnits="userSpaceOnUse"
       spreadMethod="reflect" /><radialGradient
       xlink:href="#linearGradient4797"
       id="radialGradient4805"
       cx="274.52039"
       cy="15.910046"
       fx="274.52039"
       fy="15.910046"
       r="21.476339"
       gradientTransform="matrix(1,0,0,0.40007922,0,9.5447672)"
       gradientUnits="userSpaceOnUse" /><linearGradient
       xlink:href="#linearGradient1264"
       id="linearGradient7855"
       gradientUnits="userSpaceOnUse"
       x1="90.915199"
       y1="39.994488"
       x2="401.08569"
       y2="39.994488" /><radialGradient
       xlink:href="#linearGradient4797"
       id="radialGradient7857"
       gradientUnits="userSpaceOnUse"
       gradientTransform="matrix(1,0,0,0.40007922,0,9.5447672)"
       cx="274.52039"
       cy="15.910046"
       fx="274.52039"
       fy="15.910046"
       r="21.476339" /><radialGradient
       xlink:href="#linearGradient9507"
       id="radialGradient8635"
       gradientUnits="userSpaceOnUse"
       gradientTransform="matrix(1,0,0,1.0120135,0,-0.90689204)"
       cx="10.295885"
       cy="75.48941"
       fx="10.295885"
       fy="75.48941"
       r="87.823441"
       spreadMethod="reflect" /><radialGradient
       xlink:href="#linearGradient4750"
       id="radialGradient8637"
       gradientUnits="userSpaceOnUse"
       gradientTransform="matrix(1,0,0,1.0120135,0,-0.90689204)"
       cx="10.295885"
       cy="75.48941"
       fx="10.295885"
       fy="75.48941"
       r="87.823441"
       spreadMethod="reflect" /><radialGradient
       xlink:href="#linearGradient5137"
       id="radialGradient8639"
       gradientUnits="userSpaceOnUse"
       gradientTransform="matrix(1,0,0,1.0034602,0,-0.1161534)"
       cx="-29.969952"
       cy="33.567963"
       fx="-29.969952"
       fy="33.567963"
       r="48.395096" /><radialGradient
       xlink:href="#linearGradient4738"
       id="radialGradient8641"
       gradientUnits="userSpaceOnUse"
       gradientTransform="matrix(1,0,0,1.0034602,0,-0.1161534)"
       cx="-29.969952"
       cy="33.567963"
       fx="-29.969952"
       fy="33.567963"
       r="48.395096" /><radialGradient
       xlink:href="#linearGradient4738"
       id="radialGradient8643"
       gradientUnits="userSpaceOnUse"
       gradientTransform="matrix(1,0,0,1.0034602,0,-0.1161534)"
       cx="-29.969952"
       cy="33.567963"
       fx="-29.969952"
       fy="33.567963"
       r="48.395096" /><radialGradient
       xlink:href="#linearGradient4738"
       id="radialGradient8645"
       gradientUnits="userSpaceOnUse"
       gradientTransform="matrix(1,0,0,1.0034602,0,-0.1161534)"
       cx="-29.969952"
       cy="33.567963"
       fx="-29.969952"
       fy="33.567963"
       r="48.395096" /><radialGradient
       xlink:href="#linearGradient4738"
       id="radialGradient8647"
       gradientUnits="userSpaceOnUse"
       gradientTransform="matrix(1,0,0,1.0034602,0,-0.1161534)"
       cx="-29.969952"
       cy="33.567963"
       fx="-29.969952"
       fy="33.567963"
       r="48.395096" /><linearGradient
       xlink:href="#linearGradient2046"
       id="linearGradient1159"
       x1="5.488534"
       y1="48.227978"
       x2="92.222046"
       y2="48.227978"
       gradientUnits="userSpaceOnUse"
       gradientTransform="matrix(0.97112247,0,0,1.0001173,0.1634673,-0.00565782)" /><linearGradient
       inkscape:collect="always"
       xlink:href="#linearGradient2943"
       id="linearGradient2209"
       gradientUnits="userSpaceOnUse"
       x1="90.915199"
       y1="39.994488"
       x2="401.08569"
       y2="39.994488" /><radialGradient
       inkscape:collect="always"
       xlink:href="#linearGradient9525"
       id="radialGradient9509"
       gradientUnits="userSpaceOnUse"
       gradientTransform="matrix(1,0,0,1.0120135,0,-0.90689204)"
       cx="10.295885"
       cy="75.48941"
       fx="10.295885"
       fy="75.48941"
       r="87.823441"
       spreadMethod="reflect" /><radialGradient
       inkscape:collect="always"
       xlink:href="#linearGradient43233"
       id="radialGradient43235"
       cx="-25.74021"
       cy="40.392666"
       fx="-25.74021"
       fy="40.392666"
       r="48.395096"
       gradientTransform="matrix(1.6105838,0,0,1.6015701,15.716555,-24.275408)"
       gradientUnits="userSpaceOnUse" /><radialGradient
       inkscape:collect="always"
       xlink:href="#linearGradient47345"
       id="radialGradient47337"
       gradientUnits="userSpaceOnUse"
       gradientTransform="matrix(1.0374495,0,0,1.2504673,0.96395783,-10.09343)"
       cx="-25.74021"
       cy="40.392666"
       fx="-25.74021"
       fy="40.392666"
       r="48.395096" /><radialGradient
       inkscape:collect="always"
       xlink:href="#linearGradient50651"
       id="radialGradient50643"
       gradientUnits="userSpaceOnUse"
       gradientTransform="matrix(1.6105838,0,0,1.6015701,15.716555,-24.275408)"
       cx="-29.020947"
       cy="37.081757"
       fx="-29.020947"
       fy="37.081757"
       r="48.395096" /><radialGradient
       inkscape:collect="always"
       xlink:href="#linearGradient43233"
       id="radialGradient50653"
       gradientUnits="userSpaceOnUse"
       gradientTransform="matrix(1.6105838,0,0,1.6015701,15.716555,-24.275408)"
       cx="-29.020947"
       cy="37.081757"
       fx="-29.020947"
       fy="37.081757"
       r="48.395096" /><radialGradient
       inkscape:collect="always"
       xlink:href="#linearGradient43233"
       id="radialGradient50655"
       gradientUnits="userSpaceOnUse"
       gradientTransform="matrix(1.6105838,0,0,1.6015701,15.716555,-24.275408)"
       cx="-29.020947"
       cy="37.081757"
       fx="-29.020947"
       fy="37.081757"
       r="48.395096" /><radialGradient
       inkscape:collect="always"
       xlink:href="#linearGradient43233"
       id="radialGradient50657"
       gradientUnits="userSpaceOnUse"
       gradientTransform="matrix(1.6105838,0,0,1.6015701,15.716555,-24.275408)"
       cx="-29.020947"
       cy="37.081757"
       fx="-29.020947"
       fy="37.081757"
       r="48.395096" /></defs><g
     id="layer1"
     transform="matrix(1.0000231,0,0,0.98364512,-0.00108442,0.06859691)"><g
       id="g6344"
       transform="matrix(0.11905128,0,0,0.11905128,14.329461,6.7851254)"
       style="stroke-width:1.00069;stroke-dasharray:none"><path
         style="fill:url(#linearGradient1266);fill-opacity:1;stroke-width:1.00069;stroke-dasharray:none"
         d="m 401.07363,-11.821934 c 0.50226,4.2757495 -14.81239,8.7973967 -21.93057,7.987192 -5.45831,-0.7143754 -12.81207,7.5029977 -21.49721,3.89675082 -8.63059,-2.99721782 -13.60448,-0.5149757 -14.57046,4.12251468 -1.3729,6.5910465 1.89865,12.6126375 -7.4036,24.0795195 -10.79741,11.682738 -26.35764,12.855111 -36.67082,3.203981 -10.13769,-13.177011 1.9523,-22.1309049 -3.12763,-25.4306996 -8.27443,-4.5504727 -11.77386,5.1515696 -16.29847,5.1759546 -2.81541,-1.023819 -18.965,-12.3150524 -27.14816,-2.1283141 -6.63233,13.1335081 7.86789,13.9021311 10.06508,32.0335301 3.24755,30.081388 -24.22698,36.026803 -38.88292,28.185282 0,0 -11.40338,7.569778 -27.33706,-0.852178 -8.94985,-5.429897 -17.49695,-21.544723 -6.60337,-37.490866 20.59056,-19.902592 -5.08673,-35.3571314 -29.74781,-19.9156 0,0 -6.18399,-7.4280765 -22.14275,-6.4723899 -30.87855,0.1310628 -44.410046,48.4043349 -7.79948,58.9226129 0,0 5.02461,15.984282 18.81555,13.954823 16.97142,-3.063105 21.76966,-39.012032 0.8616,-39.097127 -5.70091,0.05746 -8.71743,6.892387 -3.46322,12.208195 -18.50271,15.171358 -29.79998,-32.243738 8.99397,-27.93221 24.58276,3.01847 31.67161,39.720263 15.78655,52.033109 -8.89069,29.250614 -47.87047,24.053805 -54.55592,-0.167194 -17.176414,0.08814 -32.951485,-30.152056 -21.732151,-59.813991 17.884711,-33.687753 52.482581,-31.336635 65.225561,-22.7152715 22.21312,-11.8766165 48.92305,-5.1583955 54.71568,16.7754958 3.00208,19.9299587 -12.41903,26.3883497 -13.6638,38.0294467 -0.42516,12.943442 17.49634,9.064192 22.67884,5.840685 5.63378,2.270802 13.29959,3.867389 19.36097,-0.683002 4.15972,-4.218634 2.96687,-10.089965 -7.88485,-29.888536 -5.75793,-18.0570567 5.8217,-32.959975 24.17914,-36.25275 8.59883,-1.125244 14.32811,0.951801 19.89738,5.0757795 5.35504,-3.5042125 10.08697,-5.5190625 19.70009,-5.2624645 18.0248,2.225502 18.98707,16.2051563 15.56498,24.0571264 -1.94067,1.3992066 -5.28567,10.9140406 2.76617,12.2797856 5.99386,-1.75725 7.88558,-2.477625 8.29965,-15.5991779 0,0 0.34029,-18.0792241 17.36281,-21.0294941 13.70813,-0.03843 17.39773,5.0607195 23.46453,4.8107685 4.99403,-2.1485045 5.65132,-3.9076755 12.89601,-4.0522325 15.57865,2.859756 18.08564,0.785185 21.82569,2.110946 z"
         id="path362"
         inkscape:label="path362" /><g
         id="g6337"
         style="stroke:#000000;stroke-width:1.00069;stroke-dasharray:none;stroke-opacity:1"><path
           style="fill:none;fill-opacity:0.171427;stroke:#339373;stroke-width:1.00069;stroke-linecap:round;stroke-linejoin:bevel;stroke-dasharray:none;stroke-opacity:0.93333334"
           d="m 147.25117,44.524505 c 6.06843,-6.998909 15.90233,5.166808 12.10707,16.262656 -4.34517,12.703579 -19.0927,17.733298 -26.81409,-1.926598 -45.573819,-15.359139 -5.41172,-69.579077 26.45859,-40.800921 8.37012,-8.961653 37.68327,-13.617057 30.201,4.763661"
           id="path5984" /><path
           style="fill:none;fill-opacity:0.171427;stroke:#339373;stroke-width:1.00069;stroke-linecap:round;stroke-linejoin:bevel;stroke-dasharray:none;stroke-opacity:0.93333334"
           d="m 238.1473,38.407213 c 7.08587,9.042186 -4.08819,17.76877 -15.01771,7.573386 -1.43327,8.401578 -24.66603,7.505983 -13.09327,-7.333026"
           id="path6049" /><path
           style="fill:none;fill-opacity:0.171427;stroke:#339373;stroke-width:1.52461;stroke-linecap:round;stroke-linejoin:bevel;stroke-dasharray:none;stroke-opacity:0.93333334"
           d="m 257.9356,21.644292 c -8.60902,-15.0339079 12.54671,-13.4397038 20.69017,-3.183707 3.58395,-3.43765 13.06663,-12.0278569 14.51296,-6.450492"
           id="path6116" /></g></g><g
       id="g6348"
       style="fill:url(#radialGradient4756);fill-opacity:1"
       transform="matrix(0.11905128,0,0,0.11905128,14.329461,6.7851254)"><path
         style="fill:url(#radialGradient8635);fill-opacity:1.0;stroke:none;stroke-width:1.565;stroke-linecap:round;stroke-linejoin:bevel;stroke-dasharray:none;stroke-opacity:0.486444"
         d="M 18.438594,11.877521 C 32.446798,-3.6595728 45.438221,9.640381 45.438221,9.640381 l 4.380721,0.226513 c 25.807721,-19.0855179 36.675785,13.696237 15.480859,24.637778 -4.513516,2.522198 -3.093962,4.960622 -3.340068,6.824969 -4.725659,39.925654 -42.426685,28.25168 -42.665476,12.736533 -2.108387,-14.692623 10.6325,-21.74031 17.788916,-18.275488 6.089956,3.706225 -0.249721,7.913601 -3.834722,6.007453 -8.990472,10.757158 7.591178,16.331695 15.64667,9.565117 C 59.83614,40.286905 55.373185,25.03606 38.525093,19.44093 14.68988,11.841418 -7.7462068,46.069837 6.2416187,72.266312 12.487285,81.581253 27.118988,86.136354 35.220117,85.895995 c 6.810509,1.975643 9.569792,15.381385 6.253366,19.919455 l 10.468639,11.86124 c 12.283892,-14.34523 4.027774,-32.18833 0.974175,-34.022893 8.296693,-4.47053 13.625182,-14.101446 17.83181,-13.240077 5.690743,1.165263 10.691493,11.480958 3.760525,28.447849 15.750281,26.706971 0.863074,34.496851 -2.742305,40.387731 0.05225,0.19751 10.946566,11.95441 10.946566,11.95441 C 107.12967,129.0437 96.393009,107.9724 91.585837,97.841812 99.169673,69.848395 83.501083,58.216274 77.82653,53.201662 l 0.440418,-9.403916 C 111.48503,22.436659 80.189936,-31.854279 48.125054,-6.9949292 25.955631,-23.621474 11.103102,-2.7763059 10.050489,-0.99294959 14.916932,2.0482198 16.652735,5.1826133 18.438594,11.877521 Z"
         id="path6325" /><path
         style="fill:url(#radialGradient9509);fill-opacity:1;stroke:none;stroke-width:1.565;stroke-linecap:round;stroke-linejoin:bevel;stroke-dasharray:none;stroke-opacity:0.486444"
         d="m -50.866046,82.603902 c -13.483415,11.489276 -3.440894,27.491778 -3.440894,27.491778 l 0.22652,4.38072 c -19.08552,25.80771 12.488689,37.15859 23.280789,17.29034 2.5222,-4.51352 4.279788,-4.13325 8.181951,-5.14955 C 14.968137,121.87272 5.6340022,84.190505 -9.8811446,83.951715 -24.57377,81.843325 -30.612989,94.933257 -28.15663,101.74063 c 2.765686,4.87823 7.688394,-0.1588 6.00745,-3.834725 9.808787,-9.550088 17.9598637,7.609475 9.56512,15.646675 -11.514221,12.06078 -25.259694,6.49217 -30.854824,-10.35592 -5.474427,-23.604786 23.771255,-46.454189 49.9677281,-32.466359 5.1583049,3.937695 7.8224109,9.991739 12.2638189,20.08209 1.620069,3.866346 3.912922,0.922015 6.891943,1.162488 3.338029,0.07747 8.24702,1.624325 7.716979,7.478982 -2.440565,0.852839 -2.668002,1.081879 -4.06748,3.385059 -2.432918,4.00395 6.234962,9.44359 12.13985,2.92991 l 10.660013,11.66366 c -13.049106,13.096 -30.592927,3.19486 -32.42749,0.14126 -4.47053,8.2967 -14.1014458,13.62518 -13.2400768,17.83181 1.165263,5.69074 7.8031888,11.67651 24.7700748,4.74554 26.70697,15.75028 34.642909,2.66692 40.533789,-0.93846 l 10.963724,11.96479 c -21.195676,20.61634 -45.034625,12.63865 -50.756338,5.60899 -27.9934189,7.58383 -38.5699454,-8.10619 -43.584558,-13.78074 -4.650601,-0.74302 -5.519237,-0.73119 -8.542663,-0.0813 -23.815883,34.09591 -75.652029,1.92299 -50.79268,-30.14189 -16.626539,-22.169425 5.878377,-36.912179 7.809262,-37.979227 0.88231,5.407658 5.580157,8.54846 12.266942,7.800639 z"
         id="path6327"
         sodipodi:nodetypes="ccccccccccccccscccsccccccccc" /></g><g
       id="g25848"
       style="mix-blend-mode:hard-light;fill:url(#radialGradient4742);fill-opacity:1"
       transform="matrix(0.12796436,0,0,0.12796436,14.165236,6.0530899)"><g
         id="g43227"
         style="fill:url(#radialGradient43235);fill-opacity:1"><path
           style="fill:url(#radialGradient47337);fill-opacity:1;stroke:none;stroke-width:1.565;stroke-linecap:round;stroke-linejoin:bevel;stroke-dasharray:none;stroke-opacity:0.486444"
           d="m -35.292025,74.666585 c -5.772289,9.074231 -19.500019,7.912744 -23.637817,6.503432 -5.219317,-2.46136 -3.214074,-10.547999 -9.26222,-10.989246 -7.20253,-1.305672 -12.788598,-10.990713 -7.827452,-16.709208 1.307059,-1.136266 1.804876,-0.698651 2.09059,-0.296505 4.258402,10.932995 9.622553,3.343116 8.424988,0.297983 -1.893383,-4.922813 -13.423822,-5.061919 -11.08522,-16.035833 0.136337,-5.477489 -1.561776,-5.943954 -1.455552,-9.350158 -0.05505,-2.470689 -0.01097,-4.458867 2.400675,-6.30604 5.793207,9.294366 9.848025,-0.513942 1.086813,-7.92601 -6.416329,-6.9422791 -2.947129,-13.22060876 -2.214827,-16.4402271 1.292614,-6.8981265 -0.819128,-9.4299649 0.415293,-11.5598119 1.19655,-1.309425 6.033551,-1.06908 10.454707,0.472191 1.308317,0.632544 4.488379,-1.667156 8.770264,-1.270999 8.06401,1.126164 7.641328,2.575621 12.441012,8.1667243 3.163826,3.3306812 7.7228,-1.9264509 3.627522,-5.3267433 0.136164,-3.256069 6.825118,-2.473722 11.243909,-0.707547 6.179864,3.4244931 3.691439,-0.592086 6.839379,-0.304079 1.433938,-0.02198 6.030411,-0.297983 7.698782,3.3376656 4.22053,9.24227024 7.1589769,9.54579511 8.8746411,6.4094937 2.5213078,-5.6960346 -2.8401658,-5.8663632 -4.2317991,-6.4024736 -2.544031,-1.1294897 -1.212807,-2.4378057 2.2290517,-3.9936717 9.8131115,-3.143137 15.7753536,9.3266956 17.0302806,12.0778177 8.4048517,4.3559433 11.0346437,13.9478743 9.2955177,23.4982883 0,0 -6.417005,5.627556 -8.7672446,8.752958 C 2.2511419,-0.22463064 -44.833703,6.913039 -50.424622,14.54901 c -3.644885,5.712107 -15.929662,43.768978 15.132597,60.117575 z"
           id="path6425" /><path
           style="fill:url(#radialGradient50643);fill-opacity:1;stroke:none;stroke-width:1.565;stroke-linecap:round;stroke-linejoin:bevel;stroke-dasharray:none;stroke-opacity:0.486444"
           d="M -34.214633,74.056763 C -11.902316,58.50291 4.2486103,69.169327 4.2486103,69.169327 -4.7780704,47.754099 8.336129,31.961935 8.336129,31.961935 4.1063618,10.366033 -19.121518,9.5276903 -20.925857,9.6019552 -21.012314,33.341745 -33.460162,42.255919 -53.766592,45.845753 c 1.565842,20.844387 19.551959,28.21101 19.551959,28.21101 z"
           id="path25831" /><path
           style="fill:url(#radialGradient50653);fill-opacity:1;stroke:none;stroke-width:1.565;stroke-linecap:round;stroke-linejoin:bevel;stroke-dasharray:none;stroke-opacity:0.486444"
           d="m -53.748117,44.070049 c -1.020679,-3.049659 -0.158506,-6.779894 -0.158506,-6.779894 18.752411,-4.179334 24.128295,-15.515611 25.552627,-27.3667551 0,0 2.742809,-1.2985256 6.093037,-0.3135012 -0.564375,15.3367853 -5.642276,30.5734413 -31.487158,34.4601503 z"
           id="path25833" /><path
           style="fill:url(#radialGradient50657);fill-opacity:1;stroke:none;stroke-width:1.565;stroke-linecap:round;stroke-linejoin:bevel;stroke-dasharray:none;stroke-opacity:0.486444"
           d="m -53.440092,34.911603 c -0.729375,-3.1411 0.423318,-7.07146 0.423318,-7.07146 12.441169,-5.210524 12.397489,-5.545431 16.143111,-17.13819 1.344702,-0.433952 3.532335,-1.5725869 6.882563,-0.587562 0.447482,7.60168 -6.874898,24.242082 -23.448992,24.797212 z"
           id="path25835" /><path
           style="fill:url(#radialGradient50655);fill-opacity:1;stroke:none;stroke-width:1.565;stroke-linecap:round;stroke-linejoin:bevel;stroke-dasharray:none;stroke-opacity:0.486444"
           d="m -52.58205,26.274952 c 9.715015,-4.074402 12.551673,-7.6683 13.429918,-15.187147 0,0 -5.617565,0.839134 -9.271644,4.423743 -2.157564,2.116544 -4.158274,10.763404 -4.158274,10.763404 z"
           id="path25837" /></g></g><path
       style="mix-blend-mode:normal;fill:none;fill-opacity:0.67114;stroke:url(#linearGradient1159);stroke-width:0.481;stroke-linecap:round;stroke-linejoin:bevel;stroke-dasharray:none"
       d="m 64.167159,5.5582512 h 24.159922 c 0.62951,0 1.126649,0.3408714 1.126649,1.0870348 L 89.38685,89.58172 c 0,0.908085 -0.478465,1.315983 -1.134246,1.315983 H 7.1886034 c -0.8801961,0 -1.3595747,-0.394563 -1.3595747,-1.37811 V 63.790989"
       id="path483" /><g
       id="g2207"
       transform="matrix(0,0.12103352,0.11710151,0,7.0207194,14.314821)"
       style="stroke-width:1.00069;stroke-dasharray:none"><path
         style="fill:url(#linearGradient2209);fill-opacity:1;stroke-width:1.00069;stroke-dasharray:none"
         d="m 401.07363,-11.821934 c 0.50226,4.2757495 -14.81239,8.7973967 -21.93057,7.987192 -5.45831,-0.7143754 -12.81207,7.5029977 -21.49721,3.89675082 -8.63059,-2.99721782 -13.60448,-0.5149757 -14.57046,4.12251468 -1.3729,6.5910465 1.89865,12.6126375 -7.4036,24.0795195 -10.79741,11.682738 -26.35764,12.855111 -36.67082,3.203981 -10.13769,-13.177011 1.9523,-22.1309049 -3.12763,-25.4306996 -8.27443,-4.5504727 -11.77386,5.1515696 -16.29847,5.1759546 -2.81541,-1.023819 -18.965,-12.3150524 -27.14816,-2.1283141 -6.63233,13.1335081 7.86789,13.9021311 10.06508,32.0335301 3.24755,30.081388 -24.22698,36.026803 -38.88292,28.185282 0,0 -11.40338,7.569778 -27.33706,-0.852178 -8.94985,-5.429897 -17.49695,-21.544723 -6.60337,-37.490866 20.59056,-19.902592 -5.08673,-35.3571314 -29.74781,-19.9156 0,0 -6.18399,-7.4280765 -22.14275,-6.4723899 -30.87855,0.1310628 -44.410046,48.4043349 -7.79948,58.9226129 0,0 5.02461,15.984282 18.81555,13.954823 16.97142,-3.063105 21.76966,-39.012032 0.8616,-39.097127 -5.70091,0.05746 -8.71743,6.892387 -3.46322,12.208195 -18.50271,15.171358 -29.79998,-32.243738 8.99397,-27.93221 24.58276,3.01847 31.67161,39.720263 15.78655,52.033109 -8.89069,29.250614 -47.87047,24.053805 -54.55592,-0.167194 -17.176414,0.08814 -32.951485,-30.152056 -21.732151,-59.813991 17.884711,-33.687753 52.482581,-31.336635 65.225561,-22.7152715 22.21312,-11.8766165 48.92305,-5.1583955 54.71568,16.7754958 3.00208,19.9299587 -12.41903,26.3883497 -13.6638,38.0294467 -0.42516,12.943442 17.49634,9.064192 22.67884,5.840685 5.63378,2.270802 13.29959,3.867389 19.36097,-0.683002 4.15972,-4.218634 2.96687,-10.089965 -7.88485,-29.888536 -5.75793,-18.0570567 5.8217,-32.959975 24.17914,-36.25275 8.59883,-1.125244 14.32811,0.951801 19.89738,5.0757795 5.35504,-3.5042125 10.08697,-5.5190625 19.70009,-5.2624645 18.0248,2.225502 18.98707,16.2051563 15.56498,24.0571264 -1.94067,1.3992066 -5.28567,10.9140406 2.76617,12.2797856 5.99386,-1.75725 7.88558,-2.477625 8.29965,-15.5991779 0,0 0.34029,-18.0792241 17.36281,-21.0294941 13.70813,-0.03843 17.39773,5.0607195 23.46453,4.8107685 4.99403,-2.1485045 5.65132,-3.9076755 12.89601,-4.0522325 15.57865,2.859756 18.08564,0.785185 21.82569,2.110946 z"
         id="path2197"
         inkscape:label="path362" /><g
         id="g2205"
         style="stroke:#000000;stroke-width:1.00069;stroke-dasharray:none;stroke-opacity:1"><path
           style="fill:none;fill-opacity:0.171427;stroke:#339373;stroke-width:1.00069;stroke-linecap:round;stroke-linejoin:bevel;stroke-dasharray:none;stroke-opacity:0.93333334"
           d="m 147.25117,44.524505 c 6.06843,-6.998909 15.90233,5.166808 12.10707,16.262656 -4.34517,12.703579 -19.0927,17.733298 -26.81409,-1.926598 -45.573819,-15.359139 -5.41172,-69.579077 26.45859,-40.800921 8.37012,-8.961653 37.68327,-13.617057 30.201,4.763661"
           id="path2199" /><path
           style="fill:none;fill-opacity:0.171427;stroke:#339373;stroke-width:1.00069;stroke-linecap:round;stroke-linejoin:bevel;stroke-dasharray:none;stroke-opacity:0.93333334"
           d="m 238.1473,38.407213 c 7.08587,9.042186 -4.08819,17.76877 -15.01771,7.573386 -1.43327,8.401578 -24.66603,7.505983 -13.09327,-7.333026"
           id="path2201" /><path
           style="fill:none;fill-opacity:0.171427;stroke:#339373;stroke-width:1.52461;stroke-linecap:round;stroke-linejoin:bevel;stroke-dasharray:none;stroke-opacity:0.93333334"
           d="m 257.9356,21.644292 c -8.60902,-15.0339079 12.54671,-13.4397038 20.69017,-3.183707 3.58395,-3.43765 13.06663,-12.0278569 14.51296,-6.450492"
           id="path2203" /></g></g></g></svg>
