<svg xmlns="http://www.w3.org/2000/svg" width="373.198" height="520.15" viewBox="0 0 98.742 137.623" fill="#570011" xmlns:v="https://vecta.io/nano"><path d="M51.402 118.774c-.872-.143-1.718-.369-1.878-.502s-1.157-.299-2.215-.369c-2.616-.172-3.157-.711-2.266-2.257l1.383-2.591c.848-1.634.941-1.968.607-2.179s-.324-.25.069-.253c.255-.002.463-.126.463-.274 0-.549 1.925-5.207 2.815-6.811.853-1.537 2.55-3.62 4.021-4.934 2.725-2.434 2.812-2.543 2.481-3.074-.176-.282-.321-.987-.321-1.566 0-.739-.141-1.128-.472-1.305-.844-.452-2.152-3.795-2.837-7.252-.167-.843-.864-1.239-1.212-.689-.129.203-.236.794-.238 1.313s-.179 1.532-.392 2.251-.625 2.506-.914 3.973l-1.317 6.084-1.502 6.592-.847 3.411c-.075.13-.296-.068-.491-.44-.368-.702-.17-1.749 2.406-12.76l1.351-5.953 1.067-4.586c.381-1.48.374-1.584-.172-2.514-.313-.533-.736-1.065-.939-1.182s-.37-.444-.37-.728-.171-.516-.379-.516c-.529 0-3.569 3.05-5.051 5.067-1.349 1.836-1.991 2.318-3.111 2.332-1.075.014-1.153-.626-.216-1.763.451-.547.819-1.091.819-1.209s.249-.551.552-.962.512-1.03.463-1.378c-.089-.628-.107-.631-3.132-.573-3.777.073-4.233.274-4.233 1.864s.713 3.94 1.586 5.222c1.015 1.49 1.589 2.667 1.589 3.258 0 .279.253.829.563 1.223.953 1.212 1.877 4.558 1.684 6.098-.262 2.082-.636 2.994-1.472 3.59-.426.303-.775.759-.775 1.013 0 .679-1.253 1.761-2.925 2.526-1.303.596-1.732.66-3.786.563-1.274-.06-2.458-.223-2.631-.362s-.731-.335-1.241-.436c-2.129-.42-5.841-2.528-6.307-3.582-.757-1.711-.84-2.426-.372-3.219.266-.451.599-.704.816-.62.236.091.315.008.222-.234-.156-.407.682-1.327.958-1.051.23.23 2.912-.938 3.169-1.379.222-.382.514-.323 2.239.447.617.275 1.205.501 1.306.501s.444.244.762.543c.421.395.767.495 1.274.368.711-.178.964-.979.416-1.318-.154-.095-.209-.496-.122-.892.215-.977-.444-1.509-2.15-1.737-.976-.13-1.575-.072-2.117.206a3.85 3.85 0 0 1-1.471.385c-.393-.001-1.225.263-1.847.587-1.278.666-2.76.61-4.255-.163-2.076-1.073-2.396-2.771-.915-4.859.463-.652.458-.671-.329-1.323-.7-.58-.797-.825-.782-1.984.009-.728-.064-1.71-.164-2.183-.142-.676-.094-.86.227-.86.224 0 .447-.205.495-.455.133-.693 1.497.889 1.7 1.973.112.598.309.863.642.863.264 0 .706.286.981.637.623.792 1.291 3.595.913 3.829-.234.145-.42 1.416-.344 2.34.052.626 1.479 1.133 2.424.862.48-.138.941-.342 1.024-.454.413-.556 1.499-.865 3.042-.865.939 0 1.772-.104 1.85-.23s.645-.133 1.272-.012c.622.12 1.217.224 1.322.23.384.023 2.586 4.121 2.586 4.813 0 .873-.774 2.294-1.351 2.481-.919.297-4.69-.331-5.416-.901-1.194-.939-2.758-.627-2.758.551 0 .349-.205.476-.765.476-.597 0-.802.146-.932.667-.195.776.058 1.332 1.013 2.225.532.497 1.006.652 2.097.685.775.023 1.565.138 1.755.255s1.142.27 2.116.34c2.468.177 3.981-.492 4.739-2.095.299-.632.816-1.487 1.148-1.899 1.192-1.478.583-4.894-1.402-7.861-.539-.806-1.17-1.623-1.401-1.814s-.868-1.258-1.415-2.371c-.842-1.711-1-2.305-1.025-3.86-.04-2.457-.211-2.564-3.678-2.306-3.982.296-5.165.141-5.9-.772-.495-.615-.575-.938-.426-1.73.314-1.673 2.854-3.957 4.938-4.44 1.245-.289 4.134-2.018 4.313-2.582.31-.977-.925-1.882-3.51-2.574l-3.163-.868c-1.463-.429-2.825-1.629-3.508-3.088l-.643-1.373.907-.942c1.17-1.214 2.34-1.694 4.132-1.694.792 0 1.652-.113 1.911-.252s1.493-.379 2.743-.534c3.277-.407 4.953-1.215 4.747-2.289-.121-.633-1.949-2.481-2.455-2.481-.565 0-3.431-2.156-3.791-2.853-.526-1.017-1.226-1.578-2.146-1.721-2.169-.337-3.954-1.793-4.215-3.437-.074-.469-.268-2.4-.43-4.292-.389-4.534-.852-6.794-1.611-7.858-.535-.75-.62-1.171-.602-2.989.027-2.765.72-5.13 2.142-7.304 1.361-2.082 1.646-3.137 1.018-3.765-.565-.565-1.941-.566-2.564-.002-.453.41-.483.405-.476-.066.005-.277.314-.727.687-.998 1.373-1.001 4.067.115 4.067 1.684 0 .274.108.566.241.648s.323 1.19.424 2.463.352 2.582.559 2.909c.387.613 1.265.799 1.554.331.268-.434.661-.301.661.224 0 .268.247.712.549.985.513.464.599.469 1.289.073.718-.412.771-.399 1.869.47.621.492 1.222.894 1.334.894.433 0 .066.713-.788 1.529-.965.922-1.266.99-2.653.592-.998-.286-2.001.146-2.328 1.004-.26.683-1.197 1.579-1.757 1.68-.834.151-1.093.842-.746 1.985l.976 3.212c.367 1.208.668 2.473.668 2.812s.171.758.381.932.418.575.463.892c.115.807 1.138.795 1.148-.014.004-.324.153-.735.331-.913a1.22 1.22 0 0 0 .325-.733c.002-.514 4.54-5.04 5.053-5.04.574 0 2.427-1.028 2.949-1.636.363-.422.464-1.034.467-2.825.002-1.349.096-2.141.228-1.933.331.523.56-.237.57-1.896.005-.78.175-1.588.397-1.881.214-.282.388-.711.388-.952s.216-.687.48-.991.703-.851.977-1.215.594-.603.711-.53.214-.1.214-.384c0-.882.737-.905.929-.029.252 1.146.711.948.623-.268-.042-.576.009-1.132.112-1.235s.188-.411.188-.684.149-.468.331-.433c.601.115 1.521-.334 1.521-.742 0-.644.653-.246.75.457.049.352.198.754.331.892.147.153.242-.657.242-2.066 0-2.247.277-2.798.653-1.301.266 1.062 1.464 3.601 1.623 3.441.075-.075-.04-.558-.255-1.074s-.412-1.511-.436-2.211c-.062-1.788-.032-1.988.268-1.803.146.09.265.037.265-.117 0-.56.682-.263.724.315.106 1.471.716 2.892 1.561 3.634.49.43.891.905.891 1.055s.115.273.255.273c.336 0 .139-1.909-.277-2.686-.412-.771-.774-2.341-.539-2.341.29 0 1.565 1.553 1.406 1.712-.081.08.113.497.43.926s.577.904.577 1.055.091.275.203.275.401.326.643.725l.44.725.519-1.21c.317-.739.689-1.21.955-1.21.255 0 .38.147.301.353-.075.194-.005.353.154.353.18 0 .23.298.131.79-.197.983.683 1.982 1.405 1.596.343-.184.549-.058.912.556.367.621.433 1.12.306 2.299-.094.866-.049 1.674.104 1.903.195.29.268.304.271.05.002-.19.123-.273.268-.184s.396-.171.559-.58.472-1.077.687-1.486.322-1.021.237-1.359c-.096-.382-.005-.739.24-.942.217-.18.394-.455.394-.611s.302-.599.67-.983c.565-.59.681-.986.74-2.528.069-1.816.075-1.829.851-1.897 1.325-.117 1.549.205 1.176 1.69-.178.709-.352 2.242-.387 3.406s-.26 2.763-.499 3.554c-.464 1.535-.588 4.39-.201 4.629.253.157.251 1.442-.004 1.871-.086.146-.233.585-.327.976-.184.771.088 1.072 1.099 1.211.495.068.702-.135 1.132-1.107.623-1.408.658-1.434 2.17-1.642 1.054-.144 1.189-.102 1.326.422.249.952 1.125.581 1.078-.456-.026-.575.101-.886.402-.981.242-.077.668-.563.946-1.08.449-.835.536-.887.769-.465.145.262.439.606.653.766.39.29.197 1.025-.204.777-.117-.072-.422.432-.678 1.12s-.539 1.328-.629 1.422-.919.046-1.843-.107c-1.336-.221-1.723-.207-1.894.07-.28.453.324 1.056 1.058 1.056.379 0 .549.152.518.463-.088.865.013 1.067.609 1.217.327.082.715.423.862.756.23.523.443.6 1.55.561 1.578-.056 3.776-1.114 3.662-1.763-.137-.778.951-.517 1.391.333.394.763.386.783-.536 1.353-.515.318-1.132.893-1.372 1.276l-.498.791c-.035.051-.517-.144-1.072-.434-2.137-1.116-4.499-1.366-4.143-.439.081.211.287.383.458.383s1.31.421 2.531.937 2.379.876 2.572.802c.64-.245.372.788-.394 1.522s-3.6 1.892-4.008 1.64c-.126-.078-.268-.026-.317.115s-1.071.337-2.272.437c-1.862.154-2.183.251-2.183.659 0 .263.206.593.458.734.41.229.423.386.124 1.503-.183.686-.568 1.545-.854 1.909-.587.746-.692 2.236-.187 2.655.207.172.299.724.241 1.455-.084 1.056-.307 1.403-2.164 3.362-1.895 1.999-2.046 2.239-1.783 2.818.389.853 1.397 1.072 2.348.509.418-.247.906-.359 1.084-.249s.949.285 1.713.389 2.126.556 3.026 1.006 1.758.817 1.908.817c.532 0 3.876 2.183 3.876 2.531 0 .194-.129.956-.287 1.693-.218 1.017-.495 1.498-1.149 1.997-.474.362-.948.658-1.053.658s-.867.318-1.695.707-1.691.683-1.918.653-.874.258-1.437.64c-1.365.926-2.358 1.048-4.36.536-1.51-.387-1.734-.389-2.295-.021-.342.224-.622.625-.622.89 0 .5.774 1.358 1.226 1.358.142 0 .55 1.22.905 2.712.521 2.187.642 3.364.622 6.075-.023 3.202-.064 3.442-.845 5.027a24.11 24.11 0 0 1-1.907 3.119l-1.087 1.455.112 3.44c.133 4.073.313 5.016 1.077 5.628.314.252.965.951 1.445 1.553 2.07 2.596 8.51 4.105 11.156 2.614a26.44 26.44 0 0 1 1.45-.741c1.013-.474 1.412-.963 1.615-1.978.128-.639.037-.916-.424-1.298-.322-.267-.997-.876-1.498-1.354-.802-.764-1.03-.849-1.89-.698-.538.094-1.335.374-1.772.623s-1.061.522-1.388.607c-.922.241-2.791-.616-3.763-1.726l-.881-1.006.331-1.508c.182-.829.563-1.889.846-2.354.589-.968 1.496-1.38 1.84-.836.15.237.229.252.232.046.002-.172.272-.397.599-.499s.674-.308.769-.457c.109-.169 1.037.1 2.477.719 3.166 1.36 3.881 1.45 4.738.593.523-.523.681-.948.681-1.831 0-.632-.146-1.295-.324-1.473s-.289-.726-.247-1.217-.05-.972-.206-1.068c-.564-.349-.259-1.239.828-2.419 1.082-1.174 2.593-2.194 2.593-1.751 0 .122-.253 1.221-.562 2.443-.479 1.894-.518 2.412-.265 3.51.384 1.663.365 3.608-.043 4.334-.177.315-.634.818-1.016 1.118l-.695.545-2.312-.67c-1.272-.369-3.019-.722-3.883-.786-1.439-.106-1.626-.055-2.23.596-.568.612-.653.935-.61 2.314.073 2.382.762 2.88 2.235 1.615 1.078-.927 3.644-1.845 4.263-1.527a2.35 2.35 0 0 0 1.083.199 1.43 1.43 0 0 1 1.033.433c.241.267.645.485.897.485.812 0 2.106 2.352 2.106 3.827 0 .471-.31 1.44-.689 2.152-.71 1.336-1.115 1.754-1.482 1.528-.116-.072-.211-.03-.211.092 0 .612-3.997 1.599-7.805 1.928l-2.646.228-1.717-.939c-.944-.516-2.045-1.215-2.446-1.552s-.938-.683-1.193-.767-1.298-1.1-2.317-2.256c-1.746-1.983-2.778-2.624-2.778-1.727 0 .218-.113.397-.25.397s-.882.91-1.654 2.021-1.723 2.332-2.113 2.712c-1.717 1.671-5.505 6.289-5.506 6.714-.001.257.54.987 1.203 1.621 1.027.984 1.405 1.173 2.564 1.284 1.061.102 1.497.29 1.984.857.957 1.113.709 1.583-.86 1.631-.726.022-2.034-.077-2.907-.22zM66.758 69.77c.253-.346.668-.408 2.121-.317 2.723.171 4.35-.807 4.35-2.615 0-1.66-2.57-4.019-4.004-3.676a33.25 33.25 0 0 1-1.357.286c-.402.075-.798.244-.879.376s-.371-.031-.643-.361l-.495-.601-.754.816c-.415.449-.903 1.312-1.084 1.918-.314 1.047-.382 1.102-1.356 1.102-.58 0-1.078.144-1.147.331-.18.49.853 2.223 1.5 2.518 1.873.853 3.228.934 3.748.223zm-29.127-.994c.555-.436.69-.727.584-1.257-.594-2.979-1.262-5.943-1.383-6.14-.392-.635-1.555-.181-2.933 1.147-1.834 1.766-2.089 1.901-2.956 1.56-.389-.153-1.14-.353-1.669-.444-.809-.14-1.028-.07-1.389.445-.544.777-.55 1.922-.013 2.459.405.405.593.457 1.965.548l1.239.088c.318.024.644.253.724.508.2.63 1.573 1.212 3.328 1.411l1.618.204c.09.021.487-.216.884-.529zm25.737-12.199c.632-.658.898-1.261 1.133-2.572.169-.942.207-1.747.086-1.79-.924-.326-.968-.54-.374-1.802 1.043-2.22.214-4.784-1.61-4.979-.352-.037-.776-.152-.941-.254-.38-.235-.583.097-1.266 2.071-.9 2.602-1.546 5.547-1.367 6.235.092.354.438 1.051.768 1.549l.865 1.323.479.749c.381.589 1.382.351 2.228-.529zm-4.428-9.007c.785-3.1.867-3.684.542-3.885-.526-.325-.706-.16-.923.848-.187.864-.188.864-.444.211-.315-.8-.691-1.057-1.554-1.061-.492-.002-.992.406-1.95 1.591-.709.877-1.542 1.728-1.852 1.891-.962.506-.981.845-.094 1.724.469.465 1.07 1.078 1.336 1.364s1.04.638 1.72.782c2.293.488 2.19.599 3.219-3.465zm-21.033-.747c1.81-.443 2.462-.788 2.615-1.382.081-.315.508-.776.949-1.023 1.058-.595 1.018-1.289-.134-2.3-1.096-.962-2.122-1.08-2.378-.273-.165.52-.2.525-.673.097s-.574-.413-1.943.304c-2.529 1.324-3.117 1.95-3.264 3.478-.11 1.148-.058 1.362.365 1.48.615.172 3.055-.037 4.463-.382zm32.081-2.946c-.037-.184.227-.354.595-.382 2.692-.21 3.704-.526 3.704-1.157 0-.408-.2-.518-.992-.545-.546-.019-1.247-.061-1.559-.095s-1.021.095-1.577.286-1.789.365-2.741.388c-2.319.054-2.966.219-2.867.731.061.318.493.442 1.799.515.945.053 2.076.197 2.512.319 1.121.314 1.199.31 1.124-.061zm-3.346-2.858c1.516-.774 1.206-1.176-.906-1.176-1.523 0-1.813-.079-2.175-.595-.486-.693-1.056-.773-1.284-.179s.268 1.383 1.244 1.978c1.076.656 1.793.65 3.12-.027zm.364-2.198c.271-.198.727-.299 1.013-.224.452.118.504.027.397-.698-.115-.781-.071-.834.692-.838 1.047-.005 1.596-.359 1.39-.895-.107-.28-.486-.424-1.114-.424-.523 0-1.184-.124-1.467-.276-.406-.217-.552-.182-.686.167-.094.244-.036.657.127.919.262.419.146.526-.978.9-1.135.377-1.262.496-1.151 1.077.143.746.971.883 1.778.293zm6.134-2.467c-.704-.215-1.216-.455-1.138-.532s.503-.015.945.139c.779.272.835.235 1.866-1.203.584-.816 1.065-1.672 1.068-1.903.004-.308.136-.251.494.215.268.349.432.849.364 1.11-.119.455-1.992 2.65-2.212 2.593-.059-.015-.682-.204-1.386-.419z" fill-opacity=".779" stroke="#570011" stroke-width=".465"/><path d="M23.25 137.386c-1.793-.341-2.467-.748-2.467-1.486 0-.324-.59-.808-1.786-1.465l-2.249-1.377c-1.08-.922-.077-2.999 1.653-3.426 1.233-.304 1.281-.817.27-2.872-.612-1.243-.82-2.003-.771-2.82.037-.615-.084-1.397-.267-1.738-.429-.796.004-1.943.918-2.433.354-.19.644-.571.644-.847s.149-.762.331-1.08.331-.992.331-1.498c0-.704.122-.944.523-1.023a1.53 1.53 0 0 0 .815-.503c.242-.331.55-.356 1.78-.144 1.421.245 1.523.224 2.284-.471.866-.791 3.973-2.351 5.044-2.533a15.1 15.1 0 0 0 1.46-.35c.437-.13 1.389-.308 2.117-.395 2.449-.293 10.264-.656 10.533-.489.147.091 5.1.206 11.007.256 13.127.111 15.388.418 18.575 2.519 1.165.768 1.794.997 2.91 1.061 1.145.065 1.472.189 1.667.633a1.8 1.8 0 0 0 .784.794c.345.154.644.667.824 1.414.155.644.427 1.22.605 1.279s.323.348.323.641.194.942.431 1.441c.41.865.398 1.032-.265 3.556-1.026 3.909-1.045 3.837 1.091 4.2 2.561.435 2.712.502 2.712 1.211 0 .62-.903 1.494-2.383 2.307-2.299 1.263-3.372 2.117-3.249 2.588.071.271-.048.744-.264 1.052-.365.521-.681.568-4.517.671-3.723.1-4.178.163-4.667.653-.516.516-.721.533-4.174.338-1.997-.113-4.138-.174-4.756-.137-2.654.16-3.8.121-6.548-.223-3.199-.4-5.748-.44-7.472-.118-.727.136-1.245.107-1.473-.081-.36-.299-1.832-.047-2.962.506-.291.143-.886.259-1.323.258-5.273-.007-6.836.014-9.79.132l-5.027.224c-.873.047-2.323-.054-3.222-.225zm11.275-1.624c2.101-.062 4.297-.242 4.881-.399.873-.235 1.113-.215 1.352.113.258.352.458.341 1.734-.099 1.833-.633 2.898-.664 2.898-.086 0 .312.09.355.331.157.182-.15.926-.353 1.654-.451s1.693-.291 2.145-.43c.552-.169 1.073-.154 1.588.044.421.162 1.956.403 3.412.535s3.092.313 3.638.403c.704.116.992.068.992-.166 0-.252.485-.284 2.051-.135 3.754.356 6.789.338 7.078-.043.161-.212 1.044-.396 2.249-.47 6.567-.4 6.879-.443 6.879-.951 0-.267.268-.674.595-.904 1.534-1.079 4.303-2.783 4.552-2.799.913-.061-1.046-.477-2.322-.492l-1.54-.019.174-1.389c.096-.764.387-2.282.647-3.373.29-1.217.381-2.101.234-2.286-.132-.166-.164-.774-.071-1.351.147-.918.098-1.068-.389-1.195-.462-.121-.557-.348-.557-1.33 0-.962-.1-1.211-.528-1.323-.291-.076-.618-.358-.728-.626-.133-.327-.471-.488-1.022-.488h-.823l.129 2.263c.141 2.477-.06 3.128-1.437 4.655-1.429 1.585-1.899 1.631-19.139 1.873-17.301.243-25.389.198-26.524-.147-.473-.144-1.19-.335-1.593-.424s-1.326-.743-2.051-1.453c-1.188-1.163-1.317-1.403-1.306-2.441.006-.633.116-1.687.243-2.341.296-1.524-.157-2.117-1.618-2.117h-1.017v1.147c0 .631-.089 1.237-.198 1.347s-.198.696-.198 1.301c0 1.047-.041 1.104-.858 1.183-.856.083-.857.085-.463.847.497.962.507 1.822.021 2.009-.3.115-.224.465.386 1.778.752 1.616 1.291 4.088 1.097 5.033-.083.404-.258.458-1.024.315-.64-.12-1.12-.044-1.563.246-.798.523-.811.846-.044 1.089.327.104 1.024.459 1.548.79s1.298.641 1.72.689c.656.075.767.202.767.881 0 1.164 1.265 1.481 5.159 1.293l6.862-.26zm19.067-11.554l5.689.069c3.785.069 8.838-.124 11.113-.422 1.647-.216 2.33-.572 3.011-1.567.346-.506.736-.921.866-.921.448 0 .827-1.457.782-3.005-.051-1.746-.545-2.918-1.421-3.37-.326-.168-.854-.543-1.173-.833s-1.688-.828-3.043-1.195l-2.463-.667-15.01-.061c-8.255-.034-14.954.029-14.885.14s-.559.194-1.394.185-1.816.045-2.18.119c-4.554.926-7.398 2.414-8.456 4.424-.565 1.073-.649 3.291-.163 4.314.47.991 2.574 2.324 3.989 2.529 2.752.398 7.128.518 14.552.399l10.186-.138z" fill-opacity=".691"/><g stroke="#570011"><path d="M23.917 135.855c-.917-.19-1.287-.518-1.287-1.139 0-.611-.312-.961-.858-.961-.383 0-3.186-1.359-3.588-1.739-.124-.117-.035-.305.257-.544.327-.267.741-.365 1.548-.365.997 0 1.107-.04 1.164-.426.16-1.084-.397-3.419-1.378-5.774-.206-.494-.211-.694-.026-.991.308-.493.293-1.189-.041-1.99-.27-.646-.267-.656.236-.766l.726-.177c.223-.067.348-.814.561-3.356l.123-1.466h.922c.683 0 1.024.103 1.317.396.362.362.382.511.236 1.75-.373 3.17-.241 3.581 1.659 5.18 1.733 1.458 2.476 1.585 9.91 1.699 7.705.118 31.877-.243 34.797-.519 2.439-.231 3.338-.581 4.333-1.686 1.102-1.223 1.259-1.766 1.259-4.354v-2.276h.651c.415 0 .741.126.899.346.136.19.481.498.767.684.449.291.52.463.52 1.248 0 .848.326 1.505.746 1.505.083 0 .195.702.248 1.561.073 1.175-.01 2.098-.334 3.736-.237 1.197-.489 2.611-.56 3.143l-.128.967 1.575.13c2.411.199 2.443.231 1.069 1.034-2.167 1.267-3.554 2.296-3.839 2.848-.334.646-.495.68-4.641.954-3.336.221-4.307.346-4.448.574-.211.341-2.341.411-5.61.184-2.835-.197-3.442-.195-3.571.015s-.718.193-3.432-.093c-1.802-.19-3.735-.464-4.295-.61-.928-.241-1.208-.228-3.121.146-1.156.226-2.226.475-2.378.554-.169.088-.36.029-.494-.154-.296-.404-1.325-.343-2.931.174-1.249.402-1.314.405-1.672.081-.326-.295-.494-.311-1.349-.128-1.739.373-14.303.86-15.543.603z" fill-opacity=".691" stroke-width=".333"/><path d="M31.491 110.982C-22.83 25.586 50.404 13.81 50.404 13.81c61.843 19.411 31.521 83.006 17.701 97.029 5.484 1.12 6.538 3.802 6.538 3.802C124.158 54.209 86.521 10.424 50.443.35-8.391 24.187-13.026 61.407 24.056 115.833c1.42-3.718 7.435-4.851 7.435-4.851z" fill-opacity=".588" stroke-width=".665"/></g></svg>