<svg xmlns="http://www.w3.org/2000/svg" width="115.155" height="133.485" viewBox="0 0 30.468 35.318" xmlns:v="https://vecta.io/nano"><style><![CDATA[.B{fill-opacity:.658}]]></style><g fill="#570011"><path d="M15.663 0c-.539 1.617-2.436 2.166-2.032 3.979l-.762-.593.423-2.201h-.085l-.762 1.524c-.644.267-.672.811-.593 1.439l-.423.085.423-2.371c-.549.421-.951.866-1.185 1.524-.72.121-.898.588-.847 1.27-.991-.146-.887-.942-.847-1.778l-.508 1.101c-1.08-.034-.066 1.309-.762 1.609l-.339-2.117h-.085L6.943 5.08c-1.216.391-.608 1.526-1.439 2.201l-.254-1.863h-.085l-.254 1.439-.169-.085c-.134.629.02 1.062.339 1.609l-.339.085-.762-1.778c-.064.89-.152 2.46-.593 3.217l-.254-1.439h-.085l-.085 1.355c-.228-.072-.287-.072-.339.169-.606-.862-.746-1.62-.423-2.625-2.223 2.001-.062 3.724.931 5.419l-1.016.085-1.101-1.27H.931c.269.682 1.453 2.348 1.185 2.963L.593 12.954l.762 1.863c-.29.062.003 2.258-1.016.847H.254l1.355 1.863L0 16.595c.877 1.54 1.205 2.525 2.709 3.556v.085l-.423.339-1.609-.847c.495 1.005 1.279 2.067 2.455 2.117-.652.236-1.382.108-2.032-.085l2.455 2.286-.508.169-.847-.762 1.27 1.778c.067-.423-.223-.657-.508-.931.387.06 3.029 2.21 1.693.508 2.162.282 1.405.52.423-1.016l1.693.762c-.343-.307-2.445-1.869-2.371-.847l-.762-.423c.313.392.736.561.762-.085 1.773 1.061-2.901-1.052-2.709-1.016v-.085c3.169.346 1.326-.25-.593-1.863l1.27.508c.219-.175 4.963 2.169 3.606.802-.834-.84-1.663-.525-1.912-1.987.997.408 1.724.338 2.625-.254.184.885.073 1.588.847 2.201-.698 1.229-.119 2.264-.085 3.556l-.847-.339v.085l.254.085.169 1.524c-2.434.375-1.891.879-3.979 0v-.085c1.987.369.609-.122.254-1.27h-.085c.023.641.334.926.847 1.27l-.085.085-.931-.169-.169-.339-.254.254.931.677c.136.572.391.869.931 1.101l-.254.677h-.085c-.813-.625-1.629-.086-2.201.593l-.593-.508c-.893 1.865-1.19 6.057 2.117 4.487.437 1.856 2.566 1.515 3.895.931 1.207 1.481 3.089 1.261 4.572.339 1.203 1.15 6.657 1.168 7.789-.085 1.229 1.013 2.828 1.135 3.979-.085l1.016.593c1.229-.101 2.653-.19 3.133-1.524 3.316.964 2.685-2.82 2.286-4.826h-.085c.154 1.531.549 2.732-.847 3.81.5-1.334-.027-2.503.762-3.81l-.593.677h-.085c-.601-1.108-1.626-1.179-2.625-1.778l.085-.508.931-.762-1.101.169.423-.339v-.085l-.508.085.169-.508 2.879.169c-.243-1.111-.737-2.573-1.778-3.133v-.085l.508-.593.423-.169v-.085l-.931.254v-.085l.593-1.185c-.789.833-1.272 1.395-2.54 1.101.732-1.074 2.192-.966 3.217-1.693l-4.826 1.947c.62-.771 1.431-.976 1.693-2.032 1.642 1.1 3.555-2.006 2.625-2.286.523-.328.754-.683.931-1.27l.762-.423-1.609.931c-.561-.108-.891.239-1.185.677-.073-1.051 2.101-1.302 1.355-2.54l1.524-1.778c-.807.354-1.799.756-2.286 1.524h-.169l1.355-2.879h-.085l-1.609 1.439-.508-.254c.783-1.447.237-3.092 1.101-4.403-.428.306-.687.594-.847 1.101-1.643.302-.959.486-.593-1.609l.423-.508c-.577.431-1.034.827-1.27 1.524l-.169-.169-.847.423v-.847c.944-.935.141-2.536.254-3.725h-.085l-.423 1.609-.169-.169-.423.254c.041-.387.024-.652-.339-.847l.085-1.355h-.085l-.423 1.778-1.101.254c.058-.917.726-1.846-.254-2.455l-.085-1.439h-.085c-1.063 2.685-.304.739-1.101.423l.254-1.355-.677 1.524c-.622.261-.705.781-1.101 1.27l-.339-2.54h-.085c-.222.901-.264 1.614-1.101 2.117L17.272.593c-.327.31-.472.565-.508 1.016l-.085.085-.762.254-.254-.339c.168-.578.222-1.039 0-1.609m.085.593c-.552 3.918-.484 1.66 1.101 1.185l.085-.847h.085v1.27c1.568.954-.947 3.625-.847 1.947h.169c.537.86.564-.744.593-1.101h-.085l-.339 1.355.085-.339c-.804.305-.872 2.163-.931 2.963h-.085v-.339h-.085v.254l-.169.085h-.085v-.254h-.085l-.339.085-.169.254.085.254-.254-.085.085.339h-.085l-.085-.254h-.339l.085.339h-.085v-.169h-.085l.085.593h-.085c-.19-.716-.495-1.369-.339-2.117l.508 1.101c-.134-.808 1.44-1.83.169-2.201v.085c.708.264.352 1.051-.323.86-2.257-.638 1.161-4.592 1.763-5.262m-2.794 1.27c.115 1.459-.859 5.107-.762 3.81h.085l.254.254c-.559-.271-1.05 2.158-1.016 2.709h.085c.057-.829.35-1.513 1.016-2.032-.221.758-.52 1.312-.339 2.117h-.085l-.254-.339.169.593h-.085l-.169-.508-.423.931-.339-.085-.085-.508h-.085l.677 1.27v.085l-.762-.762-.254.339.677.931-.677-.593v.339c-.29 0-.145.301-.085.508l.508.254-.423-.254.169.254-.593-.847h-.085l.254.762-.254-.169.169 1.185-.254-.085.085.169h-.085l-.423-1.016h-.085l-.085 1.693-1.27-.254v-.085c.594-.928-.254-4.727-1.355-5.165v.423V6.35h-.085c-.013.217-.186 2.152.254 1.101.723.241-.196 1.117-.714.556-.496-.537-.177-2.865.799-2.757l.254-1.27h.085c-.38 3.426.713.966 1.355-.593.087.441.796 4.344 0 2.709h-.085l.169.762-.508.423c.607-.279 1.047-.355 1.439.254-1.147.451-.946 2.095.237 1.554.825-.377 1.158-3.424.271-3.501h-.085l.085-.677c-.239.453-.062.628.423.593-.435 1.018-1.497-.095-.339-1.016-1.01-.203.736-1.644 1.016-2.032h.085v.931c-.91 2.094.263 1.088.677-.593l.847-.931m7.705.423c-.171 2.454-.411 3.515.931.762h.085l.085 1.947c-.037.356-.391 3.183-.931 1.439-.024.383.075.572.339.847-.498.616-1.094.649-1.355-.169h-.085c.21 1.013.667 1.389-.339 2.117l.085-.339-.169.085.085-.847-.339.085.085-.254-.339.169.254-.508h-.254v-.085l.254-.169v-.085l-.085-.423c-.893-.433-2.005-1.013-1.101-2.032-.416-.674.545-1.513.677-2.286.706.961.392 4.248 1.185.677l.931-.931m-4.741.169l-.085.593-.339-.169v-.085l.423-.339m-.423.508l.508.169c-.263.413-.698.366-.508-.169m-8.297.339l.085.085-.085-.085m-.169.254l.085.085-.085-.085m7.197.254v1.185l.085.339c-.672-.255-.018-.992-.085-1.524m-2.963.339l.593.169c-.32.494-.917.51-.593-.169m7.62 0l.593.169c-.227.787-1.02.609-.593-.169m1.609.085l.593.169c-.284.613-.813.532-.593-.169m-3.048.423l-.169 1.439-.593.254-.085-.339h-.085l-.085.254.169-1.185.677-.423h.169m-4.572.254l-.339 1.185c.401-.348.448-.679.339-1.185m3.387.085h.085l.085 2.709h-.085l-.339-1.185-.169.169h-.085l.508-1.693m7.281.085c.216 1.322-.358 5.062.677 1.355.418-.059.479-.283.508-.677h.085c.238.648-.026 3.044-.254 2.032-.1.499-.962 2.613-.762 1.27-.191.475-.618 4.008.396 3.019.857-.835.104-2.105 1.382-2.935l1.016-.931c-.646 2.233-.809 4.188.847 1.101h.085c-.013.324-.049 3.457-.762 2.117h-.085l.508.593c-.171.691-.599.918-1.101.339l.339.677c-.461.601-1.113.692-1.27-.169l-.339 1.27c-.879-.903-1.383-1.881-2.794-1.439 1.031-.1 1.752.147 2.117 1.185-2.945-2.144-2.722.269-4.233 1.947.461-1.49-.273-3.582 2.117-3.217v-.085l-1.101-.169v-.085l.339-.339h-.339v-.085h.254v-.085l-.677.169v-.085l.931-.169v-.085h-.762l-.254-.339.339-.085-.169-.593.847-.508c-.019.6-.204.941-.762 1.185v.085c1.229-.415.676-1.549.931-2.54l.677.085v-.085c-.951-.432-.566-1.259.339-1.355v-.085c-.874-.514.604-1.639.931-2.286m-15.325.508c-.156.458-.436.532-.677.085l.677-.085m5.249.254l-.254 1.439-.169.254.085.423h-.085l-.254-.339v1.101H12.7l-.254-.931h-.085l-.169.254 1.27-2.201m-8.297.254c.179.448.187.986.677 1.185l.677 1.439-.085.085-1.016.085c-.463-1.166-.488-1.589-.254-2.794m4.826.169c-.033.25-.37 3.484-.677 2.032l.254.169c1.356 1.108-.515-1.723.847-2.201.191 2.798-1.181 2.769-.847 2.201v.085c.52-.673.022-1.504.169-2.286h.254m10.837.085l.085.085-.085-.085m-4.318.085l-.085.085.085-.085m-.113.226l-.028.056.028-.056m7.564-.056l-.085.847-.508-.085v-.169l.593-.593m-8.89.085l.085.085-.085-.085m2.201.085v.085l-.339.169v-.085l.339-.169m-.762.085l.169.677h-.085l-.085-.677m5.419.085c-.498 1.219-.293 3.415-1.947 3.471v-.085h.169v-.085l-.254-.085.254-.085-.254-.254 2.032-2.879m-8.297.254v.254h-.085l.085-.254m-9.483.085l.339 1.355-.508-.254.169-1.101m4.092.056l.028.056-.028-.056m7.507-.056l-.085.085.085-.085m7.535 0l.593.339c-.458.568-1.129.309-.593-.339m-4.487.085l-.169.169.169-.169m-4.911.085l.085.085-.085-.085m2.286.085l.085.254-.085-.254m1.439.085l-.085.085.085-.085m-2.117.169l.085.254-.085-.254m3.725 0l-.085.169.085-.169m-17.357.085c-.091 1.259.41 2.23 1.609 2.709l-.085.593h.085l.508-.339v.423h.169v-.339h.085l.423 1.185c-2.682.61-3.833-2.05-2.794-4.233m10.753 0l.085.085-.085-.085m4.487 0l-.085.085.085-.085m-1.947.085l-.085.085.085-.085m5.757 0c.047.819-.319 1.23-1.016 1.609l-.169-.423.762-1.016.423-.169m-4.064.085l-.085.085.085-.085m-9.398.085c.147 1.206 1.742 4.003-.169 4.149 1.618-1.088-1.634-3.287.169-4.149m8.523.226l-.028.056.028-.056m.875-.056l-.085.085.085-.085m-9.906.085v.423h-.339v-.423h.339M5.08 9.737l-.508-.085.169-.339-.593-.508h-.085l.339.762c-.489-.253-.659-.555-.677-1.101l1.355 1.27m11.176-1.27l-.169.677-.339-.254h.254v-.339l.254-.085m.254 0l-.085.085.085-.085m-11.261.085c-.141.417-.413.565-.593.085l.593-.085m9.229 0l-.085.085.085-.085m2.54.085l.085.169-.085-.169m-2.371.085l.085.169-.085-.169m4.741 0l.085.085-.085-.085m2.879 0l.085.085-.085-.085m-16.171.085v.169h-.169v-.169h.169m5.673 0l-.085.085.085-.085m4.995 0l-.085.085.085-.085M5.842 8.89l-.085.085.085-.085m.508 0l-.169.169V8.89h.169m-3.302.085l.169.931h-.085l-.085-.931m2.54 0l.085.254-.085-.254m.423.085l-.254.254.085-.254h.169m-.593.085l-.254.423-.169-.339.423-.085m1.355 0c.103.699.905 1.505.169 2.032l-.169-2.032m4.741 0l-.085.085.085-.085m3.387 0l-.085.085.085-.085m2.286 0v.339h-.339l.339-.339m-10.668.085c.036.34-.034.587-.339.762l.339-.762m12.785 0l-.085.085.085-.085m-4.318.085l.085.169h-.169l.085-.169m.734.056l-.028.056.028-.056m-10.216.028l.423.593-.423-.593m.847 0l-.339.254v-.085l.339-.169m6.689 0l.085.169-.085-.169m1.75.056l-.028.056.028-.056m.423 0l-.028.056.028-.056m9.596-.056c-.374.683-.503 1.257-.423 2.032l-.593-.085v-.085a1.98 1.98 0 0 0 .254-1.439l.762-.423m-9.313.085l-.085.085.085-.085m-10.075.085l-.085.085.085-.085m6.689 0l-.085.085.085-.085m3.612.056l-.028.056.028-.056m.875.282l-.593-.254.593.254M3.979 9.653l-.169.339.169-.339m.593.085l-.423.423.169.423c-.21-.381-.125-.639.254-.847m7.705-.085l-.085.085.085-.085m-6.858.677l-1.016.085c.33-.41.625-.443 1.016-.085m5.419-.423l.085.169-.085-.169m3.979 0l.085.254-.254-.169.169-.085m1.439 0l.169.339h-.085l-.085-.339m.593 0l-.169.169.169-.169m-14.055.085l.593.339v.085c-.266-.055-.568-.119-.593-.423m.847.254l-.508-.085.508.085m2.963-.254l.085 1.778-.508-.254-.677-1.355 1.101-.169m-2.709.169l-.254.593.254-.593m9.708.056l-.028.056.028-.056m2.568-.056l-.085.085.085-.085m-1.609.085l.254.169v.085c-.199-.025-.335-.042-.254-.254m.169 0l-.085.085.085-.085m1.27 0l.254.085v.085c-.181.022-.289.032-.254-.169m9.821 0l.593.508c-.484.668-1.013.124-.593-.508m-14.563.085l.085.169-.085-.169m-5.419 1.609l.254-.339h.085l-.593 1.355-.593-1.016-.593-1.016.593-.085.423.931c-.194-.448-.207-.741 0-1.185l-1.101.169c1.04-.483 1.804.023 1.524 1.185m7.874-1.439v.254h-.085l.085-.254m2.54.169l-.339.339-.169-.339h.508m-5.673 0l-.085.085.085-.085m.339 0l.085.169-.085-.169m.593 0l-.085.085.085-.085m1.524.085v.085h-.254l.169.169-.085.085-.254-.085.254-.339.169.085m-8.89 0l-.085.085.085-.085m7.197 0l-.085.085.085-.085m.339 0l-.085.085.085-.085m3.048 0l-.254.339v-.339h.254m-7.112.085c.13.825-.547 1.5-.762.423l.762-.423m6.773 0l-.085.085.085-.085m-1.947.085l.085.254h-.085v-.254m7.959.085l-.085.085.085-.085m-2.794.085l-.085.085.085-.085m2.625 0l-.339.339.339-.339m-8.89.085l-.085.085.085-.085m1.609 0v.085H12.7l.254-.085m1.863 0l-.085.085.085-.085m1.355.028c.065 0 .014.042-.028.028l.028-.028m-4.657.056l-.085.085.085-.085m.169.085l-.085.085.085-.085m1.27.254l-.508-.254.508.254m1.016-.226l.028.028c-.042.014-.094-.028-.028-.028m1.524.056v.085h-.677l.677-.085m.593 0v.085l-.423-.085h.423m1.439-.056c.065 0 .014.042-.028.028l.028-.028m1.185-.028l-.085.085.085-.085m-8.721.085l.085.085-.085-.085m.508.028c.065 0 .014.042-.028.028l.028-.028m3.217 0l.028.028c-.042.014-.094-.028-.028-.028m.931-.028l-.254.169.254-.169m3.641.028c.065 0 .014.042-.028.028l.028-.028m6.096.141c-.58.977-1.43-.048 0 0m-14.817-.085l.254.423h-.085l-.169-.085h-.085l.085-.339m3.895 0l-.085.085.085-.085m3.979.254l-.339-.254.339.254m-5.757-.169l-.085.085.085-.085m1.609 0l-.254.169v-.085l.254-.085m2.879 0l.423.254-.508-.169.085-.085m-9.821.085c.204.791-.229 2.499-.931 2.963v.085l.339.169-.508-.085 1.101-3.133m11.684 0l-.085.085.085-.085m.339 0v.085l-.254.085.254-.169m-6.435.085l-.085.085.085-.085m.931.028c.065 0 .014.042-.028.028l.028-.028m4.995 2.258c-.103-.044-1.92-1.662-1.863-1.185h-.085l-.085.339h-.085l-.085-.762-.423.423h-.085v-.339h-.085v.254l-.423-.339v.339h-.508l-.085-.339-1.524 1.27c.756-2.539 5.186-2.467 5.334.339m-.931-2.286l.085.169h-.169l.085-.169m-5.165.085l-.085.085.085-.085m-4.995.085v.254h-.085l.085-.254m5.503 0l-.169.423.085-.254c-.424.263.219.242.423.169-.445.361-.945-.074-.339-.339m-5.249.085c.143.954-.282 2.926-1.355 3.133l1.355-3.133m5.673.169l-.339-.085.339.085m4.741-.169l-.085.085.085-.085m-15.917.085l1.778 1.355h-.593c.936.392 1.862 2.692 2.455 1.439.789 1-.434 2.018-1.016.677h-.085c.247.677.633.946 1.355.931-.639 1.398-4.139-1.754-4.403-2.794 3.009 2.062.656.422.508-1.609m8.382.085l-.085.085.085-.085m.339 0l.085.169-.085-.169m1.439 0l.085.593-.254-.593h.169m5.419 0v.169h-.169v-.169h.169m-12.446.085l.169 2.032c-.516-.702-.207-1.241-.169-2.032m9.483.085l.085.254.423-.339-.508.085m3.387-.085l-.085.085.085-.085m-13.377.169c.849.446-.731 1.357-.847-.085.324.106.759.671.847.085m3.979-.085l-.085.085.085-.085m1.778 0l.423.339v.085l-.423-.423m7.789 0l.508.677h-.085l-.423-.677m10.837 0c-.318 2.687-2.269 2.67.762 1.693-.312.611-.348 1.569-1.016 1.863l.169-.508-.169.677c-2.205 2.751-1.7 1.529.931.593-.574 1.132-.701 2.603-2.031 3.169-.663.282-1.322-.346-.594-.798.292.942 1.099-.13 1.439-.508l-1.355.931c.844-1.975-4.234 1.189-2.54-.085l.423.254-.339-.169.762-1.863-.931 1.101-1.185.085.169-1.693c1.074.614 1.579.212 2.625-.169l-.508-1.693c.821-.051 1.059.433 1.101 1.185h.085l-.254-1.27v-.085c.66-1.619 1.486-1.469 2.455-2.709m-24.553.085v.339h-.085l-.085-.339h.169m2.625 2.625c.479-.831.724-1.489.677-2.455l.508.593h.085l-.423-.677c1.669.312.043 2.278-.847 2.54m5.165-2.625l.085.169-.085-.169m7.197.085l-.085.085.085-.085m-9.059.085l.169.254-.169-.254m3.895 0l-.085.085.085-.085m-8.721.085l.254 1.609-.339.085.085-1.693m7.535.339h-.085c-.634-.263-.839 1.018-.931 1.439-.115-.586.208-1.883 1.016-1.439m2.201-.339l-.085.085.085-.085m.762.169h-.254l.085-.169.169.169m-6.773.677l-.085-.762c.488.181.505.468.085.762m1.016-.762l.085.169-.085-.169m5.249 1.185l-.593-.339c-.105-.528-.734-.344-1.101-.677.916-.179 1.494.071 1.693 1.016m-6.689-1.101c.21.406.197.653-.085 1.016l.085-1.016m2.963 0v.169l-.169-.169h.169m.423.254l-.254-.254.254.254m7.281-.254v.085l-.339.085v-.085l.339-.085m-8.551 1.101v-.085c.14-.366.085-.554-.169-.847.584.11.679.633.169.931m1.947-1.016v.085l-.254.085.254.254-.085.423c-.292-.01-.378.083-.508.339-.097-.385.221-1.043.593-1.185m7.027 0v.085h-.254l.254-.085m.593 0l-.085.085.085-.085m-14.563.085l-.085.931h-.085l.169-.931m1.693 0l-.339 1.355h-.085l.423-1.355m9.652 0l.085.339-.423-.085.339-.254m5.842.085v.085c-1.912-.015-1.348 2.601-2.709 3.556.156-1.596.776-3.846 2.709-3.641m4.233-.085l-.085.085.085-.085m-16.679.423v.085h-.931l.169-.423.762.339m4.149-.339l.085.169h-.169l.085-.169m1.016.028l.028.028c-.042.014-.094-.028-.028-.028m1.016-.028l-.085.085.085-.085m1.863 0l.085.169h-.169l.085-.169m8.467 0l-.762 1.947-1.016-.085v-.085l.593-1.016.931-.762h.254m-23.283.085l.762.169c.728 2.596.301 1.56-.762-.169m6.689.028c.065 0 .014.042-.028.028l.028-.028m.339-.028l-.169.593.169-.593m1.185 0l-.085.085.085-.085m7.281.254l-.508-.085.508.085m4.064-.085l-.254-.085.254.085m-11.43.085l-.254-.169.254.169m4.487-.169l-.085.085.085-.085m1.101 0v.339h-.085l.085-.339m5.927.423c-.643-.109-1.11-.038-1.693.254.438-.697 1.047-.69 1.693-.254m-8.721-.339v.169h-.254v-.169h.254m.847 0v.169h-.169v-.169h.169m.169 0l-.085.085.085-.085m1.524.423l.677.339c-.246.161-.4.258-.593 0h-.423c.04-.383-.184-.468-.423-.169l-.762.085.339-.508c.466-.072.928-.261 1.185.254m6.265-.423l1.101 1.355-.593.339.423.423c-.93-.644-1.777-1.38-2.709-.339h-.085l.169-1.101c.711-.333 1.238-.329 1.863.169-.631-.207-1.133-.263-1.778-.085v.085c.881-.213 1.571-.065 2.032.762h.085l-.508-1.609m-9.313.169l-.169.423h-.169l-.085-.508.423.085m1.693-.085l-.169.254.169-.254m-6.35.085l-.254 1.101h.423v.169c-1.467 1.033-1.838 2.61-2.879 3.979l2.371-3.471c.057.6.328.9.847 1.185 0 3.419 1.054 6.114 2.54 9.144-1.032-.891-3.492-4.609-3.895-5.842h.085l1.016.931c-1.23-1.265-1.511-2.083-.847-3.725-.834 1.396-1.283 2.409-3.133 2.032v-.085c1.685-.456 2.171-3.149 3.471-4.318-1.382.969-2.975 6.085-4.995 3.302 2.725 1.553 3.048-3.09 5.249-4.403m.847.169v.085c-.525.09-.626.346-.508.847-.387-.573-.217-1.01.508-.931m8.382-.169l.085.169-.085-.169m-7.056.141l-.028.056.028-.056m8.495-.056l-.085.085.085-.085m-5.503.593l-.085-.508c.31.124.367.305.085.508m.903-.452l-.028.056.028-.056m3.669-.028l.028.028c-.041.014-.093-.028-.028-.028m.677 0c.065 0 .014.042-.028.028l.028-.028m5.588-.028l-.254 1.016.254-1.016m-15.494.085l.254.762c-.309-.228-.419-.399-.254-.762m1.439 0l-.085.085.085-.085m.931.028l.028.028c-.042.014-.094-.028-.028-.028m12.192-.028l.508 1.016c-.349-.291-.496-.56-.508-1.016m-10.245.931c-1.568.535-1.311 1.427.169 1.778v.677c-.94-.391-3.918-1.762-1.878-3.06.58-.369 1.822-.253 1.709.604m4.487-.847l.254.085v.085l-.339-.085.085-.085m-7.366.169v.085c-.525.233-.985.351-1.355-.169l1.355.085m5.334.085l-.254-.085.254.085m2.709-.169l.169.169-.677.339v-.085h.508l-.085-.339-.254.085.085.254-.254-.085.508-.339m.395.056l-.029.056.029-.056m.254 0l-.029.056.029-.056m-4.544.113v.085l-.339-.085h.339m.762-.085l-.085.423h-.339l.423-.423m-1.27.085l.677.169v.085l-.254.085v.085h.339l-.339.254v.085l.339-.085.085.085-.085.254-1.101-.423h-.339v-.085h.508l-.254-.339.339.254h.085v-.423m3.697.056l-.028.056.028-.056m-15.804.028c.092.457-.019.945-.508.508l.508-.508m15.071 0l-.169.847c-.54-.299-.25-.59.169-.847m-6.604.085l-.254.169v-.085l.254-.085m.762 0l-.254.254.254-.254m4.826 0l.085.339h-.423l.169-.339h.169m-4.233.085c-.18.497-.223.867 0 1.355l.593-.762v-.169l-.423-.423h-.169m5.842 1.524h-.085c.013-.465.223-1.109-.339-1.27.798-.394.513.878.423 1.27m9.229-1.524l.423.508c-.489.305-.654-.023-.593-.508h.169m-10.612.141l-.028.056.028-.056m-5.644.028l-.931 1.185.931-1.185m6.096 1.439h-.085l-.762-.169.169.423-1.016-1.016v-.593c.915.059 1.511.428 1.693 1.355m6.943-.677l.169.593c-2.703-1.002-2.19-1.1-3.133 1.524-1.698-3.034 1.926-2.018 2.963-2.117m-19.248-.621l-.028.056.028-.056m5.786-.056v.085l-.508.169v-.085l.508-.169m.762 0l-.169.254.169-.254m1.016 0l.169.169v.085l-.339.254-.085-.254.254-.254m5.588 0l.085.085-.508 1.439-.085-.423v-.508l.169.339c-.661-.234.076-.589.254-.847h-.085v.169h-.085l.085-.254h.169m.677.254l-.254-.169.254.169m-8.551.339c-1.606-.37-.757 1.717.254.339.098.884-1.277 1.098-1.596.321-.345-.84.887-1.433 1.342-.66m8.805-.423l-.423.339v-.085l.254-.254h.169m.762 0v.085l-.508.677c.038-.384.184-.561.508-.762m4.403 0c.679.496.953 1.247 1.185 2.032-1.558-.369-3.84-1.586-.931-.847l-.254-1.185m-8.297 1.101h-.085c-.655-.563-1.598-.818-2.455-.847.857-.224 2.023.125 2.54.847m6.773-.931l-.085.339h-.847l.931-.339m-11.176.085l-.254.508c-.053-.287-.013-.386.254-.508m2.286 0l.085.339-.085-.339m-6.943.085l-.508 1.185c-.017-.511.025-.928.508-1.185m3.217.085l.254.593c-.957.516-1.349-.552-.254-.593m3.556-.085l-.169.339h-.085l.085-.339h.169m-7.366.085c-.073.739-.262 1.302-.762 1.863-.114-.836-.155-1.573.762-1.863m12.277.028l.028.028c-.041.014-.093-.028-.028-.028m1.185-.028l-.254.339.085-.339h.169m-13.208.085l.085.085-.085-.085m4.572 0l-.423.254.423-.254m1.947 0v.423c-.325-.108-.325-.315 0-.423m.169 0l-.085.085.085-.085m1.016 0v.169h-.169v-.169h.169m8.467.677l-1.27 2.709c-.014-.594.533-4.004 1.27-2.709m-8.326-.536l-.028.056.028-.056m-.649.028l-.254.254.254-.254m1.101 0l-.085.169h-.085l-.085-.169h.254m.339 0l-.085.254h-.085v-.254h.169m6.689 0l-.085 1.185h-.085l.169-1.185m-8.551.085l-.169.423.169-.423m.847 0l-.085.339-.339-.085.423-.254m1.355 0v.508h-.085l.085-.508m2.032.085l-.085.085.085-.085m.931 0l-.085.085.085-.085m2.625 0l-.339 1.27-.423-.169v-.169l.762-.931m-10.16.085c-.934 2.172.116 4.19.085 6.604h-.085c-.758-2.29-1.568-4.49-.169-6.604h.169m.931.677l-.677-.677.677.677m2.54-.677l-.169.169v-.169h.169m.254 0l.085.339-.339-.085.254-.254M4.402 17.105a2.73 2.73 0 0 0-1.609-.339l.762 1.185c-3.986-.197-.794-3.944.847-.847m8.721-1.185l-.085.085.085-.085m.564.056l-.028.056.028-.056m2.23-.056l-.085.085.085-.085m2.596.056l-.028.056.028-.056m1.129-.056v.339h-.085l.085-.339m-5.588.085l-.085.085.085-.085m.254.028c.065 0 .014.042-.028.028l.028-.028m1.185-.028c-.052.241-.11.242-.339.169l.339-.169m.593 0l.254.508-.508-.085.254-.423m1.693.169l-.254-.169.254.169m.508-.169l-.423.423.423-.423m-3.556.085l-.085.085.085-.085m2.371 0l-.254.423v-.423h.254m2.371 0c-.224.284-.395.416-.762.423l.762-.423m-18.627.085l.339.762H1.1l-.254-.762m10.329 0c.081.976.416 1.838.847 2.709l-.677.254c-.464-.994-.676-1.938-.169-2.963m3.725.254v.085l-1.609-.254 1.609.169m.169-.254l.085.169h-.169l.085-.169m.677 0v.508c-.193-.194-.159-.295 0-.508m.762 0l-.085.085.085-.085m1.016 0c-.313 1.766-1.799 1.306-3.133 1.016v-.169l.339-.085-.169-.339c.766.217 1.4.441 2.032-.169h.085l-.085.423.677-.677h.254m.931 0v.847h-.085l.085-.847m4.403 0c.08 1.757-.124 2.791-1.778 3.641l1.778-3.641m-11.261.085l.593.169c.228.084.28.22 0 .254v.085l1.355 1.524v.085c-1.207.161-1.901-1.02-1.947-2.117m13.462.593c-.82.833-1.789.47-2.117-.593l2.117.593m-9.737-.508l-.085.085.085-.085m-8.89.085l-.423.677.423-.677m17.949.169v.085l-.762-.254.762.169m-9.313-.085l.339.169v.085l-.423-.169.085-.085m2.709 0l-.254.254.085-.254h.169m.339 0l.085 1.27v-.085-.085l.169.085v-.085l-.423-1.101h.169m1.693 0c-.331.43-.681.591-1.185.339.482.045.79-.065 1.185-.339m-9.821.085l-.085.931h-.085l.169-.931m5.927.028c.065 0 .014.042-.028.028l.028-.028m-1.439.056l-.085.254h-.085v-.254h.169m-1.524.085v.085H12.7l.254-.085m2.709 0l-.085.085.085-.085m5.08 2.963l.169-.677h-.085c-.207.575-.467.906-1.016 1.185l.508-1.101-.847 1.439c-.603-1.085-1.05-1.683-2.201-2.201l1.355.085v-.085l-.593-.169 2.032-.423v-.085l-1.185.085c.493-.382 1.002-.415 1.609-.423v-.085h-1.016v-.085h.677l-.254-.254c1.692-.226 1.671 1.882.847 2.794M4.402 17.359l-.423-.085v.085c.914.264 1.509.093 2.371-.254-.406 1.277-1.742 1.134-2.455.169H3.81l.085.593-.762-1.016 1.27.508m13.462-.508v.423-.423m-6.35.085l1.016 1.778-.423.085-.593-1.863m1.101 0l1.524 1.355c-.733-.197-1.277-.623-1.524-1.355m.762 0v.085h-.254l.254-.085m.254 0l.169.254-.169-.254m3.979 0l-.085.339h-.085l.169-.339m-12.954.085h.762c-.203.425-.613.515-.762 0m6.011 0l.085 1.27c-.295-.435-.271-.791-.085-1.27m8.297.423l-.508-.339.508.339m8.043-.254l.339.423c-.477.838-.962.223-.339-.423m-12.531.423l-.085-.254.931.423c-.801.249-1.352.074-1.947-.508l1.101.339m-.339-.339l-.085.085.085-.085m3.556 0l-.254.931-.677.169.931-1.101m1.524 0l-.085.085.085-.085m-4.149.085l-.254.169.254-.169m2.201 0l-.169.254.169-.254m.847 0l-.593.762.593-.762m-17.441.085l2.794 2.032c-.488.184-.898-.186-1.355-.339v.085c.426.227 1.742.445.847.085l.085-.254.847.169c-.714 2.316-2.838-.883-3.217-1.778m18.034 0l-.085.423h-.085l.169-.423m-17.018.085c.169.191.256.298.085.508l-.085-.508m13.631 0l.169.085v.085l-.169-.169m.423 0l.169.085v.085l-.169-.169m9.229 0l.085.085-.085-.085m-8.467.113c.065 0 .014.042-.028.028l.028-.028m.339-.028l-.085.085.085-.085m-.762.085l-.085.085.085-.085m-.085.169v.085l-1.016.254 1.016-.339m1.016-.085c-.398.424-.793.567-1.355.677.397-.412.803-.562 1.355-.677m1.072.056l-.028.056.028-.056m-14.196.198c.547.816 1.519 1.128 2.455 1.27-1.336.946-2.118-.094-3.048-1.016l.423.762c-.693-.185-1.166-.466-1.524-1.101l1.693.085m11.007.339h-.508c-.099-.415.372-.23.508 0m9.737-.339c-1.337 4.303.048-.319 2.201 1.101-1.408-.31-1.824 1.878-3.459 1.865-1.356-.011-.358-2.097.411-2.373v.254l.847-.847m-22.606.085l.254.508-.423-.508h.169m2.625 0l1.185.085v.085c-.361.115-1.04.337-1.185-.169m10.753 0l.085.508c-.203-.183-.231-.274-.085-.508m-5.419.254l1.101 4.403h-.085c-.52-1.407-1.108-2.872-1.016-4.403m4.064.028l.028.028c-.042.014-.094-.028-.028-.028m-.254.056a7.67 7.67 0 0 1-2.371 1.863c.051-1.39 1.215-1.564 2.371-1.863m1.439.339h-.085l-.339-.254-.085.339-.254-.085c.299-.144.469-.163.762 0m1.016-.339l-.085.339-.339-.339h.423M18.88 21l-2.117-2.54c.884.237 2.896 1.46 2.117 2.54m-.198-2.512l.056.028-.056-.028m-4.374.395l-.508-.085c.211-.184.441-.229.508.085m4.233 1.947c-.868-.654-1.495-1.217-2.117-2.117.642.339 1.835 1.448 2.117 2.117m-2.455-1.778l-.339.169-.085-.254-.339.085c.172-.433.503-.287.762 0m1.778-.339l1.016.931-1.016-.931m-9.906.085c.081.56.037.933-.508 1.185l-.169-.847.677-.339m7.027 0l-.085.085.085-.085m1.439.085l-.254.169.085-.254.169.085m-2.54.085v.085h-.254l.254-.085m.339 0v.169h-.169v-.169h.169m1.355.169v.085l-1.016-.085h1.016m7.197-.169c-.412 3.038 1.865 2.399 3.133.339-.307 1.939-1.903 1.761-2.963 3.048L21.251 19.9l1.524-.931m-9.229.085l-.254.169.254-.169m.847.085l.169.254-.169-.254m1.947 2.879l.085-.508h-.085l-.423.593-.085-.085.169-.423h-.085l-.677.423.339-.593c-.545.426-1.002.59-1.693.508h.508l.593-.085.169-1.609-.508.508-.254.423c1.108-3.015 3.694-1.229 1.947.847m-8.128-1.355c-.885.073-.518-.477 0-.762l.508 1.185c-1.669.397-1.607-.413-1.947-1.778.827.256.329 1.756 1.439 1.355m5.08-1.27h-.254l.085-.169.169.169m.931-.085v.085l-.762.085.762-.169m1.185.169l-.677-.254.677.254m-1.016.593h-.169c-.499-.222-.551.167 0 .169.127 1.582-1.539 1.83-1.736.257-.134-1.069 1.507-1.255 1.905-.426m.226-.452l-.028.056.028-.056m.536-.056l-.339.339v-.339h.339m-2.262.328c-.153.113.059.289.191.19.151-.112-.058-.288-.191-.19m.315.18h-.423V19.9l.085-.085.339.254m.847-.169c-.085.257-.158.296-.423.254v-.169l.423-.085m.677 0l-.169.169V19.9h.169m8.382 3.048c-.733.007-1.283-.13-1.863-.593l.254.085-.593-.508c1.811 2.871 3.928-1.676 6.011.931-1.875-.426-3.976 1.878-5.48 1.057-.99-.541-1.22-2.313-1.971-3.173 1.726-1.622 2.927.771 3.641 2.201m-6.011-2.963c1.68 1.155-.037 1.014 0 0m-12.954.677l-.593-.339c.332-.077.44.052.593.339m8.043-.508c.526 1.846 1.904 1.976 3.556 1.947-.938.458-1.331 1.911-2.54 1.697-1.471-.26-2.597-2.852-1.016-3.644m2.455 0l-.254.254-.085-.085.339-.169m2.371.508c1.321.802 2.162 1.06 2.455 2.709-.962.248-2.054.147-2.963-.254-.24.68-.696.953-1.355 1.185v.169l1.609-.508.677.762v.085c-1.537.964-2.59.375-4.064-.339l.762.593c-.46-.101-.728-.242-.931-.677 1.591.011 1.678-1.511 3.048-1.778v-.254l-.339-.085v-.085c.762-.287.927-.777 1.101-1.524m1.778.085l-.423.339V21l.423-.254m.677.085l-.085.085.085-.085m5.757 2.032v.085c-.673.457-1.104 1.11-1.709 1.639-3.343 2.925-3.361-2.383-5.149-3.332 2.079-.708 1.519 2.444 3.055 3.058 1.401.561 2.596-1.009 3.803-1.449M14.901 21c-.134.417-.331.547-.762.593l.085-.339.677-.254m-10.499.085c1.54.664.372 1.219 0 0m7.112 4.149c-1.13-.052-2.25.028-3.302-.423v.085c.497.252.968.54 1.439.837 3.937 2.483-1.759 2.708-2.031-.414h.085l.762 1.016v-.085l-.593-.762.508.339-.847-1.101h.677c-1.166-1.099-1.199-4.225 1.098-3.337 1.37.529 1.764 2.613 2.204 3.845m-5.757-3.81c.429.672.027.972-.677.931v-.085l.677-.847m17.441 1.185c.296-1.092 1.074-.483 0 0m4.403-.762c-.158.314-.45.511-.593.085l.593-.085m-24.638.423l.339-.339c.524.47.079.944-.339.339m23.876-.339l.169.508-.423-.508h.254m1.439 0l-.847.508.847-.508m-8.89.085l.169 1.016-.169-1.016m-7.959.169l.423.931c-.381-.226-.465-.501-.423-.931m4.233.085l.423.169v.085c-.336-.012-.871.363-1.016-.085l.254.169v-.254l.339-.085m4.657 0c.505 1.433 1.111 2.183 2.709 1.778v.085c-1.499.459-2.585-.282-2.709-1.863m1.185.169l.085.085-.085-.085m7.281 1.693c-.736-.392-1.394-.822-1.863-1.524 1.055-.011 1.599.536 1.863 1.524m-5.419-1.439l-.085.085.085-.085m-8.297.085c-.131.766-.43 1.295-1.27 1.27l.169.169v.085l-.339-.085v-.169h.677l.169-.423.254.085.169-.254-.085-.254h.169l.085-.423m11.853.931l-2.201-.254c.671-.487 2.135-1.048 2.201.254m-15.748-.847l-.085.085.085-.085m.085.169l-.085.085.085-.085m.056.226l-.028.056.028-.056m3.754 5.278c-2.261-.661-3.681-2.567-5.673-3.133 1.61-.386 2.868 1.872 4.403 2.286l-2.201-4.403c1.138.35 3.028 4.098 3.471 5.249m1.609-5.165h.085l.085.085v.169c-.191-.04-.264-.073-.169-.254m-5.249.085l-.085.085.085-.085m6.096 0l-.085.254-.423-.085.508-.169m10.414.254v.085l-.931-.085v-.169l.931.169m-10.075-.169l-.169.254 1.778.169-1.101.762-.677-1.185h.169m9.821 1.101c-1.189.074-2.29-.013-3.387-.508v-.169c1.073-.143 1.98.086 2.963.508v-.085c-.94-.418-1.764-.617-2.794-.593 1.173-.546 2.398-.074 3.217.847m-16.171-1.016l.931 1.863h-.085l-.847-1.863m6.519 0l.423.085v.085l-.508-.085.085-.085m1.355.254l-.847-.169.847.169m-2.794-.169v.254h-.085l.085-.254m.677.085v.169l-.339.085v-.339l.339.085m-.508 0l-.085.085.085-.085m-2.286.085l.085.085-.085-.085m1.947.085l-.508.339.339-.423.169.085m1.185-.085l.423.677-1.016-.423.593-.254m-4.572.085l.339.085-.085.169.254-.085c-.185.203-.516.128-.508-.169m16.341 1.524c-.975-.016-4.078-.733-1.524-.677l-.508-.847c1.046.056 1.616.583 2.032 1.524m-5.165-1.355l1.016.508c-.616.73-1.097.915-2.032.762v-.085l.847-.169v-.085l-.931.169 1.101-1.101m-21.251.085l-.085.085.085-.085m2.879.677l-1.101-.254-.254-.254c.53-.095 1.164-.08 1.355.508m1.778-.677l.339.593-.339-.593m-3.387.085l.339.254.169.762c-.425-.144-.493-.607-.508-1.016m11.345 0l-.085.085.085-.085m.169 0l-.085.085.085-.085m3.895 0v.085c-.676.434-1.312.751-2.117.847l2.117-.931m.085.254l-.593.423v-.085l.593-.339m-13.547.085c.045.374-.015.56-.339.762l-.085-.339.423-.423m12.023 0c-.035.301-.27.352-.423.085l.423-.085m1.609.085l-.085.085.085-.085m5.673 0c.24.346.435.41.847.339l.254.339v.085l-.677.508v-.085l.169-.169-.508.339h-.085-.085v-.169l.254-.085v-.085l-.423.254v.085l-.677.254.593-.677h-.508l.847-.931m-11.712.113l.056.028-.056-.028m6.209-.028h.085c.191.345.238.562.085.931l-.423-.593.254-.339m6.181 0l-.423.339-.085-.254.508-.085m-8.551.085l-.085.085.085-.085m-10.414.085l.085.085-.169.085v.085l.423-.085c-.153.442-.436.311-.677 0l.339-.169m11.853 0l-.085.085.085-.085m-5.08.169v.085l-.593.254-.085-.423.677.085m4.911-.085l-.085.085.085-.085m.423 0l-.254.254.254-.254m-4.995.085l-.931.593.931-.593m4.403 0l-.085.085.085-.085m-4.149.085l-1.016.762v-.085l.847-.677h.169m2.709 0c.221.337-.006.5-.339.593v-.085l.254-.423.085-.085m-12.277.085l.085.254h-.677v-.085l.593-.169m5.757 0l1.27 1.185h.085l-.931-1.101v-.085c.688.196 1.087.571 1.439 1.185h.085l-.085-.339h.085l.847 1.355c-1.183-.428-1.947-1.313-2.879-2.117l.085-.085m6.181 0l-.762.593.762-.593m2.117.085l-.085.339-.423-.339h.508m5.757.339c-1.277 1.557-3.285 1.648-4.995.762l2.709-.169c-.843.116-2.804.291-1.863-1.016l4.149.423m-9.906-.339l-.085.085.085-.085m2.286 0l-.169.254.169-.254m2.794.169l-.169.593-.339.169-.423-.593h.593v-.085h-.339l.677-.085m-5.249-.085l-.085.085.085-.085m1.693 0l-.254.169.254-.169m1.947.254v.085c.654.172.077.344-.339.169v-.085h.339l-.508-.254v.085h.254v.085h-.508c.201-.675 1.168-.134.762-.085M7.45 25.657v.339l-.593-.423.593.085m3.048.339l-.762-.423.762.423m2.032-.423l-.085.085.085-.085m2.371.423h-.085-.085l.085-.169h-.085l-.169.254-.254-.339c.312-.072.456-.044.593.254m1.016-.339c-.291.238-.492.323-.847.169l.847-.169m-3.302.085l-.085.085.085-.085m6.773.085v.169h.169v-.169h-.169m-5.249.085l-.085.085.085-.085m1.947 0l-.085.085.085-.085m.677 0v.423h-.085l.085-.423m1.185 0v.085c-.412.132-.634.3-.847.677h-.085l-.085-.677 1.016-.085m-1.439.085c.3.959.709 1.622 1.609 2.117v.085c-1.115-.141-1.716-1.11-1.609-2.201m9.991 0l-.085.085.085-.085m-18.965.085v.169l-.508-.085.508-.085m5.927 0l.339.593c-.267-.149-.367-.283-.339-.593m.508 0v.169h-.254v-.169h.254m.847 0l-.085.085.085-.085m.254 0l.085.677h-.169l.085-.677m1.185 0v.169h-.762l.762-.169m9.737.028c.065 0 .014.042-.028.028l.028-.028m.339-.028l-.085.085.085-.085m-10.922.085v.677h-.085l.085-.677m3.81 0l1.524.931c-.776 1.457-2.596.957-3.556-.085.753.38 1.259.23 1.863-.339l-.762.508.847-.508.085-.339-.339.169.339-.339m5.842 0l-.339.254.339-.254m.508 0l-.169.339-.339-.085.508-.254m.931 0v.169h-.169l.169-.169m-22.267.085c.091.227.031.294-.169.423l.169-.423m14.055.423l-.254.254-.254-.085v.423c-.579-.572.088-1.33.508-.593m7.874-.423v.085l-.593.169.085-.254h.508m1.016 0v.085l-.508.169v-.085l.508-.169m-19.473.085l.085.254-.508.085v.085l1.524.339-.931 1.016v.085h.423c-.265.592-1.008.265-1.524.254v.085c.79.087 1.521.287 2.032.931l-.508-.085v.085l.339.085c-.1.416.131.629.423.254l-.339-.169c.851-.218 1.604-.028 2.455.085v-.085c-.728-.098-1.549-.169-1.693-1.016H8.382v-.254h.339v-.085l-.085-.677.085.085.085.423v-.085l-.169-.085.169-.593c.363.093.549.207.593.593l.254.254-.423.339 2.117-.508.254.339v.085l-.169.254h.677v.085l-.423.169c.049.203.04.211-.169.254v-.085h.169v-.085l-.931-.085v.085l1.524.847h-2.032v.085c1.72.195 4.04-.963 5.419.169-.993-1.014-2.07-.508-3.302-.254l-.508-.593c.606-.583 1.571-.729 2.371-.931v.169l-1.693.931c.884-.399 2.514-.759 3.217.085h.085c-.092-.247-.228-.44.085-.508v-.085h-.423l.339-.423-.677.085-.169-.847c.663.135 1.075-.027 1.609-.423l.085.762c.503.114.794.413.593.931v.085l.339-.593.847.169v-.085l-.677-.169v-.085l.847.169-.169.169c.12.45.022.65-.339.931l.762.169.931-.085-1.101-1.101 1.016-.169c.958 1.67 6.523 1.758 5.757-.254 1.602-1.128 2.479.684 1.08 1.729-3.229 2.414-12.54.766-16.49.808-1.458.016-3.813.27-5.047-.65-1.84-1.372.519-3.812 2.253-3.411l-.085-.254.508-.085m6.773 0l.254.254c-.36.308-.595.202-.847-.169l.593-.085m4.233.085v.085l-.339.085.339-.169m8.551 0c-.843.837-4.814 3.265-4.741.847l4.741-.847m-15.155.085l.085.085-.085-.085m2.032.254l.339-.254-.339.254m2.709-.254l-.085.085.085-.085m.762.254h.339l-.085-.254-.254.254m-1.439-.169l.254.508c-.323.292-.611.467-.847 0h.085l.339.254-.508-.593.677-.169m-12.615.085v.085h-.339l.339-.085m12.361.085v.254h.254v-.254h-.254m-1.016.085l.085.169-.085-.169m3.387 0l-.339.339v-.085l.169-.254h.169m-2.879.085v.085h-.254l.254-.085m1.609 0l.085.254-.085-.254m-13.208.085l.085.085-.085-.085m11.007 0l-.254.254.254-.254m11.769 0l-1.355 1.439-.254-.169.423.254-.085.169.254-.085c-.312.645-.906.42-1.439.169.278-.544.576-.734 1.185-.593l-.339-.339 1.609-.847m-11.345.085l-.423.508.254-.508h.169m6.773.169v.085l-1.355.339.254-.593 1.101.169m-6.519 0l.254.423h-.677l.254-.423h.169m6.943 0c-.079 1.202.682 1.374 1.693 1.101l-.169.254c-.161 1.888-3.128.887-3.895 0 1.173.358 1.802.679 3.048.423v-.085c-1.062-.167-2.036-.063-2.963-.677l1.609-.677.593 1.016c-.256-.446-.445-1.059.085-1.355m-5.165.085l.254.339-.254-.339m.762.085l.085.085-.085-.085m-4.826.508v.085c-.644.176-1.526.439-1.693-.423l1.693.339m2.963-.339v.085l-.339.085.339-.169m-7.281.339l.339.085.169-.254-.508.169m7.705-.254l-1.355.593v.085c.619.018 1.185.017 1.355-.677m1.101 0l2.286.593v.085l-2.371-.593.085-.085m4.064.085l.254.847-.254-.847m-8.213.169l-.169.169v-.169h.169m-3.641.085v.169l-.169-.169h.169m6.519 0l-.423.254v-.085l.423-.169m.423 0l-.169.508.254-.169-.677.508v.085c.612-.088.904-.327.593-.931m12.446 1.524c-.831.187-1.234.296-1.947-.254.418-1.576 1.42-1.019 1.947.254M13.8 28.113c-.473.432-.912.483-1.524.339v-.085c.573.086 1.001-.014 1.524-.254m10.668.085v.085l.254-.085-.085.254.339-.169-.508-.085M8.297 29.383v-.085l-.254-.254c-1.351.045-1.704-.636-.169-.762-2.178-.301-.937.793.423 1.101m4.572-1.101v.085h-.339l.339-.085m4.149 0l-.085.085.085-.085m1.863.085v.085l-.339-.169.339.085M3.302 30.061l-1.185-.423c.4-1.525 2.621-1.48 1.185.423m14.393-1.693l-.085.085.085-.085m-5.419.169v.085l-.508-.085h.508m4.826-.085l-.254.339.254-.339m-10.442.113l.056.028-.056-.028m7.818-.028v.085l-.254.254.847-.169-1.355.254.762-.423m5.927 0l-.085.085.085-.085m-3.133.085l-.085.423.085-.423m7.451.339l.508-.254-.508.254m-16.425-.254c.581.033.89.16 1.185.677l-1.27-.593.085-.085m9.652 0l-.085.508.339.085-.254-.593m-16.341.169c.669 1.298-.211 2.365.339 3.641-1.53-.787-1.075-2.354-.508-3.641h.169m16.51 0l-.169.339.169-.339m.593 0l.847.762-.931-.085.085-.677m3.979.085v.085h-1.355l1.355-.085m-6.773.085v.169l.508-.085.339.085.423.085-1.27-.254m2.54 0l-.085.254.085-.254m.423 0l.169.423h.085l.085-.254h-.085v.169h-.085l-.169-.339m-14.563.339c1.066 1.691 3.498 1.454 5.26 1.442 4.68-.032 9.367.089 14.044-.084 1.111-.041 3.442-1.283 4.233-.85l-1.355 1.27-1.185.169c-.972-.24-2.906.001-3.81.423h-.085c-1.353-.924-3.782-.034-5.503-.677v.085c1.242.475 2.026 1.343 1.693 2.709h.085c1.764-5.123 6.061.168 2.371.423v.085l3.471-.254.423-1.016h-.085c-.489.915-1.239 1.084-2.201.847 2.286-5.061 5.828-.169 1.863.169-.197 1.224-3.59 1.281-3.471.169v-.085c-1.311.689-2.8 1.399-4.064.169l1.693-.254-.085-.254c-.671.42-1.194.511-1.947.254l.169-1.101h-.085c-.072 1.134-.88 1.469-1.863 1.016.579.382 1.046.381 1.693.169l-.254.339.423-.254.423.593-1.016-.085v-.085l.169-.169c-1.062.43-2.784.928-3.302-.508l1.863.254v-.085c-1.18.106-2.138-.271-2.371-1.524h-.085l.423 1.27-.508.169v.085l.423-.085c-.949 1.353-3.455 1.375-4.233-.169-2.485.166-1.82-2.118-.169-2.879l-2.371.169-1.524-1.27.847-.593m12.869 0v.085h.931l-.931-.085m-1.355.169l-.169.677c.463.007.632-.491.169-.677m13.377.085v.762l-.677-.339.677-.423m-26.162.423l-.847.339v-.677l.847.339m6.096-.254v.085h1.101l-1.101-.085m2.032-.085v.085l.677.085-.677-.169m-5.419 3.81c-1.365.157-2.342-.466-2.54-1.863h-.085l.339 1.355c-2.368-.508-1.525-3.516.336-2.739 1.216.508 1.472 2.174 1.95 3.247m21.759-.339l.339-.762h-.085c-.643.99-1.474 1.359-2.625 1.439v.085l2.625-.677c-.547 1.498-2.599 1.763-3.81.931 2.246-.581 1.77-3.343 3.811-3.977 2.157-.67 1.476 2.416-.255 2.961M7.366 31.161v.085c1.536.609 1.766 1.528 2.625 2.794-1.304.13-2.455-.076-2.794-1.524h-.085c.229 2.136 2.648 1.683 4.233 1.778v-.085c-3.282-.419.929-5.463 2.455-.169h.085c-.29-1.459.662-2.542 2.032-2.963-2.825-.08-5.645.778-8.551.085m-1.863 1.439c-.462-1.473.648-1.47 0 0m20.405-.508c-.527-.847.356-.957 0 0m-16.341.423c-.715-.921.368-1.073 0 0m13.123-.593l-.762.593c-.152-.652.157-1.067.762-.593m7.62-.423c.331 1.54-1.085 2.109-2.371 1.778v-.085c.89-.455 1.692-.95 2.371-1.693m-11.684.254v.169l-.677.762c-.34-.671-.049-1.006.677-.931m-4.487.085l-.423.762h-.085l-.508-.762h1.016M.846 31.754c.686.747 1.484 1.007 2.371 1.439-1.147.39-2.548.018-2.371-1.439m27.093.169l-.085.508h.085v-.508m-7.705.931c-.512 1.135-1.372 1.379-2.54 1.27v.085c.977.11 2.63.014 2.54-1.355m-16.595.339l3.387.931v.085c-1.132.355-3.165.63-3.387-1.016m16.002.931l.085.085z"/><g stroke="#570011"><g stroke-width=".16"><path d="M4.453 25.555c.053-.052.522-.069.57-.021.026.026-.097.048-.275.048s-.311-.012-.295-.027z" fill-opacity=".787"/><path d="M24.281 13.506c-.695-.773-1.307-1.058-1.959-.91-.229.052-.284.046-.284-.029 0-.051-.05-.093-.112-.093a5.55 5.55 0 0 1-.54-.075l-.429-.075.185-.193.185-.193-.196-.008c-.113-.004-.147-.021-.079-.038s.117-.058.117-.093.06-.062.134-.062.134-.045.134-.1c0-.078-.089-.1-.399-.1-.33 0-.411-.023-.471-.134-.049-.091-.049-.134-.002-.134.038 0 .069.031.069.068 0 .108.508-.18.661-.374.169-.215.206-.4.264-1.335l.045-.733.351.015c.193.008.351-.004.351-.027s-.12-.153-.268-.289c-.345-.319-.363-.577-.058-.834.115-.097.297-.194.403-.215.262-.052.297-.137.13-.315-.179-.19-.178-.391.002-.712a.56.56 0 0 1 .427-.326c.225-.057.293-.108.329-.256l.118-.452c.069-.253.076-.258.123-.1.027.092.053.476.056.853l.007.685-.229.254c-.289.32-.356.556-.201.712.073.073.171.101.267.077.088-.022.163-.005.178.04.062.186.199-.068.425-.785.157-.499.274-.766.335-.766l.144-.004c.081-.007.212-.283.215-.451.001-.085.032-.136.069-.113.09.056.086 1.344-.006 1.773-.063.295-.085.326-.156.229s-.108-.039-.269.414c-.2.565-.482 1.162-.548 1.162-.022 0-.023-.09-.001-.201s.014-.201-.017-.201c-.198 0-.337 2.741-.155 3.06s.642.072.888-.485c.065-.147.166-.548.225-.89s.169-.745.245-.894c.18-.353.665-.806.77-.719.053.044.101.005.157-.128.099-.239.641-.778.582-.579a13.27 13.27 0 0 0-.35 1.59l-.045.386-.159-.104c-.151-.099-.162-.096-.225.07-.09.236-.083.522.014.62.243.243.722-.03 1.121-.636l.369-.521c.039-.037.108-.142.154-.234.07-.14.078-.043.049.605-.034.761-.17 1.42-.312 1.508-.04.025-.142-.042-.226-.148s-.176-.171-.203-.144.061.17.195.318.243.301.243.34a.94.94 0 0 1-.331.53c-.182.097-.222.089-.496-.096-.134-.091-.243-.15-.243-.132s.075.181.166.361l.166.327-.204.172c-.398.335-.749.274-.929-.161-.048-.115-.109-.185-.135-.156s-.101.272-.165.539-.139.499-.166.516-.253-.195-.501-.472zm-4.783-4.527c-.001-.064-.036-.117-.078-.117-.053 0-.063-.112-.033-.368.04-.338.032-.368-.091-.368-.077 0-.134-.044-.134-.105 0-.076-.039-.093-.139-.061-.135.043-.136.038-.032-.163s.102-.207-.036-.207h-.143l.141-.117c.115-.096.133-.163.099-.367-.037-.223-.088-.276-.472-.49-.841-.47-1.107-.827-.967-1.295.042-.141.119-.292.172-.335.069-.057.085-.173.059-.428-.034-.325-.009-.403.347-1.114.369-.735.387-.758.468-.6.152.293.327 1.21.241 1.264-.117.072-.196.422-.134.59.043.117.108.15.295.15.281 0 .341-.107.54-.962.111-.478.146-.542.373-.693a.84.84 0 0 0 .323-.385.93.93 0 0 1 .204-.338c.129-.117.131-.114.099.176-.135 1.243-.18 2.083-.116 2.147.181.181.72-.227.571-.431-.041-.056.042-.28.249-.676l.31-.593.043.459c.078.824.046 1.713-.084 2.342-.212 1.025-.39 1.228-.637.725-.118-.241-.134-.252-.157-.11-.014.087.05.302.141.479l.167.321-.144.135c-.384.36-.768.306-.998-.14-.071-.138-.156-.251-.19-.251-.083 0-.079.037.073.586.196.706.179.905-.099 1.204-.172.185-.233.22-.234.133z" class="B"/><path d="M20.117 10.235c-.064-.073-.064-.099 0-.121.058-.02.045-.07-.043-.169-.121-.137-.121-.145.019-.341.079-.111.215-.258.302-.326.191-.15.505-.6.505-.724s.76-1.19.79-1.102c.036.108-.25 1.383-.405 1.811-.162.446-.395.77-.676.942-.246.15-.379.158-.492.03z" class="B"/><path d="M19.842 9.334c-.062-.179-.037-.237.296-.681.209-.279.449-.522.563-.57.189-.079.2-.075.2.073 0 .208-.601 1.101-.866 1.287-.111.078-.132.066-.193-.108zm.858 1.569c-.042-.128-.06-.261-.039-.295.058-.094.646-.425.685-.386.122.122-.325.914-.515.914-.03 0-.089-.105-.132-.233zm5.774 8.834c-.164-.141-.178-.183-.119-.351.08-.228.256-.252.286-.04.017.121.054.144.184.117l.313-.064c.156-.032.971-.809.912-.869-.018-.018-.292.146-.608.366-.604.42-.667.451-.65.316.052-.398-.124-.485-.799-.394-.379.051-.659.143-1.066.349-.304.154-.569.263-.589.242s.118-.419.307-.885l.317-.875c-.015-.015-.241.209-.503.499-.377.418-.514.527-.662.527a5.13 5.13 0 0 0-.548.053l-.361.053.041-.328.085-.806.044-.478.276.125c.432.196.969.169 1.698-.086.417-.146.618-.25.618-.319 0-.056-.103-.441-.228-.855l-.227-.752h.184c.429 0 .793.448.802.987.003.151.036.217.109.217s.093-.041.071-.117a14.46 14.46 0 0 1-.145-.691l-.111-.574.183-.363c.268-.532.522-.824 1.093-1.259a9.79 9.79 0 0 0 .794-.673c.181-.182.284-.247.284-.18 0 .223-.339 1.163-.526 1.458-.168.265-.222.305-.37.276-.156-.03-.174-.013-.174.17 0 .27.057.405.205.484s.485-.053.438-.174c-.053-.138.312-.421.725-.563.216-.074.405-.123.42-.109.046.046-.183.534-.316.676-.085.091-.108.167-.069.231.065.106-.118.522-.294.668-.093.077-.101.061-.071-.138l.034-.226-.098.201c-.054.11-.099.262-.101.337s-.201.376-.443.669c-.615.745-.606.736-.717.644s-.263.047-.378.349c-.195.513.298.629.6.141.101-.164.299-.3.759-.524l.812-.35c.162-.041.183-.031.146.068a.69.69 0 0 0-.044.185c0 .038-.113.173-.251.3-.222.204-.238.238-.136.296.108.061.107.085-.017.4-.34.862-.725 1.35-1.287 1.63-.425.212-.592.214-.829.01z" class="B"/><path d="M25.198 14.968c-.083-.016-.15-.046-.15-.068s.125-.253.278-.515c.2-.344.404-.578.732-.843.406-.327.738-.511.642-.355-.019.032-.191.456-.38.943l-.345.885-.313-.009a3.88 3.88 0 0 1-.463-.038zM13.793 7.403c-.124-.443-.228-1.216-.164-1.216.021 0 .137.216.259.48l.221.48.078-.269c.043-.148.202-.495.353-.77.156-.285.275-.59.275-.709 0-.23-.215-.482-.411-.482-.102 0-.121-.076-.138-.552l-.019-.552-.158.576c-.171.624-.148.783.135.934.13.07.138.062.098-.099-.056-.224.045-.223.221.002s.174.263-.026.462-.375.206-.736.032c-.489-.237-.622-.718-.402-1.458.077-.259.127-.334.204-.305s.093.004.061-.123c-.044-.174.184-.629.686-1.368.358-.527 1.296-1.712 1.329-1.679.014.014-.033.415-.106.89s-.125 1.059-.117 1.298c.013.384.031.437.154.455.077.011.211-.038.299-.109.134-.109.146-.146.073-.233-.059-.072-.072-.199-.04-.411a.67.67 0 0 1 .289-.507c.134-.11.339-.236.457-.278.177-.064.218-.119.24-.316.015-.144.03-.07.037.184.01.39.029.44.245.643.225.212.234.239.234.701 0 .313-.038.555-.109.694-.185.363-.48.694-.696.784-.177.073-.222.07-.316-.024-.157-.157-.02-.288.186-.177.238.127.342-.044.422-.695.102-.82-.048-.9-.22-.119-.099.45-.166.546-.378.546-.112 0-.159.038-.159.128 0 .071-.061.27-.135.443-.152.354-.333 1.304-.333 1.743 0 .23-.021.282-.1.252-.069-.026-.1.004-.1.095 0 .074-.045.151-.1.172-.069.026-.1-.004-.1-.098 0-.119-.028-.131-.217-.091-.263.056-.365.132-.424.316-.072.228-.17.289-.417.26-.195-.023-.227-.009-.192.082.023.06.015.109-.018.109s-.07.068-.082.15c-.014.098-.063.003-.14-.272zm2.866-1.254c-.023-.09-.073-.163-.111-.163s-.056-.053-.038-.117a4.9 4.9 0 0 0 .076-.439c.04-.292.073-.341.353-.518.17-.108.343-.196.385-.196.056 0 .055.175-.005.672l-.105.688a6.25 6.25 0 0 1-.269.127c-.243.11-.245.11-.286-.052z" class="B"/><path d="M16.183 7.046c-.104-.377-.163-.49-.251-.482-.063.005-.114.005-.113 0a133.62 133.62 0 0 1 .227-.745l.225-.736.044.301c.024.166.035.718.024 1.227l-.02.926zM4.19 26.796l-.157-.044.14-.127c.144-.131.192-.374.073-.374-.037 0-.067.038-.067.084s-.053.004-.117-.093l-.344-.494c-.175-.245-.229-.39-.237-.639-.007-.213-.054-.371-.141-.469-.18-.203-.084-.156.629.306.538.348.603.41.506.482-.267.195.067.36.495.245.128-.034.148-.072.114-.216a1.27 1.27 0 0 0-.178-.364c-.075-.104-.126-.198-.114-.209s.225.01.472.046c.441.065.451.07.492.293.05.267.091.278.276.076.262-.285.253-.807-.01-.589-.071.059-.164-.008-.432-.309-.188-.211-.342-.406-.342-.435 0-.051.164.013 1.026.405.527.239.561.247.439.1-.215-.259-1.598-1.095-1.814-1.096a.91.91 0 0 1-.281-.102c-.143-.075-.208-.081-.243-.025-.049.08-1.437-.478-2.198-.883l-.374-.199.532.037c.452.031.559.062.712.209.398.381.719-.003.36-.431-.097-.115-.58-.5-1.074-.856l-.873-.672c.014-.014.187.04.385.12a5.35 5.35 0 0 0 .618.205c.445.104 2.005.728 2.266.906.151.103.303.156.385.135.198-.052.237.074.075.246-.239.254-.185.33.206.292.259-.025.379-.073.476-.192.071-.088.156-.163.188-.167l.126-.017c.299-.037-.293-.633-1.05-1.058-.596-.334-.83-.585-.957-1.025-.035-.123-.056-.233-.046-.243s.168.028.35.084a2.63 2.63 0 0 0 1.767-.153c.466-.231.403-.294.538.547.087.544.248.929.495 1.186l.175.182-.135.401c-.169.502-.175 1.11-.022 2.191l.079.853c-.02.02-.193-.028-.383-.107s-.367-.123-.393-.097c-.04.04.05.129.192.189.023.01.059.213.079.453l.082.713.046.278-.392.079-1.04.24c-.636.159-1.071.191-1.382.104zm19.252-1.411c-.233-.044-.232-.044.112-.096.19-.029.401-.097.468-.151.11-.089.09-.095-.212-.058l-.468.077c-.078.021.079-.18.373-.477l.507-.513.446.22c.245.121.446.247.446.279 0 .095-.405.447-.664.577-.288.144-.691.201-1.008.142zm1.465.609c.081-.113.183-.23.227-.258s-.013-.065-.162-.086l-.243-.033.387-.426.387-.426.1.19c.089.169.13.188.38.17.285-.021.537.117.537.294 0 .085-.317.325-.435.329-.037.001-.181.074-.321.161s-.275.136-.301.108-.017-.062.02-.076c.152-.058.261-.152.221-.192-.05-.05-.3.071-.489.237a.96.96 0 0 1-.294.167l-.161.049zm2.185-3.949c-.043-.07.114-.141.31-.141.114 0 .123.017.053.1-.092.111-.305.134-.364.04z" class="B"/><path d="M5.235 24.722c-.248-.06-.502-.162-.566-.227-.11-.111-.1-.117.206-.117.365 0 .705.137.828.334.046.074.061.13.033.126a16.7 16.7 0 0 1-.501-.117zm-.819.262c-.135-.261-.137-.548-.003-.496.09.035.234.408.235.61.001.151-.128.088-.232-.114zm-1.687-5.092c-.35-.173-1.091-.946-1.507-1.572-.355-.535-.471-.776-.315-.656l1.083.791c.547.397.968.748.945.786s-.001.096.049.128c.206.131-.138.056-.486-.105-.213-.099-.367-.138-.381-.096-.035.103-.003.121.499.264.793.227 1.077.153.643-.167-.215-.158-.226-.179-.082-.148l.418.081c.138.025.251.061.251.079 0 .127-.332.583-.481.66-.239.124-.304.119-.636-.045zm1.69-3.141c-.108-.032-.333-.192-.502-.355-.331-.321-.655-.511-.869-.511-.178 0-1.304-1.08-1.67-1.601-.156-.223-.266-.405-.243-.405.069 0 .802.513.897.628.049.059.12.087.159.063.045-.028.054 0 .025.076s-.004.152.072.209c.278.211.486.039.486-.403 0-.263-.036-.288-.201-.138-.102.092-.14.045-.451-.552s-.589-1.34-.527-1.403c.014-.014.122.097.239.245.166.21.26.271.417.271.129 0 .328.091.545.251l.343.251-.217.021c-.269.026-.273.084-.017.235.11.065.456.414.77.776l.734.766c.22.144.475.136.633-.022.109-.109.141-.115.207-.036.119.143.148.581.05.766-.214.406-.673.371-.968-.074-.094-.143-.2-.259-.234-.259-.093 0 .007.272.192.518.189.252.422.387.789.455l.261.049-.153.124c-.162.131-.445.151-.769.054z" class="B"/><path d="M4.053 14.1c-.261-.435-.449-.799-.419-.809s.173.02.317.067l.262.086.181.699.157.724c-.013.013-.238-.331-.499-.766zm3.525-2.06c.325-.413.269-.827-.271-1.989-.294-.633-.349-.811-.342-1.11.007-.292.042-.391.196-.552.215-.225.296-.246.296-.078 0 .065.135.553.301 1.085.361 1.161.461 1.67.402 2.059-.048.322-.301.644-.564.72l-.162.047zm-1.208-.474c-.24-.13-.842-1.29-.711-1.37.091-.056.857-.159.891-.12.049.058.105 1.595.058 1.593-.029-.001-.136-.048-.237-.103zm-.954-2.787c-.186-.508-.304-.922-.34-1.191-.047-.351.022-1.201.097-1.201.061 0 .278.617.278.791 0 .107.039.135.177.125.163-.012.204.044.512.707l.307.743c-.015.013-.247.043-.514.067-.363.032-.495.022-.518-.041zm1.549 2.156c-.019-.092-.051-.423-.07-.736l-.035-.568.161.334c.182.379.214.815.074 1.007-.092.126-.096.124-.13-.037z" class="B"/></g><path d="M7.134 11.786c-.095-.048-.203-.245-.251-.459l-.014-.06.347-.193.347-.193.034.114a.41.41 0 0 1 .019.224c-.056.395-.286.666-.481.566z" stroke-width=".04" class="B"/><path d="M8.676 12.696c-.452-.087-.492-.115-.426-.295.164-.448.05-2.067-.208-2.942-.268-.909-.806-1.977-1.042-2.067-.104-.04-.143-.198-.143-.578 0-.288-.037-.523-.083-.523-.186 0-.272 1.164-.105 1.419.082.126.103.126.184.001.07-.11.116-.116.204-.028.138.138-.011.359-.292.432-.501.131-.834-.621-.67-1.509.122-.659.348-1.058.716-1.261.176-.097.305-.261.342-.433.047-.218.062-.175.071.203.01.414.049.507.291.686.345.255.535.262.663.024.135-.253.125-.29-.085-.29-.227 0-.177-.208.294-1.23l.328-.709.159 1.011.157 1.419-.002.408-.181-.235c-.236-.307-.299-.228-.19.238.08.341.065.396-.158.593-.275.243-.248.373.045.216.279-.149.684-.125.881.053.165.149.158.171-.158.52-.564.624-.4 1.405.295 1.405.609 0 1.01-.591 1.191-1.755.085-.544.085-.844.003-1.235-.06-.284-.084-.579-.055-.655.038-.1-.016-.138-.193-.138-.214 0-.247-.04-.247-.3 0-.396-.132-.255-.146.155-.008.245.035.335.186.386.189.063.188.068-.029.11-.445.086-.533-.544-.14-1.011.24-.285.242-.3.071-.426s-.173-.139.011-.483c.104-.194.262-.372.352-.395a.35.35 0 0 0 .217-.198c.03-.085.18-.303.334-.483l.28-.327v.401c0 .221-.087.661-.194.979-.216.641-.192.836.103.836.398 0 .564-.172.564-.584 0-.571.193-1.125.429-1.232.112-.051.293-.27.402-.486l.198-.393.005.331c.012.717-.502 3.311-.657 3.311-.04 0-.096.117-.124.26s-.16.562-.292.932c-.296.828-.419 1.727-.25 1.832.092.057.084.138-.036.369-.194.374-.292.374-.423-.003-.057-.165-.127-.276-.156-.248-.082.082.058.528.203.649.073.061.133.155.133.21s-.099.006-.22-.108l-.22-.207-.177.196c-.147.162-.157.228-.062.38.063.101.077.184.03.184s-.107.085-.134.189c-.05.192-.256.268-.256.095 0-.052-.041-.095-.09-.095s-.078.354-.06.851c.017.477-.008.851-.057.851s-.172-.192-.275-.426-.229-.426-.278-.426-.09.316-.09.702c0 .692-.057 1.013-.176.988l-.559-.108z" stroke-width=".227" class="B"/><g stroke-width=".04" class="B"><path d="M10.043 8.197l-.142-.882-.021-.242-.031.222-.037.216a7.64 7.64 0 0 1-.048-.346c-.041-.329-.056-.716-.032-.834l.01-.052h.115c.137 0 .129-.032.08.334l-.041.359c-.005.09-.004.086.017-.04a.87.87 0 0 1 .139-.383.76.76 0 0 1 .291-.244l.06-.025.012.213c.031.528-.035 1.15-.162 1.542a1.85 1.85 0 0 1-.163.368c-.006 0-.028-.092-.049-.205zm1.908.528l-.098-.25c-.009-.003-.034.037-.056.087l-.04.092-.058-.058c-.077-.077-.084-.143-.039-.379a2.75 2.75 0 0 1 .424-1.044c.108-.158.48-.549.491-.516.004.011-.046.184-.111.384l-.22.8a.77.77 0 0 1-.044.165c-.013.026-.016.043-.006.037s.018.044.018.17c0 .167.011.285.042.444.011.055.008.063-.021.063-.023 0-.072-.052-.155-.163-.146-.196-.132-.178-.141-.17s.099.391.15.552c.008.024.002.032-.023.032s-.046-.039-.115-.246z"/><path d="M12.582 8.256c-.124-.458-.126-.464-.171-.469-.025-.003-.046-.009-.046-.014 0-.017 1.059-1.845 1.065-1.839s-.047.306-.111.672l-.118.665-.086.131-.086.131.042.209.042.209-.035-.001c-.025 0-.072-.05-.161-.171l-.125-.17-.004.555-.004.555h-.037c-.035 0-.046-.032-.163-.464zm-3.131.384c-.052-.059-.131-.276-.108-.298.005-.005.055.021.11.059l.101.068-.024.058c-.013.032-.024.073-.024.091 0 .046-.024.056-.054.022z"/></g></g><path d="M9.604 8.751c-.048-.017-.092-.09-.064-.107.009-.006.029-.036.045-.067l.029-.057.109.075c.06.042.111.082.113.089.005.016-.084.06-.147.073-.023.005-.061.002-.085-.007z" class="B"/><g stroke="#570011" class="B"><path d="M3.149 9.86c-.012-.012-.021-.076-.019-.142l.003-.12.031.13c.031.131.026.173-.015.132zm1.07-1.371c-.196-.099-.226-.126-.212-.189a14.05 14.05 0 0 0 .076-.483l.073-.395a21.04 21.04 0 0 1 .298 1.177c-.004.003-.109-.046-.235-.11zm.621.401a.51.51 0 0 1-.141-.224c0-.008.064-.025.142-.037l.251-.04c.141-.024.142.033.006.199-.097.118-.159.142-.257.102z" stroke-width=".08"/><path d="M12.296 30.798l-.97-.043c-.604-.032-1.376-.032-2.376-.001-1.733.055-2.78-.079-3.527-.45-.253-.126-.442-.259-.616-.435-.636-.643-.565-1.534.186-2.333.539-.573 1.349-.934 1.996-.89.238.016.281.029.281.084 0 .033.114.065.663.187.601.133.78.188.78.241a8.78 8.78 0 0 1-.426.481l-.426.511c0 .045.014.048.201.048.111 0 .201.007.201.016s-.023.05-.051.091c-.062.09-.174.17-.282.201s-.466.026-.683-.01l-.177-.029.154-.05c.158-.052.316-.085.544-.115l.13-.017-.095-.023c-.15-.037-.859-.034-.964.003-.205.072-.205.225 0 .45.113.124.179.17.419.291a4.38 4.38 0 0 0 .858.34c.134.034.172.054.177.091s.041.056.161.085l.154.038-.008.119c-.014.211.089.362.223.329.057-.014.245-.169.245-.201 0-.009-.064-.047-.142-.084s-.134-.075-.124-.084c.031-.029.316-.07.586-.085.29-.016.658.013 1.241.099.566.083.544.078.544.127 0 .036.031.047.195.066.338.04-1.122.036-1.614-.005-.573-.048-.615-.047-.615.012 0 .046.016.047.544.047.514 0 .544.002.544.044s.027.045.231.058a7.39 7.39 0 0 0 1.162-.067 3.99 3.99 0 0 1 .455-.035c.175 0 .206-.006.194-.035-.019-.048.031-.045.058.004.02.036.06.03.445-.059.538-.125.71-.147 1.195-.148.708-.001 1.167.121 1.587.423.07.05.109.094.101.114s.01.032.07.032c.198 0 .366-.142.382-.324.012-.14-.044-.241-.178-.318-.077-.044-.102-.078-.143-.196-.062-.176-.062-.213-.002-.273.07-.07.118-.061.118.024s.014.085.284.036a.71.71 0 0 1 .349.003c.095.019.185.031.201.025.035-.012-.215-.07-.548-.127-.193-.033-.248-.051-.257-.084s-.043-.043-.209-.049l-.198-.007.156-.196c.086-.108.151-.202.143-.209s-.153.005-.325.027-.32.031-.329.02-.047-.169-.082-.351l-.076-.379c-.011-.047-.003-.048.291-.039.376.011.882-.072.882-.146 0-.017.09-.089.199-.16l.199-.13.016.139c.009.076.012.143.008.147s-.306.138-.671.296l-.695.32c-.019.018-.026.049-.017.072.014.037.047.04.34.027.37-.016.574-.067.731-.182.113-.083.232-.252.272-.383.015-.049.035-.09.044-.09s.025.09.034.2c.016.195.018.2.083.214l.067.015-.065.194-.065.194-.211.162c-.22.168-.235.186-.215.238.01.025.038.027.136.009.342-.062.571-.223.6-.422.009-.058.005-.151-.007-.206s-.018-.1-.013-.1.052.027.104.059c.208.131.294.351.237.603-.049.213-.055.26-.033.26.011 0 .095-.133.186-.296l.179-.295c.032 0 .805.16.814.169s.021.078.034.16c.043.268-.02.429-.249.639-.082.075-.119.124-.099.13a12.91 12.91 0 0 0 .383.087l.351.077.358-.029.484-.043.126-.014-.552-.552-.528-.553c.013 0 .236-.036.496-.08.294-.05.476-.071.482-.056.022.061.221.278.347.381.408.331.986.563 1.868.749.322.068.404.076.922.088.974.023 1.622-.082 2.124-.343.418-.217.632-.579.563-.951l-.039-.169c-.033-.084.467-.33.764-.376.403-.063.77.138.903.494.163.434.013.936-.403 1.352-.197.197-.206.203-.399.256l-.934.291-1.526.433c-.235.04-1.21.075-3.005.108-1.432.026-7.881.025-8.619-.002zm5.803-1.332a12.58 12.58 0 0 0-.858-.085c-.046 0-.062.012-.062.047 0 .046.016.047.465.047l.455-.01zm.089-.232l-.229-.522c-.016-.019-.06.187-.086.411l-.013.108.151.038c.22.055.216.056.178-.034z" stroke-width=".057"/><g stroke-width=".114"><path d="M22.131 21.128l-.815-1.195c-.011-.027.461-.33 1.351-.868.057-.034.064.08.05.759-.015.711-.007.813.07.931.129.197.373.28.836.285.351.004.437-.013.677-.131.485-.238.922-.632 1.475-1.331.073-.092.074-.092.046.024-.016.065-.101.268-.19.452-.22.457-.554.76-1.403 1.272-.382.23-.83.541-.996.691l-.301.272z"/><path d="M23.305 20.922c-.188-.054-.359-.273-.463-.595-.067-.206-.07-.275-.022-.426.151-.474.626-1.102.833-1.102.062 0 .112.021.112.047 0 .097.092.039.42-.265.185-.172.337-.297.337-.279a4.75 4.75 0 0 1-.367 1.04c-.145.093-.39.318-.39.357 0 .022.084.011.186-.025l.186-.066-.026.162c-.017.102-.007.162.026.162.06 0 .37-.258.496-.414.276-.34 1.324-.69 1.735-.579.185.05.221.142.056.142-.044 0-.213.063-.375.139-.225.107-.432.275-.875.712-.652.644-.937.853-1.31.964-.286.085-.338.087-.557.024z"/></g></g></g></svg>