<?xml version="1.0" encoding="UTF-8" standalone="no"?>
<!-- Created with Inkscape (http://www.inkscape.org/) -->

<svg
   width="36.25209mm"
   height="39.468533mm"
   viewBox="0 0 36.25209 39.468533"
   version="1.1"
   id="svg5"
   xml:space="preserve"
   inkscape:version="1.2.2 (b0a8486541, 2022-12-01)"
   sodipodi:docname="gr_small.svg"
   xmlns:inkscape="http://www.inkscape.org/namespaces/inkscape"
   xmlns:sodipodi="http://sodipodi.sourceforge.net/DTD/sodipodi-0.dtd"
   xmlns="http://www.w3.org/2000/svg"
   xmlns:svg="http://www.w3.org/2000/svg"><sodipodi:namedview
     id="namedview7"
     pagecolor="#505050"
     bordercolor="#ffffff"
     borderopacity="1"
     inkscape:showpageshadow="0"
     inkscape:pageopacity="0"
     inkscape:pagecheckerboard="1"
     inkscape:deskcolor="#505050"
     inkscape:document-units="mm"
     showgrid="false"
     inkscape:zoom="1.3986392"
     inkscape:cx="-103.6722"
     inkscape:cy="-36.821506"
     inkscape:window-width="1920"
     inkscape:window-height="1011"
     inkscape:window-x="0"
     inkscape:window-y="0"
     inkscape:window-maximized="1"
     inkscape:current-layer="layer1" /><defs
     id="defs2" /><g
     inkscape:label="Layer 1"
     inkscape:groupmode="layer"
     id="layer1"
     transform="translate(-0.44832662,-0.26721785)"><path
       style="fill:#570011;fill-opacity:0.72335595;stroke:#46000e;stroke-width:0.285;stroke-dasharray:none;stroke-opacity:1"
       d="m 17.624159,39.406387 c -0.09313,-0.0524 -0.315025,-0.20908 -0.493093,-0.34817 -0.320118,-0.25003 -0.32912,-0.25168 -0.800369,-0.14622 -0.262135,0.0587 -1.202294,0.13696 -2.08924,0.174 -1.355774,0.0566 -1.627791,0.048 -1.707809,-0.0539 -0.07338,-0.0935 -0.519286,-0.14092 -1.947333,-0.20731 -1.4529624,-0.0676 -1.8724424,-0.11287 -1.9462844,-0.21023 -0.06897,-0.0909 -0.419664,-0.14712 -1.312333,-0.21018 -0.670013,-0.0473 -1.484905,-0.12222 -1.810872,-0.16639 -0.325966,-0.0442 -0.793887,-0.0816 -1.039824,-0.0831 -0.479952,-0.003 -0.637253,-0.14466 -0.465651,-0.41944 0.07344,-0.11759 0.02432,-0.16612 -0.304138,-0.3005 -1.012078,-0.41406 -3.01638597,-1.94753 -3.01638597,-2.30779 0,-0.20683 0.69065097,-0.24702 1.20911597,-0.0704 0.21306,0.0726 0.416642,0.13199 0.452406,0.13199 0.03576,0 -0.0045,-0.20214 -0.08953,-0.44921 -0.085,-0.24706 -0.181509,-0.61854 -0.214458,-0.8255 -0.03295,-0.20696 -0.115913,-0.65553 -0.184365,-0.99682 -0.138314,-0.68962 -0.08324,-0.86114 0.276528,-0.86114 0.110715,0 0.201299,-0.0159 0.201299,-0.0353 0,-0.0702 -0.339033,-0.7725 -0.441997,-0.9156 -0.08661,-0.12037 -0.07983,-0.17221 0.03797,-0.29001 0.132246,-0.13225 0.178378,-0.13327 0.591231,-0.0131 0.246286,0.0717 0.507862,0.1561 0.581278,0.1876 0.10152,0.0436 0.161314,-0.027 0.249698,-0.29485 0.06392,-0.19367 0.260629,-0.55829 0.437137,-0.81026 0.176508,-0.25197 0.380019,-0.57241 0.452247,-0.71209 0.126975,-0.24554 0.145934,-0.25218 0.572379,-0.20043 0.24258,0.0294 0.59165,0.1292 0.775712,0.22171 l 0.334658,0.16819 0.215675,-0.25662 c 0.213224,-0.25371 0.943103,-0.68988 1.154432,-0.68988 0.06643,0 0.129841,-0.1575 0.161902,-0.40217 0.02899,-0.22119 0.100667,-0.55914 0.159294,-0.751 0.06798,-0.22246 0.07975,-0.42139 0.0325,-0.54912 -0.04075,-0.11016 -0.05486,-0.27384 -0.03135,-0.36373 0.02351,-0.0899 -0.03186,-0.26821 -0.123035,-0.39625 -0.238718,-0.33525 -0.295423,-0.71403 -0.141956,-0.94825 0.109699,-0.16742 0.111176,-0.218 0.01038,-0.35584 -0.25724,-0.35179 -0.154876,-0.55916 0.669371,-1.35597 1.326149,-1.28202 1.385757,-1.37771 1.587388,-2.54833 0.09546,-0.55422 0.207655,-1.14102 0.249319,-1.30401 0.04166,-0.16298 0.116784,-0.59924 0.1669334,-0.96946 0.07778,-0.57423 0.0726,-0.68352 -0.03529,-0.74389 -0.1916434,-0.10725 -0.07688,-0.81197 0.176737,-1.08528 0.122148,-0.13163 0.200716,-0.31979 0.200716,-0.48069 0,-0.18117 0.06662,-0.31679 0.211667,-0.43088 0.116417,-0.0916 0.211809,-0.23722 0.211983,-0.32365 2.54e-4,-0.14097 0.130534,-0.38049 0.440587,-0.81023 0.08779,-0.12168 0.0691,-0.18316 -0.11576,-0.381 -0.595116,-0.6369 -1.3225504,-2.396077 -1.5647874,-3.784197 -0.228811,-1.3111896 -0.0335,-3.1164596 0.4808594,-4.4445496 0.585238,-1.51111 1.877107,-3.13697 3.214118,-4.04507 2.11424,-1.43600996 5.208617,-1.83602996 7.644302,-0.98822996 2.705221,0.94162996 4.38747,2.52786996 5.329263,5.02512996 0.379882,1.0073 0.467882,1.40991 0.570313,2.60925 0.133958,1.5684996 -0.08967,2.8061896 -0.760638,4.2098666 -0.2235,0.46756 -0.576128,1.07466 -0.78362,1.34911 l -0.377256,0.49901 0.538881,0.18135 c 0.296384,0.0997 0.627033,0.26416 0.734774,0.36538 0.107741,0.10122 0.280894,0.18403 0.384785,0.18403 0.10389,0 0.284141,0.0952 0.400558,0.21167 0.116417,0.11642 0.279493,0.21167 0.362393,0.21167 0.179062,0 0.518915,0.33905 0.518915,0.51769 0,0.1874 -0.17571,0.32812 -0.419105,0.33566 -0.129242,0.004 -0.164925,0.0254 -0.0889,0.0534 0.410955,0.1511 0.566125,0.61956 0.259565,0.78362 -0.245096,0.13117 -0.409472,0.10707 -0.605287,-0.0887 -0.228174,-0.22818 -0.273406,-0.17552 -0.113683,0.13235 0.06978,0.13451 0.107646,0.2947 0.08413,0.35597 -0.05834,0.15202 -0.510756,0.14101 -0.640729,-0.0156 -0.05797,-0.0699 -0.19132,-0.127 -0.296333,-0.127 -0.105013,0 -0.238363,-0.0572 -0.296334,-0.127 -0.05797,-0.0699 -0.20913,-0.127 -0.335911,-0.127 -0.272181,0 -0.416628,-0.14758 -0.704389,-0.71967 -0.117116,-0.23283 -0.311959,-0.5157 -0.432985,-0.62859 l -0.220048,-0.20526 v 0.2133 c 0,0.11732 0.0762,0.28227 0.169333,0.36655 0.09313,0.0843 0.169334,0.24912 0.169334,0.36629 0,0.11718 0.06435,0.28415 0.142993,0.37105 0.164312,0.18156 0.264739,1.13246 0.133468,1.26373 -0.05485,0.0549 -0.01424,0.32929 0.118425,0.80036 0.572837,2.03402 0.93799,2.54638 2.464066,3.45748 0.80539,0.48083 0.8038,0.47456 0.69154,2.71576 -0.0155,0.30871 0.10885,0.67455 0.30209,0.889 0.32167,0.35698 0.41906,0.61152 0.46429,1.21342 l 0.0435,0.57843 0.46271,0.16251 c 0.25449,0.0894 0.65661,0.29125 0.89359,0.4486 0.42007,0.27891 0.43609,0.28242 0.63796,0.13947 0.28171,-0.19947 0.72437,-0.3411 1.06613,-0.3411 0.2061,0 0.37478,0.0825 0.61814,0.30237 0.43863,0.39627 0.91747,1.1251 1.0066,1.53211 0.0488,0.2227 0.10858,0.31237 0.19063,0.28578 0.0658,-0.0213 0.30931,-0.0404 0.54122,-0.0423 0.34367,-0.003 0.42729,0.0252 0.45219,0.15228 0.0168,0.0857 -0.0533,0.234 -0.15581,0.32949 -0.17635,0.1643 -0.42169,0.64072 -0.42169,0.81888 0,0.0451 0.12382,0.094 0.27516,0.10856 0.24614,0.0237 0.27409,0.0533 0.26495,0.28053 -0.006,0.1397 -0.0722,0.52745 -0.14801,0.86166 -0.11923,0.52581 -0.30978,1.89833 -0.27077,1.95037 0.007,0.01 0.26791,-0.0241 0.57883,-0.0756 0.59463,-0.0985 1.40246,-0.003 1.64014,0.19454 0.16001,0.1328 0.14362,0.3239 -0.0331,0.38662 -0.0815,0.0289 -0.85302,0.3468 -1.7145,0.7064 -0.86148,0.35961 -1.67447,0.67922 -1.80664,0.71026 -0.19788,0.0465 -0.22237,0.078 -0.13869,0.17887 0.20891,0.25172 0.0355,0.35225 -0.69309,0.40179 -0.38825,0.0264 -1.30931,0.16533 -2.04679,0.30873 -0.73748,0.1434 -1.54431,0.26073 -1.79296,0.26073 -0.36289,0 -0.4577,0.0292 -0.48056,0.14787 -0.0235,0.1219 -0.124924,0.1488 -0.577706,0.15319 -0.674591,0.007 -2.623587,0.11489 -3.101533,0.17242 -0.264469,0.0318 -0.36233,0.0857 -0.397075,0.21856 -0.03744,0.14318 -0.09082,0.1667 -0.284032,0.12515 -0.130859,-0.0281 -1.133275,-0.0569 -2.227591,-0.0639 l -1.989666,-0.0127 -0.465666,0.26318 c -0.498425,0.28169 -0.705167,0.31689 -0.973667,0.16581 z m 7.016692,-25.23872 c 0.711192,-0.86792 1.408877,-2.376157 1.627336,-3.517937 0.258023,-1.3485696 0.05896,-3.2804296 -0.468211,-4.5439096 -0.518963,-1.2438 -1.286152,-2.37406 -2.071917,-3.05244 -0.760792,-0.65682 -1.992847,-1.34211 -3.044215,-1.69323 -0.811122,-0.27089 -1.082661,-0.3209 -1.941403,-0.35757 -1.869391,-0.0798 -3.429705,0.28238 -4.838873,1.12326 -2.065486,1.23252 -3.562655,3.4861 -3.851965,5.7981 -0.1906694,1.52371 -0.08393,2.6356996 0.375799,3.9148696 0.234976,0.653807 0.819195,1.803117 1.022371,2.011277 0.106339,0.10894 0.13829,0.1 0.259152,-0.0726 0.07582,-0.10826 0.33287,-0.28763 0.571214,-0.39861 0.388689,-0.18098 0.407861,-0.20186 0.18602,-0.2026 -0.321477,-0.001 -0.557,-0.22019 -0.557,-0.51819 0,-0.22973 0.331298,-0.812767 0.532494,-0.937107 0.05444,-0.0336 0.08801,-0.18848 0.07461,-0.34407 -0.01721,-0.19978 0.02684,-0.32923 0.149929,-0.44063 0.125378,-0.11347 0.174303,-0.26175 0.174303,-0.52828 0,-0.4554196 0.208659,-0.5941296 0.417212,-0.27734 0.07322,0.11121 0.218846,0.27716 0.323621,0.36877 0.104775,0.0916 0.1905,0.25494 0.1905,0.36295 0,0.10802 0.04517,0.1964 0.100376,0.1964 0.214078,0 0.492291,0.36721 0.492291,0.64976 0,0.15487 0.0381,0.28158 0.08467,0.28158 0.114383,0 0.106822,-0.30771 -0.0159,-0.64709 -0.08679,-0.24003 -0.0792,-0.30172 0.05546,-0.45051 0.145485,-0.16076 0.146558,-0.18286 0.0159,-0.32724 -0.07707,-0.0852 -0.140122,-0.27743 -0.140122,-0.42727 0,-0.2110996 0.05468,-0.3038196 0.242901,-0.4118396 0.133596,-0.0767 0.288467,-0.26542 0.344158,-0.41943 0.05569,-0.15401 0.198774,-0.39591 0.317964,-0.53756 0.197083,-0.23422 0.211643,-0.3023 0.160781,-0.75187 -0.05413,-0.47847 -0.04747,-0.50144 0.20763,-0.71609 0.144956,-0.12197 0.327309,-0.22263 0.405229,-0.22368 0.07792,-0.001 0.350247,-0.13176 0.605175,-0.29045 0.34159,-0.21264 0.464074,-0.33988 0.465667,-0.48375 0.0018,-0.16704 0.06327,-0.20638 0.425494,-0.2725 0.44817,-0.0818 0.6958,-0.30664 0.648165,-0.58848 -0.01445,-0.0855 0.03687,-0.22519 0.114032,-0.31046 0.181644,-0.20072 0.0699,-0.42448 -0.337792,-0.67646 -0.163573,-0.10109 -0.297405,-0.2365 -0.297405,-0.30092 0,-0.14986 0.265562,-0.2924 0.544768,-0.2924 0.119478,0 0.217232,-0.0368 0.217232,-0.0819 0,-0.13098 0.585789,-0.68015 0.725498,-0.68015 0.134752,0 0.459835,0.66337 0.459835,0.93835 0,0.0893 0.05502,0.16231 0.122279,0.16231 0.06725,0 0.226032,0.0892 0.352845,0.19833 0.298554,0.2568 0.225028,0.4534 -0.195508,0.52276 -0.177072,0.0292 -0.404904,0.0934 -0.506291,0.14268 -0.154606,0.0751 -0.168392,0.11512 -0.08547,0.24791 0.07584,0.12144 0.07481,0.19685 -0.0044,0.32373 -0.07227,0.11572 -0.07599,0.18229 -0.01239,0.22159 0.05,0.0309 0.07355,0.14697 0.05234,0.25793 -0.02636,0.13788 4.87e-4,0.20174 0.08479,0.20174 0.233477,0 0.631813,0.35052 0.588138,0.51753 -0.05193,0.19858 0.38007,0.75464 0.688529,0.88626 0.125123,0.0534 0.298742,0.17701 0.385822,0.2747 0.154833,0.17371 0.154337,0.19241 -0.02251,0.84781 -0.241547,0.89518 -0.180992,1.0354 0.253711,0.58747 0.294565,-0.30353 0.319935,-0.36043 0.214118,-0.48022 -0.122746,-0.13895 -0.161823,-0.57638 -0.06508,-0.72855 0.02961,-0.0466 0.05389,-0.31873 0.05397,-0.6048 8.4e-5,-0.35865 0.0428,-0.56894 0.137536,-0.67733 0.07557,-0.0865 0.184845,-0.36015 0.242836,-0.6082 0.05799,-0.24805 0.158088,-0.4712 0.222436,-0.49589 0.06435,-0.0247 0.116997,-0.11891 0.116997,-0.20938 0,-0.27231 0.250455,-0.67717 0.400975,-0.64817 0.07545,0.0145 0.16714,0.13846 0.203757,0.27538 0.03662,0.13693 0.120576,0.27917 0.186576,0.31611 0.07328,0.041 0.143139,0.28323 0.179432,0.62212 0.04537,0.42368 0.107827,0.60336 0.264012,0.75955 0.232719,0.23272 0.258222,0.51267 0.08457,0.92828 -0.103575,0.24789 -0.103575,0.29355 0,0.33329 0.153335,0.0588 0.153619,0.45063 5.08e-4,0.74404 -0.113556,0.21766 -0.107381,0.23225 0.149959,0.35437 0.147615,0.07 0.360056,0.22493 0.472092,0.34419 0.186596,0.19862 0.193749,0.23542 0.08519,0.4382596 -0.232017,0.43353 -0.857796,0.44897 -1.073353,0.0265 -0.09839,-0.1928296 -0.105067,-0.1823996 -0.112712,0.17602 -0.0045,0.20955 -0.02205,0.47625 -0.03908,0.59267 -0.143091,0.97862 -0.144896,1.10962 -0.01667,1.210197 0.198256,0.15551 0.257944,0.58386 0.108844,0.78111 -0.184129,0.2436 -0.162542,0.29469 0.124524,0.29469 0.315558,0 0.402255,0.18262 0.219274,0.46188 -0.07444,0.11362 -0.112522,0.26608 -0.08462,0.3388 0.0544,0.14178 0.68589,0.55186 0.851851,0.55318 0.05509,4.3e-4 0.233829,-0.16231 0.397195,-0.36168 z"
       id="path346" /></g></svg>
