<?xml version="1.0" encoding="UTF-8" standalone="no"?>
<!-- Created with Inkscape (http://www.inkscape.org/) -->

<svg
   width="6.856698mm"
   height="7.2183294mm"
   viewBox="0 0 6.856698 7.2183294"
   version="1.1"
   id="svg5"
   xml:space="preserve"
   sodipodi:docname="lu.svg"
   inkscape:version="1.2.2 (b0a8486541, 2022-12-01)"
   xmlns:inkscape="http://www.inkscape.org/namespaces/inkscape"
   xmlns:sodipodi="http://sodipodi.sourceforge.net/DTD/sodipodi-0.dtd"
   xmlns="http://www.w3.org/2000/svg"
   xmlns:svg="http://www.w3.org/2000/svg"><sodipodi:namedview
     id="namedview7"
     pagecolor="#f5f5f5"
     bordercolor="#ffffff"
     borderopacity="1"
     inkscape:showpageshadow="0"
     inkscape:pageopacity="0"
     inkscape:pagecheckerboard="true"
     inkscape:deskcolor="#505050"
     inkscape:document-units="mm"
     showgrid="false"
     inkscape:zoom="16.22695"
     inkscape:cx="5.2998253"
     inkscape:cy="23.017264"
     inkscape:window-width="1920"
     inkscape:window-height="1011"
     inkscape:window-x="0"
     inkscape:window-y="0"
     inkscape:window-maximized="1"
     inkscape:current-layer="layer1" /><defs
     id="defs2" /><g
     inkscape:label="Layer 1"
     inkscape:groupmode="layer"
     id="layer1"
     transform="translate(-3.2122812,-70.232839)"><path
       style="fill:#313142;fill-opacity:1;stroke-width:0.0709331"
       d="M 6.7688508,76.804631 C 6.5827985,76.770808 6.2857209,76.657951 6.108679,76.553831 5.8295998,76.389703 5.7365527,76.37041 5.4091251,76.408791 c -0.5578676,0.0654 -0.9899579,-0.06893 -1.356966,-0.421822 -0.6566132,-0.631366 -0.1327119,-1.448536 0.8776153,-1.368884 0.325157,0.02563 0.3717433,0.01282 0.3717433,-0.102301 0,-0.07239 0.078873,-0.326406 0.1752755,-0.56449 0.1284626,-0.317263 0.1568305,-0.467467 0.1062124,-0.562381 -0.099344,-0.186281 -0.08318,-0.626527 0.035109,-0.956013 0.1389743,-0.387119 0.1415318,-0.888227 0.00452,-0.888227 -0.3343599,0 -0.2698221,-0.457633 0.085552,-0.606641 1.4863259,-0.623217 2.4858939,1.303363 1.2833055,2.47346 -0.6960029,0.677199 -0.9790221,1.331967 -0.574756,1.329708 0.2406504,-0.0014 0.4212291,-0.101949 0.3084942,-0.171869 -0.043104,-0.02673 -0.078371,-0.08365 -0.078371,-0.126482 0,-0.04397 0.053959,-0.02969 0.1239147,0.03281 0.1232014,0.110045 1.658594,0.135859 1.764415,0.02967 C 8.7724017,74.26727 8.1024701,74.10933 7.6866494,74.305278 7.2157097,74.5272 7.0947932,74.544751 6.8635605,74.424754 6.7451888,74.363329 6.6241068,74.319435 6.594491,74.327218 c -0.029614,0.0078 -0.064154,-0.03954 -0.07674,-0.105148 -0.031429,-0.163783 0.1421515,-0.15011 0.2896972,0.02282 0.1520626,0.178222 0.4276512,0.178222 0.7953199,0 0.6285197,-0.304669 1.3984632,-0.04302 1.3984632,0.475245 0,0.124406 0.082971,0.269106 0.2389778,0.416755 0.1314383,0.1244 0.238978,0.278363 0.238978,0.342142 0.015853,0.108314 0.037171,0.268083 -0.029203,0.431389 -0.1810495,0.741162 -1.3600101,1.134371 -2.6811448,0.894218 z m 1.9778759,-0.270825 c 1.1850792,-0.617089 0.7314091,-1.669726 -0.719092,-1.668483 -0.6152782,5.27e-4 -1.7348019,0.355014 -1.7348019,0.54931 0,0.28026 0.2573075,0.430135 0.5769775,0.336075 0.1694689,-0.04987 0.4674439,-0.136899 0.6621672,-0.193407 0.1947224,-0.05651 0.4894617,-0.103125 0.6549757,-0.103589 0.4001831,-0.0011 0.390665,-0.263107 -0.017705,-0.487254 -0.077886,-0.04275 -0.1035638,-0.0787 -0.057054,-0.07989 0.3480246,-0.0089 0.6596174,0.669094 0.4376502,0.952275 -0.3207956,0.409265 -1.8342274,0.439437 -2.0793296,0.04145 -0.024437,-0.03968 -0.095895,-0.07214 -0.1588017,-0.07214 -0.091471,0 -0.080053,0.03914 0.057029,0.19541 0.1580975,0.180239 0.1531708,0.17886 -0.06346,-0.01776 C 6.162306,75.856028 6.0100444,75.78102 5.916094,75.794078 c -0.1229186,0.01708 -0.1114828,-0.0018 0.056192,-0.09284 0.2955983,-0.160467 0.2982545,-0.174293 0.028376,-0.147699 -0.1313948,0.01295 -0.1878605,0.01 -0.1254787,-0.0066 0.1030879,-0.02739 0.1018836,-0.0719 -0.013222,-0.488457 -0.1271187,-0.460049 -0.1170971,-0.49581 0.1299236,-0.46362 0.048682,0.0064 0.08851,-0.03949 0.08851,-0.101842 0,-0.06236 0.1099023,-0.327563 0.2442275,-0.589345 0.1343251,-0.261782 0.2603566,-0.555908 0.2800694,-0.653613 0.019712,-0.0977 0.084682,-0.353513 0.1443769,-0.568464 C 6.8648,72.26487 6.8836297,72.136075 6.8194027,72.20053 6.7974657,72.22254 6.6939684,72.21759 6.5894069,72.18952 6.4003513,72.13877 6.2791656,72.359376 6.2019751,72.894761 6.1709221,73.110117 5.9818103,73.181771 5.888182,73.013653 5.7813289,72.821791 5.7606501,72.584678 5.865242,72.750654 c 0.082704,0.131233 0.1840527,-0.0759 0.1196052,-0.244436 -0.021937,-0.05738 -0.00452,-0.126265 0.038772,-0.153096 0.047628,-0.02955 0.058726,-0.01643 0.028133,0.03325 -0.027791,0.04512 -0.01778,0.08204 0.022238,0.08204 0.040018,0 0.05242,0.05321 0.027548,0.118244 -0.031102,0.08134 -0.018458,0.101648 0.040503,0.06508 0.047143,-0.02924 0.068495,-0.114427 0.047436,-0.189302 -0.1118333,-0.397671 -0.1193451,-0.457296 -0.044007,-0.34931 0.059922,0.08589 0.074575,0.06963 0.075444,-0.08375 10e-4,-0.181343 -0.1558403,-0.41366 -0.279326,-0.41366 -0.03183,0 -0.078747,0.119911 -0.1042687,0.266468 -0.025516,0.146558 -0.097593,0.484341 -0.1601649,0.75063 -0.1143465,0.486626 0.0046,0.919452 0.1761368,0.641016 0.037986,-0.06166 0.096117,-0.05697 0.2275663,0.01835 0.1765451,0.101154 0.1765451,0.101154 -0.0046,0.06077 -0.1622171,-0.03618 -0.200283,-9.23e-4 -0.3643318,0.336948 -0.66645,1.372779 -0.3136961,2.594638 0.8599773,2.978763 0.376992,0.123383 1.8548502,0.03174 2.1747953,-0.134856 z M 5.6224798,76.220331 C 5.7600909,76.082235 5.3615026,75.700148 5.0442546,75.666043 4.4766716,75.605028 4.2929702,75.052002 4.7467889,74.770538 c 0.045955,-0.0285 0.03025,0.02455 -0.0349,0.117892 -0.1821517,0.260974 -0.146078,0.314901 0.2179628,0.325837 0.4733651,0.01422 0.518262,-0.404352 0.051534,-0.480482 -1.1541706,-0.188268 -1.541568,0.941724 -0.494166,1.441422 0.2695745,0.12861 1.022253,0.158528 1.1352572,0.04513 z m 2.4051549,-0.206456 c 0.2901914,-0.07963 0.5310618,-0.245915 0.5310618,-0.366612 0,-0.130829 -1.0088244,-0.0185 -1.3807608,0.153736 -0.5348219,0.247672 0.1226527,0.412391 0.849699,0.212876 z M 5.2536979,75.54823 c 0.08756,-0.08787 -0.1108172,-0.237477 -0.3148921,-0.237477 -0.1916104,0 -0.2717507,0.121252 -0.1565487,0.23686 0.060909,0.06112 0.4106931,0.06158 0.4714408,6.19e-4 z m 0.7951376,-0.503945 c -0.012695,-0.107476 -0.02672,-0.219393 -0.031161,-0.248704 -0.00443,-0.02931 -0.042084,-0.05329 -0.083653,-0.05329 -0.046374,0 -0.055757,0.06178 -0.024278,0.159881 0.028217,0.08794 0.051609,0.19985 0.051977,0.248704 3.679e-4,0.04885 0.025315,0.08882 0.05544,0.08882 0.030116,0 0.044375,-0.08794 0.03168,-0.19541 z m 1.1645049,-0.177373 c 0.1363055,-0.03948 0.4071471,-0.09567 0.6018695,-0.124868 0.3540418,-0.05308 0.3540418,-0.05308 -0.086498,-0.06195 -0.7263094,-0.01462 -1.5066877,0.188355 -1.5066877,0.391878 0,0.165648 0,0.165648 0.3717433,0.01619 0.2044587,-0.0822 0.4832663,-0.181764 0.6195727,-0.221247 z m 1.6879019,-0.153564 c 0.044392,-0.229757 -0.2067938,-0.430581 -0.3011079,-0.240739 -0.042886,0.08632 -0.1573783,0.179129 -0.2544288,0.206233 -0.1764539,0.04928 -0.1764539,0.04928 5.661e-4,0.05745 0.097362,0.0045 0.2248165,0.03913 0.2832334,0.07699 0.1398205,0.09059 0.2422026,0.05294 0.2717372,-0.09993 z M 6.9729274,73.147835 c -0.023835,-0.09531 -0.011357,-0.193125 0.027732,-0.217368 0.065107,-0.04038 0.1026347,0.05648 0.077702,0.200531 -0.0056,0.03221 0.023033,0.038 0.063577,0.01286 0.040545,-0.02514 0.055389,-0.07548 0.032976,-0.111869 -0.022405,-0.03638 0.0051,-0.06615 0.06106,-0.06615 0.2456918,0 0.3443396,-0.910418 0.1413343,-1.304374 -0.1123266,-0.217981 -0.2313046,-0.159867 -0.2336931,0.114151 -0.00125,0.143267 0.1102652,0.166958 0.1672251,0.03553 0.021176,-0.04885 0.019176,0.0039 -0.00443,0.117186 -0.024998,0.119989 -0.01538,0.188926 0.023041,0.165097 0.03628,-0.0225 0.065961,0.02582 0.065961,0.107369 0,0.09258 -0.08822,0.200515 -0.2348523,0.287334 -0.216777,0.128355 -0.2251619,0.146166 -0.1089413,0.231448 0.088438,0.06489 0.1523111,0.0704 0.2146209,0.0185 0.062356,-0.05194 0.088711,-0.04953 0.088711,0.0081 0,0.127668 -0.2194255,0.180852 -0.2892949,0.07012 -0.052378,-0.08302 -0.062933,-0.08181 -0.064748,0.0074 -0.00176,0.08694 -0.013389,0.08881 -0.063041,0.01019 -0.042435,-0.06721 -0.075544,-0.07259 -0.1093068,-0.01777 -0.026636,0.04326 -0.020013,0.07865 0.014719,0.07865 0.034732,0 0.056912,0.07195 0.049284,0.159881 -0.014385,0.165792 0.017655,0.266468 0.0848,0.266468 0.021393,0 0.019394,-0.07798 -0.00443,-0.173291 z M 6.6982138,71.971022 c -0.00744,-0.09949 -0.064556,-0.144589 -0.1903226,-0.150358 -0.1460144,-0.0067 -0.1531365,-0.01464 -0.038035,-0.04243 0.1601315,-0.03865 0.3174044,-0.162506 0.2063556,-0.162506 -0.038387,0 -0.069799,-0.06219 -0.069799,-0.13818 0,-0.103915 0.02238,-0.119539 0.090259,-0.06301 0.049644,0.04135 0.074156,0.101316 0.054478,0.133269 -0.019679,0.03195 -0.00753,0.07564 0.027063,0.09707 0.034565,0.02144 0.05145,0.137181 0.037526,0.257209 -0.013925,0.120026 0.00351,0.200362 0.038705,0.178522 0.073638,-0.04568 0.062063,-0.502217 -0.014677,-0.57923 -0.028201,-0.0283 -0.050272,-0.102089 -0.049025,-0.163969 0.00184,-0.09054 0.023793,-0.08475 0.1125742,0.02961 0.1103221,0.142117 0.1103221,0.142117 0.085101,0 C 6.974542,71.288859 6.910824,71.224473 6.84682,71.223947 6.7828164,71.223431 6.6718114,71.171262 6.600149,71.10801 6.4095312,70.939784 6.1412966,70.867587 6.1911352,70.997922 c 0.056569,0.14793 -0.1646484,0.209127 -0.2436771,0.06741 -0.09164,-0.16433 -0.4297477,-0.01405 -0.4148521,0.184391 0.00863,0.114949 0.051233,0.123065 0.1997532,0.116571 0.1671273,-0.0073 0.4180905,-0.05779 0.4772081,-0.03367 0.048276,0.01969 -0.020455,0.110648 -0.060347,0.08591 -0.039892,-0.02475 -0.1667506,-0.03255 -0.2923698,-0.0034 -0.281247,0.06507 -0.088857,0.106665 0.4005803,0.127535 0.1665427,0.0071 0.2388616,0.03198 0.1755332,0.06038 -0.1517675,0.06807 -0.1311983,0.236784 0.03689,0.302612 0.1254695,0.04914 0.1270116,0.05603 0.013523,0.06045 -0.1684495,0.0066 -0.080111,0.147111 0.092467,0.147111 0.089387,0 0.1295365,-0.04663 0.1223693,-0.142116 z"
       id="path2238"
       sodipodi:nodetypes="csssssssssssssssssscssssscccccsssscscsssssscscscsssssssssscsssssscsssssscsccsssssssssssssssssssssssssssssssssssscssssscsssssssssssssscsssssssscssssssscscssssssssssccsscsss" /></g></svg>
