<?xml version="1.0" encoding="UTF-8" standalone="no"?>
<!-- Created with Inkscape (http://www.inkscape.org/) -->

<svg
   width="109.12056mm"
   height="138.9068mm"
   viewBox="0 0 109.12056 138.9068"
   version="1.1"
   id="svg5"
   xml:space="preserve"
   sodipodi:docname="mb_small.svg"
   inkscape:version="1.2.2 (b0a8486541, 2022-12-01)"
   xmlns:inkscape="http://www.inkscape.org/namespaces/inkscape"
   xmlns:sodipodi="http://sodipodi.sourceforge.net/DTD/sodipodi-0.dtd"
   xmlns="http://www.w3.org/2000/svg"
   xmlns:svg="http://www.w3.org/2000/svg"><sodipodi:namedview
     id="namedview7"
     pagecolor="#505050"
     bordercolor="#ffffff"
     borderopacity="1"
     inkscape:showpageshadow="0"
     inkscape:pageopacity="0"
     inkscape:pagecheckerboard="1"
     inkscape:deskcolor="#505050"
     inkscape:document-units="mm"
     showgrid="false"
     inkscape:zoom="0.69931958"
     inkscape:cx="-200.19459"
     inkscape:cy="146.57104"
     inkscape:window-width="1920"
     inkscape:window-height="1011"
     inkscape:window-x="0"
     inkscape:window-y="0"
     inkscape:window-maximized="1"
     inkscape:current-layer="layer1" /><defs
     id="defs2" /><g
     inkscape:label="Layer 1"
     inkscape:groupmode="layer"
     id="layer1"
     transform="translate(-48.97473,-74.49355)"><path
       style="fill:#142872;fill-opacity:0.88330841;stroke:#181b3e;stroke-width:1.153;stroke-dasharray:none;stroke-opacity:1"
       d="m 102.64557,212.58403 c -5.178138,-0.2004 -7.843384,-0.43553 -8.011,-0.70673 -0.167753,-0.27144 -0.368568,-0.28905 -0.60459,-0.053 -0.372357,0.37235 -7.794463,0.0735 -12.728752,-0.51246 -8.050438,-0.95607 -18.353878,-3.29327 -22.071798,-5.00668 -0.78886,-0.36355 -1.55481,-0.661 -1.70211,-0.661 -0.1473,0 -1.35306,-0.70204 -2.67947,-1.56009 -1.3264,-0.85804 -2.51836,-1.45335 -2.64881,-1.32291 -0.13044,0.13044 -0.19873,0.0784 -0.15176,-0.11561 0.11006,-0.4546 -0.36231,-1.61631 -0.93239,-2.29306 -0.64068,-0.76056 -1.56366,-4.58667 -1.56366,-6.48198 0,-1.95086 0.85255,-4.29251 2.02681,-5.56695 l 0.86283,-0.93643 0.68989,0.68989 c 0.80897,0.80898 1.73296,0.62946 3.23851,-0.62919 0.54846,-0.45852 1.23252,-0.83367 1.52012,-0.83367 1.0205,0 0.0631,-0.71186 -1.47993,-1.10041 -1.69054,-0.42568 -1.98876,-1.13115 -1.11309,-2.63313 1.50968,-2.58948 3.42421,-3.66849 8.14162,-4.58856 3.87993,-0.75672 4.68498,-1.4112 4.54052,-3.6913 -0.0599,-0.94473 -0.34162,-1.77899 -0.70847,-2.09771 -0.335,-0.29104 -0.83145,-0.96031 -1.10323,-1.48727 -0.27178,-0.52695 -0.61416,-0.88392 -0.76085,-0.79326 -0.14669,0.0907 -0.18831,-0.13497 -0.0925,-0.50139 0.0958,-0.36643 0.002,-0.77289 -0.20929,-0.90325 -0.77391,-0.47831 -0.36524,-0.97834 0.67483,-0.82569 1.23795,0.18169 1.27883,0.0503 0.35277,-1.13359 -0.91065,-1.1642 -0.87979,-1.41111 0.17639,-1.41111 0.48507,0 0.89109,-0.11906 0.90227,-0.26458 0.0112,-0.14552 0.0859,-0.89226 0.16598,-1.65942 0.10155,-0.97248 -0.0381,-1.61157 -0.4613,-2.11059 l -0.60695,-0.71575 0.61945,0.47982 0.61944,0.47982 0.72908,-0.92687 c 0.85781,-1.09054 1.18821,-1.14009 2.06356,-0.30951 0.83491,0.79221 1.23162,3.18111 0.74208,4.4687 l -0.37923,0.99746 0.80142,-0.21472 c 0.44078,-0.1181 0.98051,-0.21689 1.19938,-0.21954 0.53646,-0.006 2.03378,-4.08114 1.69885,-4.62306 -0.17003,-0.27512 -0.11816,-0.33857 0.14423,-0.17641 0.23708,0.14653 0.5112,-0.0163 0.65042,-0.38646 0.42526,-1.13048 2.481446,-4.17863 3.419027,-5.06844 1.213594,-1.15176 1.185499,-1.74807 -0.22641,-4.80554 -0.194955,-0.42217 -0.283467,-2.12024 -0.196694,-3.77348 0.08677,-1.65324 0.06761,-2.95017 -0.04258,-2.88207 -0.740873,0.45789 -0.358457,-7.68713 0.545896,-11.62686 0.780415,-3.39979 2.528097,-5.95753 5.569345,-8.15073 0.963133,-0.69457 1.050297,-1.86898 0.09822,-1.32346 -0.229126,0.13128 -0.298909,0.10879 -0.155074,-0.05 0.320114,-0.35336 -0.404241,-1.298 -0.805261,-1.05015 -0.158073,0.0977 -0.38891,-0.14218 -0.512968,-0.53305 -0.124057,-0.39088 -0.340991,-0.71068 -0.482074,-0.71068 -0.271268,0 -2.759477,-3.15339 -3.461752,-4.3872 -0.871643,-1.53136 -1.862275,-3.79812 -2.816985,-6.4458 l -0.99122,-2.74895 0.0116,-4.40972 c 0.0106,-4.041383 0.53987,-7.764526 1.22864,-8.643056 0.15212,-0.194028 0.3091,-0.511528 0.34884,-0.705556 0.13533,-0.660669 0.73548,-2.098202 1.56778,-3.755271 0.456886,-0.909639 0.764533,-1.746516 0.683662,-1.859726 -0.08087,-0.11321 -0.04654,-0.131798 0.07628,-0.04131 0.12283,0.09049 0.702571,-0.504823 1.288316,-1.322917 0.585746,-0.818094 1.599403,-2.013843 2.252575,-2.65722 0.653168,-0.643376 1.080773,-1.342592 0.950231,-1.553813 -0.135223,-0.218794 -0.07495,-0.283672 0.140067,-0.150782 0.207578,0.128291 0.827419,-0.130155 1.377425,-0.574322 1.168262,-0.943454 3.897386,-2.724918 4.174454,-2.724918 0.105029,0 0.819655,-0.396875 1.588054,-0.881945 0.7684,-0.485069 1.698308,-0.881944 2.06646,-0.881944 0.368155,0 0.855415,-0.22417 1.082805,-0.498156 0.293645,-0.353821 1.7627,-0.578007 5.070278,-0.773755 2.561263,-0.15158 4.815593,-0.225293 5.009623,-0.163806 0.19403,0.06149 0.82903,0.167133 1.41111,0.23477 2.78726,0.323873 5.72841,1.01014 6.51088,1.519204 0.47653,0.310028 0.95278,0.544212 1.05833,0.520408 0.85547,-0.192931 5.04609,2.709828 7.89531,5.468933 2.34856,2.274275 5.1748,6.1153 5.67697,7.715318 0.13701,0.436563 0.36315,0.79375 0.50252,0.79375 0.13938,0 0.2772,0.277813 0.30627,0.617361 0.11025,1.287577 0.57092,2.743527 0.94466,2.985573 0.59229,0.383597 0.50601,10.89154 -0.11091,13.50679 -1.0333,4.38043 -3.28252,8.40236 -6.62752,11.85097 l -1.9139,1.97319 0.84809,0.55569 c 0.46645,0.30563 1.49991,0.73121 2.29658,0.94573 1.69748,0.45709 2.54713,1.42181 3.50496,3.97968 0.38336,1.02378 0.90458,2.41703 1.15827,3.09613 0.25369,0.6791 0.49626,1.86972 0.53906,2.64583 0.0428,0.77612 0.56293,2.82868 1.15584,4.56126 l 1.07803,3.15015 -0.51295,0.99195 c -0.47547,0.91945 -0.43436,2.06436 0.12448,3.46748 0.11592,0.29104 0.24201,1.48166 0.28019,2.64583 0.0382,1.16417 0.41629,3.13338 0.84022,4.37604 0.5667,1.66112 0.74158,2.88973 0.66048,4.64002 -0.0607,1.30937 -0.20412,2.32294 -0.31878,2.2524 -0.38441,-0.23648 -1.67274,1.84238 -2.08069,3.3574 -0.49535,1.83956 -0.2828,2.48386 0.81941,2.48386 0.83136,0 2.02186,0.76254 3.76281,2.41016 0.48507,0.45907 1.38718,1.05474 2.00468,1.32371 1.47883,0.64416 2.76965,1.87519 3.11311,2.96891 0.15232,0.48507 0.62568,1.43757 1.05191,2.11667 0.42622,0.67909 0.71215,1.41861 0.63539,1.64336 -0.24106,0.70587 0.58509,0.91298 3.54971,0.88989 3.3305,-0.026 5.051,0.34752 6.36593,1.38185 1.10101,0.86605 2.23826,2.95297 2.39501,4.39498 l 0.11065,1.0179 -1.70853,0.37029 -1.70854,0.37028 1.17937,0.56241 c 0.64865,0.30932 1.30703,0.57692 1.46307,0.59468 0.15603,0.0178 0.58731,0.39644 0.9584,0.84152 l 0.6747,0.80923 0.0117,-0.79375 c 0.0163,-1.10364 0.59685,-0.99099 1.71021,0.33187 2.42087,2.8764 2.4687,8.66813 0.10287,12.45632 -1.02136,1.6354 -4.22717,4.7625 -4.88239,4.7625 -0.2457,0 -0.44673,0.15875 -0.44673,0.35278 0,0.19403 -0.13857,0.35278 -0.30793,0.35278 -0.16937,0 -1.08218,0.34853 -2.02847,0.77452 -0.9463,0.42598 -1.87929,0.80303 -2.07332,0.83789 -0.19403,0.0349 -1.11239,0.32132 -2.0408,0.63659 -0.92842,0.31527 -1.96465,0.57322 -2.30276,0.57322 -0.3381,0 -0.96755,0.24713 -1.39878,0.54917 -0.43123,0.30204 -0.78405,0.47656 -0.78405,0.38782 0,-0.0888 -1.07156,0.19976 -2.38125,0.64112 -1.30969,0.44136 -2.93687,0.92017 -3.61597,1.06403 -0.6791,0.14385 -1.39347,0.38232 -1.5875,0.52992 -0.19403,0.1476 -1.45301,0.37157 -2.79773,0.4977 -1.34472,0.12613 -2.77347,0.30716 -3.175,0.40228 -0.40153,0.0951 -1.5238,0.23891 -2.49394,0.31951 -0.97014,0.0806 -3.90701,0.3262 -6.52639,0.54578 -2.61937,0.21957 -5.15937,0.43067 -5.64444,0.4691 -0.48507,0.0384 -4.37386,-0.0653 -8.64177,-0.23043 z m -9.469337,-94.09767 c 0.205948,-0.20595 0.948436,-0.40439 1.649973,-0.44097 1.027815,-0.0536 1.353937,-0.25499 1.679314,-1.03698 0.309901,-0.74481 0.302486,-1.09253 -0.03189,-1.49542 -0.239624,-0.28874 -0.600971,-0.42281 -0.802996,-0.29796 -0.202022,0.12486 -0.264252,0.0603 -0.138289,-0.14355 0.125966,-0.20382 0.01298,-0.78696 -0.251033,-1.29588 l -0.480057,-0.92531 -0.206555,1.27285 c -0.24808,1.52876 -0.800668,2.26822 -1.694998,2.26822 H 92.23734 v -2.23426 c 0,-1.22884 -0.119062,-2.35332 -0.264583,-2.49884 -0.145521,-0.14552 -0.274828,-0.37042 -0.287345,-0.49977 -0.01252,-0.12935 -0.210072,-0.87018 -0.439007,-1.64629 -0.228931,-0.77611 -0.417128,-1.89724 -0.418207,-2.49138 -0.0011,-0.59414 -0.299759,-1.70539 -0.663723,-2.46944 -0.739384,-1.55215 -0.746415,-2.83108 -0.02702,-4.916963 0.919554,-2.66627 2.826939,-4.933566 4.496121,-5.344512 1.578599,-0.388644 2.542656,-1.195325 2.542656,-2.127587 0,-1.123822 0.57488,-2.192634 1.768302,-3.287624 0.528677,-0.48507 1.065516,-1.218195 1.192966,-1.629169 0.12746,-0.410973 0.56034,-1.044594 0.96195,-1.408046 l 0.7302,-0.660822 0.6719,0.829767 c 0.36955,0.456372 0.6719,1.031464 0.6719,1.277981 0,0.246518 0.59532,0.897159 1.32292,1.44587 1.64665,1.241792 2.09889,1.828476 2.34181,3.037994 0.14654,0.72968 0.64976,1.177707 2.14524,1.909974 1.36862,0.670149 2.37603,1.515924 3.36358,2.823924 0.77538,1.02699 1.40979,2.01467 1.40979,2.19484 0,0.18018 0.23715,0.7823 0.52699,1.338063 0.69885,1.33999 0.66253,2.23777 -0.22646,5.59657 -0.41084,1.55222 -0.82264,3.33816 -0.91513,3.96875 -0.0925,0.63059 -0.28582,1.14653 -0.42965,1.14653 -0.27227,0 0.17596,3.48264 0.48846,3.79514 0.311,0.311 -0.50631,1.49653 -1.03171,1.49653 -0.75823,0 -1.2331,-1.16524 -1.24853,-3.06362 l -0.0138,-1.69888 -0.52885,1.2191 c -0.29086,0.67051 -0.93651,1.75358 -1.43477,2.40683 l -0.90592,1.18773 0.73132,0.77845 c 0.40223,0.42815 1.16614,0.81444 1.69758,0.85842 0.53144,0.044 1.11168,0.22539 1.28941,0.40312 0.36487,0.36487 1.37802,0.0917 1.13261,-0.30544 -0.0874,-0.14135 0.0599,-0.25701 0.32727,-0.25701 1.50888,0 6.66722,-6.38597 7.10401,-8.79468 0.0954,-0.52638 0.35212,-1.28969 0.57037,-1.69624 0.21826,-0.40655 0.46821,-2.33431 0.55545,-4.28392 l 0.15862,-3.544743 -0.91655,-2.98164 c -1.01982,-3.317544 -2.86711,-6.260826 -5.56504,-8.86678 -1.85304,-1.789855 -6.30605,-4.169037 -7.80302,-4.169037 -0.51115,0 -1.02063,-0.147677 -1.13218,-0.32817 -0.2809,-0.454505 -7.335571,-0.403942 -8.743779,0.06267 -3.349703,1.109929 -4.318357,1.519587 -5.770087,2.440245 -0.966815,0.613137 -1.491879,1.166093 -1.340245,1.411443 0.160638,0.259918 0.09201,0.306168 -0.192966,0.130044 -0.288685,-0.178418 -1.124578,0.445809 -2.407105,1.797576 -2.039641,2.149758 -3.984251,5.763323 -4.645776,8.632999 -0.396219,1.71878 -0.505951,7.829623 -0.147038,8.188533 0.125363,0.12537 0.262805,0.66777 0.305421,1.20533 0.04262,0.53756 0.614733,2.08688 1.271369,3.44294 1.579658,3.26223 6.275758,8.25948 8.09069,8.60952 0.106715,0.0206 0.362529,-0.13107 0.568477,-0.33702 z"
       id="path540" /><path
       style="fill:#0c0b2d;fill-opacity:1;stroke-width:0.352778"
       d="m 70.783753,181.37545 c -0.893597,-0.58548 -2.330334,-4.05753 -2.609078,-6.30515 -0.19045,-1.53569 -0.551264,-2.67403 -1.036517,-3.27015 -1.048142,-1.28761 -2.212002,-3.85168 -1.944667,-4.28424 0.123413,-0.19969 0.540022,-0.26288 0.925799,-0.14044 0.673763,0.21384 0.679548,0.18034 0.146699,-0.85008 -0.706134,-1.36551 -0.697728,-1.46051 0.129229,-1.46051 0.551515,0 0.724257,-0.32444 0.892172,-1.67569 0.436866,-3.51555 1.156144,-4.44447 2.845442,-3.67477 0.918429,0.41846 0.944195,0.50956 0.810962,2.86746 l -0.137605,2.43527 1.2169,-0.1092 c 1.164319,-0.10447 1.272763,-0.23882 2.509707,-3.10917 1.698781,-3.94204 2.891409,-5.93604 4.403344,-7.36214 1.364506,-1.28704 1.593395,-2.50658 0.663332,-3.53428 -0.49917,-0.55158 -0.513796,-0.78558 -0.110024,-1.76037 0.256116,-0.61832 0.966586,-1.85269 1.578821,-2.74303 1.081204,-1.57234 2.634675,-4.74019 2.634675,-5.37264 0,-0.74179 4.734624,-10.81824 5.587524,-11.89164 1.597949,-2.01105 2.140384,-2.96751 3.095625,-5.45838 0.507616,-1.32365 1.538845,-3.11826 2.291623,-3.98803 0.752779,-0.86977 1.467951,-2.00928 1.589271,-2.53225 0.121321,-0.52298 0.444878,-1.13092 0.719021,-1.351 0.418995,-0.33636 0.354902,-0.57072 -0.402156,-1.47043 -1.392481,-1.65487 -2.304235,-4.0569 -2.624755,-6.91497 -0.373122,-3.32713 -0.481996,-3.4894 -2.151866,-3.20728 -1.160685,0.19609 -1.407132,0.11787 -1.771068,-0.56215 -0.564226,-1.05426 -0.232805,-4.048123 0.664947,-6.006742 0.904201,-1.972687 2.675223,-3.675566 4.432692,-4.262137 1.458573,-0.486816 1.799103,-0.890517 2.152957,-2.55234 0.272376,-1.279184 2.535223,-3.598703 3.827091,-3.922942 1.46332,-0.36727 4.64796,1.865566 5.50179,3.857449 0.4588,1.070342 0.98165,1.650545 1.78859,1.984791 1.62205,0.671876 4.52948,3.703073 5.31937,5.545818 0.80815,1.885343 0.90082,5.110353 0.16439,5.721523 -0.38404,0.31873 -0.68943,0.32261 -1.26228,0.016 -1.44766,-0.77475 -1.75888,-0.25624 -1.75888,2.93045 0,3.01298 -0.23034,3.73497 -2.27447,7.12926 -0.63762,1.05878 -0.63657,1.0649 0.46064,2.69065 0.60484,0.89621 1.49228,1.88669 1.97209,2.20107 1.02738,0.67317 1.50438,2.22728 1.78983,5.8315 0.11378,1.4367 0.43195,3.04743 0.70704,3.57939 0.36532,0.70646 0.43932,1.61876 0.27448,3.38397 -0.20416,2.18632 -0.38337,2.61868 -1.87946,4.5345 l -1.65378,2.11774 -2.71532,-0.12179 c -3.30121,-0.14806 -4.30069,0.0719 -4.54337,0.99987 -0.26103,0.99819 -2.3679,0.97877 -3.281038,-0.0302 -0.575253,-0.63564 -0.91779,-0.70718 -2.435927,-0.50874 -2.06218,0.26956 -6.750547,1.50033 -7.747744,2.03391 -0.574591,0.30744 -0.845492,0.18213 -1.62512,-0.75174 l -0.935588,-1.12068 -0.189763,4.68859 c -0.104366,2.57873 -0.349409,5.09383 -0.544534,5.58911 -0.206459,0.52404 -0.227263,1.12836 -0.04977,1.44553 0.433511,0.77464 -1.65057,5.89786 -3.637869,8.94285 -0.886421,1.35819 -2.539058,3.85469 -3.67253,5.54778 -1.133468,1.69309 -2.414841,3.64396 -2.847495,4.33528 l -0.786638,1.25694 0.896652,2.72028 c 0.493158,1.49615 1.220561,3.17235 1.616452,3.7249 0.892669,1.24591 0.366769,2.13486 -0.694683,1.17426 -0.359413,-0.32527 -0.833829,-0.59139 -1.054258,-0.59139 -0.481147,0 -1.196034,1.22864 -0.891869,1.53281 0.117959,0.11796 -0.06183,0.3205 -0.399527,0.45008 -0.426805,0.16378 -0.869164,-0.0757 -1.450937,-0.78544 l -0.836937,-1.02106 0.03799,0.88194 c 0.04352,1.01045 -0.613967,2.82486 -1.020734,2.81682 -0.150323,-0.003 -0.451327,-0.12203 -0.668895,-0.26458 z m 1.119575,-2.02307 c 0.272556,-1.81753 0.845707,-2.02923 1.751436,-0.64691 l 0.616299,0.94059 0.429176,-1.02878 c 0.23605,-0.56584 0.356863,-1.22723 0.268478,-1.46976 -0.228593,-0.62727 0.186429,-0.54866 1.548839,0.29335 1.355305,0.83763 1.467083,0.69667 0.523706,-0.66041 -0.365457,-0.52572 -0.865844,-1.74961 -1.111977,-2.71975 -0.246133,-0.97014 -0.661501,-2.01451 -0.92304,-2.32083 -0.608626,-0.71284 -0.599352,-1.03575 0.04368,-1.52083 0.285559,-0.21542 0.880872,-1.057 1.322916,-1.87017 0.442045,-0.81318 2.331085,-3.75005 4.197869,-6.52639 3.564474,-5.30119 4.935241,-8.22884 5.088911,-10.86872 0.05083,-0.87313 0.265444,-2.54 0.476935,-3.70417 0.568282,-3.12816 0.516177,-10.05416 -0.07564,-10.05416 -0.425231,0 -2.005192,3.22221 -2.005192,4.08944 0,0.58052 -2.035754,4.63836 -2.457873,4.89924 -0.207772,0.12841 -0.769585,1.00669 -1.24847,1.95172 -0.770622,1.52075 -0.810401,1.77857 -0.346072,2.24289 0.288551,0.28856 0.524637,1.06321 0.524637,1.72145 0,0.93712 -0.343143,1.55493 -1.581425,2.84728 -1.829872,1.90976 -4.538412,7.26443 -5.237843,10.355 -0.387372,1.71168 -0.60185,2.07542 -1.282333,2.17471 -0.629148,0.0918 -0.765147,-0.01 -0.591111,-0.44097 0.124326,-0.30811 0.322403,-0.79833 0.440178,-1.08938 0.300292,-0.74208 -1.202563,-0.70177 -2.038438,0.0547 -0.603599,0.54625 -0.644416,0.54057 -0.633921,-0.0882 0.0062,-0.36963 0.244299,-0.9802 0.529167,-1.35683 0.62344,-0.82426 0.687306,-3.76724 0.09462,-4.35993 -0.715825,-0.71583 -1.688814,-0.48116 -2.060716,0.49702 -0.192454,0.50619 -0.37508,1.83343 -0.405839,2.94942 -0.04897,1.77673 -0.135982,2.00814 -0.699682,1.86072 -0.354069,-0.0926 -0.643763,-0.06 -0.643763,0.0724 0,0.52098 0.824946,1.81114 1.503137,2.3508 0.396254,0.31531 0.602759,0.75057 0.463222,0.97635 -0.177793,0.28767 -0.517695,0.19823 -1.156646,-0.30437 -0.497674,-0.39147 -1.042204,-0.71177 -1.210066,-0.71177 -0.679263,0 -0.234435,1.38616 0.920573,2.86866 0.990085,1.27082 1.295238,2.06309 1.587017,4.12041 0.381395,2.68917 1.86763,6.06371 2.670619,6.06371 0.287271,0 0.563313,-0.6184 0.708639,-1.5875 z m -0.898631,-3.41876 c -0.0011,-1.80453 -0.157815,-3.16244 -0.381063,-3.30042 -0.476571,-0.29453 0.937323,-1.87364 2.068897,-2.31063 0.561188,-0.21673 0.779755,-0.55517 0.716248,-1.1091 -0.379899,-3.31362 4.003799,-13.18133 6.616175,-14.89302 0.695547,-0.45574 0.855768,-0.85732 0.855768,-2.14488 0,-0.87128 -0.185018,-1.88042 -0.411152,-2.24251 -0.339481,-0.5436 -0.231863,-0.94636 0.617361,-2.31046 1.930527,-3.10101 3.301718,-5.66404 3.311649,-6.19012 0.01439,-0.76145 1.197398,-3.52861 1.509225,-3.53016 0.407374,-0.002 0.309327,6.96696 -0.131508,9.34728 -0.2156,1.16417 -0.432566,2.83104 -0.482145,3.70417 -0.150252,2.64606 -1.485978,5.43742 -5.330917,11.14042 -2.017744,2.99282 -3.668624,5.58314 -3.668624,5.75628 0,0.17314 -0.47625,0.82462 -1.058333,1.44774 -1.085558,1.1621 -1.32037,1.91308 -0.715127,2.28714 0.273745,0.16919 1.77346,4.39265 1.77346,4.99438 0,0.0834 -0.307065,-0.0127 -0.682364,-0.21355 -1.142132,-0.61125 -1.531976,-0.4496 -1.285364,0.53298 0.343024,1.36672 -0.141269,1.80555 -0.911059,0.82551 l -0.661162,-0.84173 -0.874105,1.05833 -0.87411,1.05833 -0.0018,-3.06598 z m -1.916049,0.33195 c -0.09012,-0.43656 -0.259845,-1.53599 -0.377175,-2.44318 -0.137362,-1.06206 -0.583908,-2.11574 -1.253984,-2.95892 -1.311625,-1.65047 -1.441863,-2.77072 -0.184828,-1.58979 0.470708,0.4422 1.026333,0.69863 1.234723,0.56984 0.669092,-0.41352 0.405239,-1.65776 -0.503051,-2.37222 -1.03699,-0.8157 -1.118327,-1.25079 -0.264583,-1.41535 0.526446,-0.10147 0.601031,-0.45595 0.506479,-2.40711 -0.121959,-2.51668 0.436016,-3.812 1.470978,-3.41485 0.866507,0.33251 0.774848,3.19791 -0.150171,4.69462 -1.050833,1.70029 -0.270245,2.59578 1.14571,1.31436 0.789128,-0.71415 1.283896,-0.36285 0.61837,0.43906 -0.409614,0.49355 -0.378982,0.65183 0.214312,1.10734 0.380732,0.29231 0.533488,0.59326 0.339461,0.66878 -0.194028,0.0755 -0.854344,0.4431 -1.467365,0.81685 l -1.114588,0.67955 0.195746,3.55239 c 0.180929,3.28348 -0.0211,4.64275 -0.410034,2.75863 z m 19.73052,-37.04166 -0.231504,-1.14653 0.862528,1.04195 c 0.848166,1.02461 0.888259,1.03428 2.408332,0.58062 0.850195,-0.25372 1.900115,-0.59883 2.333156,-0.76688 0.433039,-0.16806 1.805686,-0.40989 3.050322,-0.53741 2.071631,-0.21224 2.296936,-0.16839 2.664647,0.51869 0.591151,1.10457 2.245231,1.00562 3.022621,-0.18083 0.60508,-0.92347 0.63826,-0.92969 3.9174,-0.73405 l 3.30715,0.19731 0.76604,-1.11803 c 0.42132,-0.61492 1.15422,-1.54117 1.62865,-2.05835 0.80945,-0.88235 0.85106,-1.12155 0.6751,-3.88055 -0.10314,-1.61714 -0.4947,-4.74439 -0.87013,-6.94947 -0.64103,-3.76503 -0.75868,-4.07891 -1.93168,-5.15352 -0.68699,-0.62937 -1.49703,-1.62379 -1.80009,-2.20984 -0.30305,-0.58604 -0.75531,-1.14184 -1.00502,-1.23511 -0.70853,-0.26464 -3.35657,1.0093 -3.79299,1.82476 -0.31952,0.59703 -0.70163,0.72384 -2.05455,0.68183 -0.91412,-0.0284 -1.966973,-0.20827 -2.339665,-0.39977 -0.49621,-0.25496 -0.779554,-0.21231 -1.058333,0.15932 -0.209392,0.27913 -0.65852,0.61174 -0.998069,0.73915 -0.868549,0.3259 -0.768068,0.84434 0.299191,1.54363 0.7135,0.4675 1.057067,0.51279 1.550836,0.20443 0.507277,-0.3168 0.758543,-0.25882 1.2548,0.28953 0.92131,1.01804 4.4361,0.94859 6.33198,-0.12513 2.0818,-1.17901 1.80595,-2.31709 -0.35278,-1.45542 -0.63387,0.25302 -0.6551,0.21964 -0.20898,-0.32854 0.80484,-0.98895 -0.0117,-1.46348 -1.33798,-0.77761 -0.60438,0.31253 -1.09887,0.43576 -1.09887,0.27383 0,-0.65393 0.95814,-1.43393 2.27486,-1.85191 1.3076,-0.41508 1.42646,-0.39213 1.94028,0.3746 0.30105,0.44922 1.16609,1.44035 1.92231,2.2025 1.33256,1.34301 1.39534,1.51792 2.03573,5.6719 0.36342,2.35738 0.75594,5.3974 0.87227,6.75559 l 0.21151,2.46945 -1.63631,1.98381 -1.63631,1.98382 -3.14149,-0.17912 c -3.04619,-0.17369 -3.16761,-0.15093 -4.00276,0.75021 -1.04145,1.12375 -1.68833,1.17015 -2.57778,0.18492 -0.59696,-0.66125 -0.919064,-0.71919 -2.883299,-0.51868 -1.216197,0.12415 -2.565572,0.35945 -2.998611,0.5229 -3.277771,1.23718 -3.516654,1.24855 -4.347192,0.20696 -0.456943,-0.57307 -0.992727,-0.89855 -1.290821,-0.78416 -0.343831,0.13194 -0.707616,-0.2532 -1.118242,-1.18391 -0.598703,-1.35699 -0.593834,-1.41072 0.298894,-3.29779 0.499132,-1.05508 0.907514,-2.03626 0.907514,-2.1804 0,-0.14415 0.873125,-1.40203 1.940278,-2.79529 1.067153,-1.39326 1.940278,-2.65792 1.940278,-2.81035 0,-1.20123 1.779947,-4.71824 3.221725,-6.36585 0.944439,-1.07926 1.717164,-2.19118 1.717164,-2.47093 0,-0.67924 0.464961,-0.64135 2.156029,0.17568 0.779013,0.37638 1.360643,0.51708 1.292503,0.31266 -0.16654,-0.49961 -3.036389,-1.44802 -3.658851,-1.20917 -0.27238,0.10453 -0.495237,0.51608 -0.495237,0.91456 0,0.39848 -0.638693,1.4174 -1.419317,2.26428 -0.913539,0.99107 -1.834568,2.59753 -2.584608,4.50805 -0.709793,1.808 -1.809764,3.7595 -2.814017,4.99245 -0.906798,1.11331 -1.648725,2.1934 -1.648725,2.40021 0,0.2068 -0.40961,1.19152 -0.91024,2.18825 -0.910241,1.81226 -0.910241,1.81226 -0.279354,3.75541 0.8962,2.76033 2.170938,4.26607 1.719707,2.03134 z m 15.063092,-23.33769 c 3.72164,-0.98615 4.1858,-1.32365 5.62604,-4.09078 0.63724,-1.22435 0.86697,-2.35417 1.0042,-4.93889 l 0.17794,-3.35139 h 1.5875 1.58751 l 0.10837,-1.90246 c 0.0596,-1.04634 -0.0594,-2.070283 -0.26458,-2.275413 -0.20513,-0.20513 -0.37296,-0.57796 -0.37296,-0.82852 0,-1.314208 -3.69464,-4.944951 -5.87587,-5.774254 -0.46446,-0.176587 -0.90529,-0.724129 -1.03821,-1.289516 -0.30707,-1.306166 -1.9955,-3.050082 -3.69504,-3.816468 -1.3726,-0.618955 -1.37846,-0.618253 -2.74508,0.328817 -1.252866,0.868236 -1.712151,1.612103 -2.894835,4.688539 -0.178932,0.465437 -0.785936,0.907411 -1.527408,1.112142 -2.829355,0.781223 -4.869049,3.521943 -5.376527,7.224393 -0.308878,2.2535 0.234692,3.0728 1.863309,2.80851 1.633763,-0.26512 2.238015,0.46253 2.243846,2.70207 0.0048,1.82768 0.681066,4.63019 1.49484,6.19438 0.828989,1.59344 2.258359,2.77544 3.904209,3.22856 1.988026,0.54733 2.053966,0.54701 4.192746,-0.0197 z m -3.77515,-0.33306 c -2.149957,-0.61909 -2.898795,-1.16539 -3.829959,-2.79407 -0.978256,-1.71105 -1.514168,-3.95733 -1.786954,-7.49004 -0.24204,-3.1345 0.106518,-4.69944 1.234222,-5.541393 0.850642,-0.6351 1.020169,-0.64066 3.556405,-0.11679 2.382396,0.492103 2.797616,0.493933 3.938266,0.0173 1.64839,-0.68874 4.45085,-0.68524 5.43887,0.007 1.07303,0.751583 1.49963,2.607323 1.4979,6.515993 -0.001,2.78649 -0.14285,3.655 -0.84021,5.15269 -1.1319,2.43089 -2.05646,3.20282 -4.82286,4.02669 -2.63347,0.78428 -2.4654,0.77574 -4.38568,0.22279 z m 3.91695,-1.73624 c 0.37116,-0.37117 0.47789,-4.45848 0.12216,-4.67834 -0.16843,-0.10409 -0.61844,0.006 -1.00001,0.244 -0.5491,0.34292 -0.89431,0.34189 -1.65551,-0.005 -1.16151,-0.52922 -1.925265,-0.0349 -1.23366,0.79842 0.24064,0.28995 0.33686,0.84437 0.21382,1.23204 -0.12304,0.38767 0.0136,1.1638 0.30368,1.72472 0.43832,0.84762 0.73617,1.01262 1.7635,0.97695 0.67985,-0.0236 1.34856,-0.1554 1.48602,-0.29285 z m -2.9704,-0.99079 c -0.35351,-0.56607 -0.36301,-0.84753 -0.0417,-1.23472 0.32113,-0.38694 0.31428,-0.62438 -0.03,-1.03922 -0.61156,-0.73689 -0.21833,-1.01888 0.72029,-0.51654 0.5595,0.29943 0.88035,0.30734 1.15911,0.0286 0.212,-0.212 0.59742,-0.38546 0.85648,-0.38546 0.36657,0 0.38461,0.16147 0.0814,0.72811 -0.28637,0.53509 -0.28317,0.85643 0.0121,1.21217 0.29524,0.35575 0.29844,0.67708 0.0121,1.21217 -0.52174,0.97488 -2.15956,0.97187 -2.76968,-0.005 z m 3.06301,-4.67776 c 0.21548,-0.25964 1.00984,-0.65725 1.76524,-0.88357 2.51929,-0.7548 2.85373,-2.30553 0.45377,-2.10403 -1.70255,0.14294 -1.86512,-0.54657 -0.18241,-0.77366 1.44648,-0.19521 1.83936,-0.72231 1.03559,-1.38937 -0.64365,-0.53419 -2.43643,-0.20153 -3.07764,0.57108 -0.57553,0.69348 -1.34601,2.88383 -1.35296,3.84629 -0.009,1.21027 0.66203,1.57234 1.35841,0.73326 z m -2.49125,-1.00859 c 0.12308,-1.02989 -1.819394,-4.16379 -2.580816,-4.16379 -0.879238,0 -1.007325,0.80582 -0.228346,1.4366 1.053603,0.85316 0.973935,0.97664 -0.710201,1.10076 -0.809537,0.0597 -1.534037,0.2976 -1.61,0.52876 -0.173514,0.528 1.697683,1.52 2.867159,1.52 0.483256,0 0.981934,0.16712 1.108184,0.3714 0.38054,0.61572 1.03978,0.16231 1.15402,-0.79373 z m -10.892828,-4.01861 c -0.522196,-0.62921 -0.140332,-3.337003 0.745663,-5.287493 0.767605,-1.689855 2.949956,-3.67713 4.038092,-3.67713 0.795838,0 2.297708,-1.333648 2.297708,-2.040346 0,-0.873256 1.537791,-3.293478 2.551115,-4.015029 1.02866,-0.732469 1.10567,-0.737975 2.16813,-0.155009 2.00568,1.100506 3.10818,2.218365 3.34895,3.395592 0.13048,0.637973 0.47195,1.275771 0.75883,1.417323 0.28687,0.141552 0.95397,0.459109 1.48245,0.705676 0.87431,0.407927 2.33612,1.695943 3.85197,3.394018 0.95074,1.065025 1.71356,3.276048 1.71356,4.966728 0,1.47213 -0.0568,1.57034 -0.79375,1.37285 -0.43657,-0.117 -0.95927,-0.21489 -1.16156,-0.21754 -0.20229,-0.003 -0.54988,-0.68558 -0.77242,-1.51762 -0.22253,-0.83205 -0.72523,-1.920413 -1.11711,-2.418603 -0.94546,-1.20197 -3.48552,-1.525736 -6.27324,-0.79963 -1.56551,0.40777 -2.40207,0.44342 -3.728615,0.15893 -3.986777,-0.855011 -5.641121,-0.0869 -6.420012,2.980653 -0.354968,1.398 -0.619873,1.78369 -1.361278,1.98198 -0.611141,0.16344 -1.057652,0.081 -1.328483,-0.24535 z m 9.606978,73.47654 c -0.403747,-0.48648 -0.2971,-1.39537 0.51707,-4.40708 0.0682,-0.25243 0.82311,-0.76817 1.67748,-1.1461 0.99493,-0.4401 2.03713,-1.32145 2.89888,-2.45145 1.02634,-1.34582 1.57037,-1.76431 2.29359,-1.76431 1.50176,0 6.3873,1.0275 7.54997,1.58787 0.58208,0.28055 1.49489,0.66912 2.02847,0.86349 0.70885,0.25822 0.97014,0.59328 0.97014,1.24407 0,0.48987 0.0121,1.00974 0.0269,1.15526 0.0148,0.14552 -1.04086,0.53897 -2.34592,0.87432 -1.30506,0.33536 -4.69062,1.40083 -7.52345,2.36772 -6.1919,2.11338 -7.50469,2.38528 -8.09316,1.67621 z m 5.76476,-1.31231 c 1.74625,-0.55462 4.28625,-1.39909 5.64445,-1.87661 1.35819,-0.47753 2.91728,-0.96861 3.46464,-1.0913 1.31713,-0.29524 1.02678,-1.02508 -0.50698,-1.27439 -0.66976,-0.10886 -1.37358,-0.29425 -1.56406,-0.41197 -0.19047,-0.11772 -1.57362,-0.38474 -3.07367,-0.59338 -1.50004,-0.20863 -3.05388,-0.57944 -3.453,-0.82402 -0.64422,-0.39478 -0.83239,-0.31566 -1.67685,0.70502 -0.52315,0.63234 -1.2076,1.14828 -1.52098,1.14653 -0.97645,-0.005 -2.42882,1.39301 -2.42882,2.33867 0,0.48375 -0.17098,1.199 -0.37995,1.58947 -0.20897,0.39046 -0.28847,0.94829 -0.17668,1.23962 0.24587,0.64073 1.14233,0.49095 5.6719,-0.94764 z m -5.28636,0.72418 c -0.11787,-0.19073 -0.0482,-0.65713 0.15477,-1.03644 0.203,-0.37931 0.36909,-1.07871 0.36909,-1.55422 0,-0.88121 1.26024,-2.00404 2.24929,-2.00404 0.28062,0 0.91738,-0.48388 1.41502,-1.0753 0.74898,-0.89011 1.0229,-1.01209 1.59054,-0.7083 0.37716,0.20185 1.81095,0.52659 3.18621,0.72163 1.37525,0.19505 3.13425,0.55244 3.90887,0.79419 1.40939,0.43988 1.88505,0.97334 0.86786,0.97334 -0.2973,0 -1.76574,0.45349 -3.26319,1.00776 -6.47408,2.39631 -10.15301,3.40795 -10.47846,2.88138 z m 16.91098,-5.62545 c 0.55464,-0.89742 -8.98579,-3.6815 -10.55379,-3.0798 -1.6394,0.6291 0.48164,1.9717 3.16251,2.00185 0.58208,0.007 1.93146,0.3138 2.99861,0.68278 2.11569,0.73154 4.07581,0.90787 4.39267,0.39517 z m -3.68712,-0.59775 c -0.87312,-0.28763 -2.69039,-0.67347 -4.03837,-0.85742 -2.38166,-0.325 -3.40271,-0.77392 -2.90111,-1.27552 0.66706,-0.66707 9.76171,1.72017 9.76171,2.56234 0,0.27677 -1.26101,0.0849 -2.82223,-0.4294 z m -10.68473,-3.87187 c -0.54083,-0.29327 -1.81084,-0.63031 -2.82222,-0.74898 -3.247014,-0.38097 -5.616326,-2.9816 -6.071307,-6.66406 -0.421488,-3.41138 2.20164,-5.57377 6.739417,-5.55569 2.17553,0.009 2.71191,0.1467 4.05694,1.04407 1.8801,1.25433 2.7834,2.93042 2.78413,5.166 7.1e-4,1.86513 0.27564,2.01508 1.72738,0.94175 1.50345,-1.11154 2.92385,-0.81417 3.35639,0.70269 0.30178,1.0583 0.24748,1.27106 -0.45013,1.76389 -0.43632,0.30823 -1.50003,1.14869 -2.36379,1.86769 -2.3631,1.96703 -5.0195,2.53317 -6.95681,1.48264 z m 5.44547,-0.70034 c 0.51899,-0.26838 1.25553,-0.88449 1.63675,-1.36912 0.38121,-0.48464 1.1096,-1.0395 1.61865,-1.23304 1.57988,-0.60067 0.8619,-3.03217 -0.8221,-2.78411 -1.22283,0.18014 -1.6996,1.13459 -0.94412,1.89006 0.9106,0.91061 0.39949,1.06806 -0.68864,0.21214 -0.99247,-0.78068 -1.91128,-0.97961 -1.91128,-0.41382 0,0.18258 0.15875,0.43007 0.35278,0.54999 0.72939,0.45079 0.32205,0.88801 -0.61736,0.66265 -1.32284,-0.31735 -1.35344,-0.37846 -0.60414,-1.20642 0.81925,-0.90526 0.92077,-4.03429 0.1761,-5.42782 -1.36294,-2.55054 -5.92324,-3.56414 -9.26394,-2.05906 -3.005057,1.35386 -3.646125,3.46727 -2.170452,7.15534 0.743254,1.85758 3.148221,3.52114 5.090422,3.52114 0.76709,0 1.98944,0.32479 2.71634,0.72175 1.45455,0.79433 3.64115,0.70588 5.43099,-0.21968 z m -4.8149,0.0605 c -0.68984,-0.52809 -0.68537,-0.54037 0.20096,-0.55134 0.52471,-0.006 1.24011,-0.39488 1.69855,-0.92214 0.53594,-0.61637 0.98427,-0.83184 1.38654,-0.66636 1.23116,0.50644 1.65555,0.36703 1.55806,-0.51183 -0.0927,-0.83548 -0.079,-0.84012 0.61736,-0.2099 0.99425,0.89979 0.89229,1.42539 -0.43439,2.23927 -1.62838,0.99896 -4.13046,1.3087 -5.02708,0.6223 z m -4.938892,-1.44521 c -1.699419,-0.60084 -3.351389,-2.33397 -3.351389,-3.51603 0,-0.47289 -0.180972,-1.25698 -0.40216,-1.74243 -0.30758,-0.67506 -0.296199,-1.13847 0.04838,-1.97036 0.442588,-1.0685 1.630267,-2.01852 2.027227,-1.62156 0.111051,0.11105 0.405412,0.033 0.654141,-0.17341 0.248726,-0.20642 1.638032,-0.465 3.087353,-0.57461 l 2.63511,-0.19929 0.73327,1.43732 0.73327,1.43732 -0.83267,0.65497 c -0.65215,0.51298 -1.31537,0.6327 -3.05908,0.5522 -2.394858,-0.11055 -3.67996,-0.87211 -3.970511,-2.35295 -0.121479,-0.61913 -0.155515,-0.58826 -0.195182,0.17704 -0.02642,0.50982 0.190084,1.12457 0.481126,1.36611 0.291041,0.24154 0.529166,0.63061 0.529166,0.86459 0,0.30407 0.872116,0.40778 3.057451,0.3636 2.73182,-0.0552 3.12798,-0.14891 3.7196,-0.87953 0.36418,-0.44975 0.57583,-1.02968 0.47033,-1.28875 -0.1055,-0.25906 -0.2965,-0.73081 -0.42443,-1.04832 -0.35325,-0.87674 0.59248,-0.42941 1.41156,0.66766 1.10875,1.48506 0.98198,3.76716 -0.31174,5.61167 -1.23871,1.76609 -2.43155,2.14819 -3.21489,1.02982 -0.98818,-1.41082 -2.43712,-0.68864 -1.99677,0.99523 0.22511,0.86083 0.0646,0.87924 -1.829166,0.20971 z m 5.361712,-6.75739 c 0.12336,-0.32147 -0.006,-0.99616 -0.28689,-1.49931 -0.61577,-1.10199 -2.5672,-1.37849 -4.705175,-0.6667 -1.677546,0.55851 -1.885371,1.05011 -0.851231,2.01356 1.052586,0.98063 5.481156,1.09617 5.843296,0.15245 z"
       id="path1925" /><path
       style="fill:none;fill-opacity:1;stroke:#181b3e;stroke-width:1.153;stroke-linecap:square;stroke-dasharray:none;stroke-opacity:1"
       d="m 66.087349,171.00525 c 0,0 -35.0014,-36.44906 9.13922,-72.891267"
       id="path5058"
       sodipodi:nodetypes="cc" /><path
       style="fill:none;fill-opacity:1;stroke:#181b3e;stroke-width:1.153;stroke-linecap:square;stroke-dasharray:none;stroke-opacity:1"
       d="m 138.00506,170.68753 c 10.57294,-8.98715 25.53411,-48.50904 -8.90701,-72.338795"
       id="path5060"
       sodipodi:nodetypes="cc" /></g></svg>
