<?xml version="1.0" encoding="UTF-8" standalone="no"?>
<!-- Created with Inkscape (http://www.inkscape.org/) -->

<svg
   width="400"
   height="120"
   viewBox="0 0 105.83333 31.74999"
   version="1.1"
   id="svg12483"
   sodipodi:docname="month.svg"
   inkscape:version="1.2.2 (b0a8486541, 2022-12-01)"
   xmlns:inkscape="http://www.inkscape.org/namespaces/inkscape"
   xmlns:sodipodi="http://sodipodi.sourceforge.net/DTD/sodipodi-0.dtd"
   xmlns:xlink="http://www.w3.org/1999/xlink"
   xmlns="http://www.w3.org/2000/svg"
   xmlns:svg="http://www.w3.org/2000/svg">
  <sodipodi:namedview
     id="namedview12485"
     pagecolor="#505050"
     bordercolor="#ffffff"
     borderopacity="1"
     inkscape:showpageshadow="0"
     inkscape:pageopacity="0"
     inkscape:pagecheckerboard="1"
     inkscape:deskcolor="#505050"
     inkscape:document-units="mm"
     showgrid="false"
     inkscape:zoom="1.9779745"
     inkscape:cx="247.2226"
     inkscape:cy="132.71152"
     inkscape:window-width="1920"
     inkscape:window-height="1011"
     inkscape:window-x="0"
     inkscape:window-y="0"
     inkscape:window-maximized="1"
     inkscape:current-layer="layer1" />
  <defs
     id="defs12480">
    <linearGradient
       inkscape:collect="always"
       id="linearGradient6599">
      <stop
         style="stop-color:#349970;stop-opacity:1;"
         offset="0"
         id="stop6595" />
      <stop
         style="stop-color:#025e4e;stop-opacity:0.47450981;"
         offset="1"
         id="stop6597" />
    </linearGradient>
    <inkscape:path-effect
       effect="powerclip"
       id="path-effect14009"
       is_visible="true"
       lpeversion="1"
       inverse="true"
       flatten="false"
       hide_clip="false"
       message="Use fill-rule evenodd on &lt;b&gt;fill and stroke&lt;/b&gt; dialog if no flatten result after convert clip to paths." />
    <inkscape:path-effect
       effect="powerclip"
       id="path-effect13972"
       is_visible="true"
       lpeversion="1"
       inverse="true"
       flatten="false"
       hide_clip="false"
       message="Use fill-rule evenodd on &lt;b&gt;fill and stroke&lt;/b&gt; dialog if no flatten result after convert clip to paths." />
    <linearGradient
       inkscape:collect="always"
       id="linearGradient4214">
      <stop
         style="stop-color:#349970;stop-opacity:1;"
         offset="0"
         id="stop4210" />
      <stop
         style="stop-color:#025e4e;stop-opacity:0.47450981;"
         offset="1"
         id="stop4212" />
    </linearGradient>
    <clipPath
       clipPathUnits="userSpaceOnUse"
       id="clipath_lpe_path-effect1131">
      <g
         id="g1157"
         style="display:block">
        <path
           style="fill:#131313;fill-opacity:0.255223;stroke-width:1.04797;stroke-linecap:round"
           d="m 26.407998,170.74605 c 0.28519,-2.35087 2.31894,-1.86489 3.303931,-0.8266 4.112902,5.24012 -3.98482,10.67864 -8.985593,5.0348 -3.56208,-4.02014 -3.2521,-12.13697 5.294234,-14.81642 -12.533681,7.02408 -3.754689,19.28269 1.654557,15.40087 4.334946,-3.56963 0.223885,-6.07349 -1.267129,-4.79265 z"
           id="path1133"
           sodipodi:nodetypes="ccsccc"
           clip-path="none" />
        <path
           style="fill:#131313;fill-opacity:0.255223;stroke-width:1.04797;stroke-linecap:round"
           d="m 111.16813,125.13391 c 1.50852,-0.37768 0.0537,-2.34025 -0.3914,-2.68222 -4.32914,-4.11811 -10.32795,7.10203 -0.2864,9.40219 8.40135,1.92444 17.55579,-13.11909 2.74613,-20.19393 10.91776,7.75329 6.18248,16.73536 0.87182,18.78887 -3.62655,1.4023 -7.63523,-1.51703 -7.59816,-4.07678 0.2852,-5.60827 5.93887,-2.72914 4.65801,-1.23813 z"
           id="path1135"
           sodipodi:nodetypes="ccscscc"
           clip-path="none" />
        <path
           style="fill:#131313;fill-opacity:0.255223;stroke-width:1.04797;stroke-linecap:round"
           d="m 13.757698,171.08624 c 0.93049,-0.0637 -0.282365,5.52187 -5.2390261,3.34802 -2.2028448,-1.3125 -0.1510387,-4.64384 0.9374369,-3.32064 -1.5264176,0.89882 -0.4328581,1.92149 0.1968225,2.32593 3.1419807,1.26164 4.1047667,-2.35331 4.1047667,-2.35331 z"
           id="path1137"
           sodipodi:nodetypes="ccccc"
           clip-path="none" />
        <path
           style="fill:#131313;fill-opacity:0.255223;stroke-width:1.04797;stroke-linecap:round"
           d="m 79.646725,155.58344 c -1.117485,1.88987 1.691752,7.53762 5.693296,4.60738 2.271563,-2.00092 -0.631005,-4.60607 -1.210136,-3.90569 1.426621,1.695 0.396569,2.93244 0.09832,3.10854 -3.14198,1.26164 -4.436816,-2.49478 -4.581482,-3.81023 z"
           id="path1139"
           sodipodi:nodetypes="ccccc"
           clip-path="none" />
        <path
           style="fill:#131313;fill-opacity:0.255223;stroke-width:1.04797;stroke-linecap:round"
           d="m 78.846569,124.72798 c 1.50851,0.37768 2.831166,3.04736 -0.354559,5.03489 -6.472632,3.50165 -12.336098,-7.78065 -4.162616,-13.39336 3.084294,-2.11796 15.535407,-6.47755 19.311288,11.48345 -4.95511,-12.44016 -9.041573,-11.74962 -14.111858,-11.83886 -4.126129,-0.0726 -8.311492,3.95984 -7.567571,8.88759 0.277365,5.16301 9.530444,5.26946 6.885316,-0.17371 z"
           id="path1141"
           sodipodi:nodetypes="ccscscc"
           clip-path="none" />
        <path
           style="fill:#131313;fill-opacity:0.255223;stroke-width:1.04797;stroke-linecap:round"
           d="m 23.517163,144.17036 c -0.764151,1.48675 -0.234995,2.74398 1.660759,2.89668 2.076115,0.10184 2.988379,-0.81111 2.822407,-2.195 -0.622663,1.05331 -1.452742,1.08463 -2.171583,1.1763 -1.900406,0.0161 -1.970463,-0.76624 -2.311583,-1.87798 z"
           id="path1143"
           sodipodi:nodetypes="ccccc"
           clip-path="none" />
        <path
           style="fill:#131313;fill-opacity:0.255223;stroke-width:1.04797;stroke-linecap:round"
           d="m 39.215596,144.94893 c -0.28519,2.35087 -2.739428,1.03565 -3.724419,-0.003 -2.702375,-3.47536 0.791609,-7.38939 3.284353,-7.89798 2.930848,-0.59797 5.434616,-0.13413 7.416748,3.61165 -2.450762,-1.82353 -4.03226,-4.32118 -8.294459,-2.1177 -4.334946,3.56963 -0.173237,7.68753 1.317777,6.40668 z"
           id="path1145"
           sodipodi:nodetypes="ccsccc"
           clip-path="none" />
        <path
           style="fill:#131313;fill-opacity:0.255223;stroke-width:1.04797;stroke-linecap:round"
           d="m 63.717619,157.35358 c -0.377678,-1.50852 -5.331074,0.28215 -2.972107,4.31672 1.597876,3.05612 6.519891,5.63436 11.52822,1.82613 3.455639,-2.6276 6.181777,-9.94594 -0.738023,-15.43625 5.065198,7.13949 3.480613,10.40602 1.841705,12.89824 -1.731331,2.63275 -6.648467,3.95041 -8.793314,2.52434 -3.702178,-1.39216 -4.53196,-5.69836 -0.866481,-6.12918 z"
           id="path1147"
           sodipodi:nodetypes="ccscscc"
           clip-path="none" />
        <path
           style="fill:#131313;fill-opacity:0.255223;stroke-width:1.04797;stroke-linecap:round"
           d="m 113.41671,134.32687 c -12.36956,1.41806 -6.68408,11.93627 -2.18307,9.13013 2.27157,-2.00092 0.46614,-3.75787 -0.11299,-3.05748 1.42662,1.69499 -2.12772,2.67311 -3.22691,1.27763 -0.77282,-1.13708 -2.63035,-6.00337 5.52297,-7.35028 z"
           id="path1149"
           sodipodi:nodetypes="ccccc"
           clip-path="none" />
        <path
           style="fill:#131313;fill-opacity:0.255223;stroke-width:1.04797;stroke-linecap:round"
           d="m 132.30735,115.87192 c 10.58358,-3.63727 2.41613,-14.73418 -2.94171,-11.04493 -2.27156,2.00091 -0.46613,3.75786 0.11299,3.05748 -1.42662,-1.695 3.28708,-3.83937 5.82034,-0.30409 0.52935,0.86046 2.82469,4.56478 -2.99162,8.29154 z"
           id="path1151"
           sodipodi:nodetypes="ccccc"
           clip-path="none" />
        <path
           style="fill:#131313;fill-opacity:0.255223;stroke-width:1.04797;stroke-linecap:round"
           d="m 138.66676,115.26925 c 6.64821,-9.0024 10.63552,-11.27436 14.38294,-8.07586 2.50403,2.44008 0.0649,5.15288 -0.36011,4.40769 -0.0227,-0.93918 0.35524,-4.67032 -3.21154,-4.03923 -4.05351,1.04268 -5.33124,3.13003 -10.81129,7.7074 z"
           id="path1153"
           sodipodi:nodetypes="ccccc"
           clip-path="none" />
        <path
           style="fill:#131313;fill-opacity:0.255223;stroke-width:1.04797;stroke-linecap:round"
           d="m 159.85273,105.35986 c 1.89256,0.6628 3.40775,0.61431 4.46815,-1.40619 0.68552,-1.74992 -1.33428,-3.68127 -2.42275,-2.35807 1.81017,0.55207 1.4347,1.87384 1.05832,2.50914 -1.07435,1.3156 -2.31788,1.00573 -3.10372,1.25512 z"
           id="path1155"
           sodipodi:nodetypes="ccccc" />
      </g>
    </clipPath>
    <inkscape:path-effect
       effect="powerclip"
       id="path-effect1131"
       is_visible="true"
       lpeversion="1"
       inverse="true"
       flatten="false"
       hide_clip="false"
       message="Use fill-rule evenodd on &lt;b&gt;fill and stroke&lt;/b&gt; dialog if no flatten result after convert clip to paths." />
    <linearGradient
       inkscape:collect="always"
       xlink:href="#linearGradient8840"
       id="linearGradient8842"
       x1="34.869732"
       y1="39.463615"
       x2="186.06294"
       y2="39.463615"
       gradientUnits="userSpaceOnUse"
       gradientTransform="matrix(0.50488472,0,0,0.53952563,-13.135961,-6.0591449)" />
    <linearGradient
       inkscape:collect="always"
       id="linearGradient8840">
      <stop
         style="stop-color:#1fbb9a;stop-opacity:0.4627451;"
         offset="0"
         id="stop8838" />
      <stop
         style="stop-color:#025e4e;stop-opacity:0.79607844;"
         offset="1"
         id="stop8836" />
    </linearGradient>
    <clipPath
       clipPathUnits="userSpaceOnUse"
       id="clipath_lpe_path-effect13972">
      <g
         id="g13998"
         style="display:none">
        <path
           style="fill:#131313;fill-opacity:0.255223;stroke-width:1.04797;stroke-linecap:round"
           d="m 26.407998,170.74605 c 0.28519,-2.35087 2.31894,-1.86489 3.303931,-0.8266 4.112902,5.24012 -3.98482,10.67864 -8.985593,5.0348 -3.56208,-4.02014 -3.2521,-12.13697 5.294234,-14.81642 -12.533681,7.02408 -3.754689,19.28269 1.654557,15.40087 4.334946,-3.56963 0.223885,-6.07349 -1.267129,-4.79265 z"
           id="path13974"
           sodipodi:nodetypes="ccsccc"
           clip-path="none" />
        <path
           style="fill:#131313;fill-opacity:0.255223;stroke-width:1.04797;stroke-linecap:round"
           d="m 111.16813,125.13391 c 1.50852,-0.37768 0.0537,-2.34025 -0.3914,-2.68222 -4.32914,-4.11811 -10.32795,7.10203 -0.2864,9.40219 8.40135,1.92444 17.55579,-13.11909 2.74613,-20.19393 10.91776,7.75329 6.18248,16.73536 0.87182,18.78887 -3.62655,1.4023 -7.63523,-1.51703 -7.59816,-4.07678 0.2852,-5.60827 5.93887,-2.72914 4.65801,-1.23813 z"
           id="path13976"
           sodipodi:nodetypes="ccscscc"
           clip-path="none" />
        <path
           style="fill:#131313;fill-opacity:0.255223;stroke-width:1.04797;stroke-linecap:round"
           d="m 13.757698,171.08624 c 0.93049,-0.0637 -0.282365,5.52187 -5.2390261,3.34802 -2.2028448,-1.3125 -0.1510387,-4.64384 0.9374369,-3.32064 -1.5264176,0.89882 -0.4328581,1.92149 0.1968225,2.32593 3.1419807,1.26164 4.1047667,-2.35331 4.1047667,-2.35331 z"
           id="path13978"
           sodipodi:nodetypes="ccccc"
           clip-path="none" />
        <path
           style="fill:#131313;fill-opacity:0.255223;stroke-width:1.04797;stroke-linecap:round"
           d="m 79.646725,155.58344 c -1.117485,1.88987 1.691752,7.53762 5.693296,4.60738 2.271563,-2.00092 -0.631005,-4.60607 -1.210136,-3.90569 1.426621,1.695 0.396569,2.93244 0.09832,3.10854 -3.14198,1.26164 -4.436816,-2.49478 -4.581482,-3.81023 z"
           id="path13980"
           sodipodi:nodetypes="ccccc"
           clip-path="none" />
        <path
           style="fill:#131313;fill-opacity:0.255223;stroke-width:1.04797;stroke-linecap:round"
           d="m 78.846569,124.72798 c 1.50851,0.37768 2.831166,3.04736 -0.354559,5.03489 -6.472632,3.50165 -12.336098,-7.78065 -4.162616,-13.39336 3.084294,-2.11796 15.535407,-6.47755 19.311288,11.48345 -4.95511,-12.44016 -9.041573,-11.74962 -14.111858,-11.83886 -4.126129,-0.0726 -8.311492,3.95984 -7.567571,8.88759 0.277365,5.16301 9.530444,5.26946 6.885316,-0.17371 z"
           id="path13982"
           sodipodi:nodetypes="ccscscc"
           clip-path="none" />
        <path
           style="fill:#131313;fill-opacity:0.255223;stroke-width:1.04797;stroke-linecap:round"
           d="m 23.517163,144.17036 c -0.764151,1.48675 -0.234995,2.74398 1.660759,2.89668 2.076115,0.10184 2.988379,-0.81111 2.822407,-2.195 -0.622663,1.05331 -1.452742,1.08463 -2.171583,1.1763 -1.900406,0.0161 -1.970463,-0.76624 -2.311583,-1.87798 z"
           id="path13984"
           sodipodi:nodetypes="ccccc"
           clip-path="none" />
        <path
           style="fill:#131313;fill-opacity:0.255223;stroke-width:1.04797;stroke-linecap:round"
           d="m 39.215596,144.94893 c -0.28519,2.35087 -2.739428,1.03565 -3.724419,-0.003 -2.702375,-3.47536 0.791609,-7.38939 3.284353,-7.89798 2.930848,-0.59797 5.434616,-0.13413 7.416748,3.61165 -2.450762,-1.82353 -4.03226,-4.32118 -8.294459,-2.1177 -4.334946,3.56963 -0.173237,7.68753 1.317777,6.40668 z"
           id="path13986"
           sodipodi:nodetypes="ccsccc"
           clip-path="none" />
        <path
           style="fill:#131313;fill-opacity:0.255223;stroke-width:1.04797;stroke-linecap:round"
           d="m 63.717619,157.35358 c -0.377678,-1.50852 -5.331074,0.28215 -2.972107,4.31672 1.597876,3.05612 6.519891,5.63436 11.52822,1.82613 3.455639,-2.6276 6.181777,-9.94594 -0.738023,-15.43625 5.065198,7.13949 3.480613,10.40602 1.841705,12.89824 -1.731331,2.63275 -6.648467,3.95041 -8.793314,2.52434 -3.702178,-1.39216 -4.53196,-5.69836 -0.866481,-6.12918 z"
           id="path13988"
           sodipodi:nodetypes="ccscscc"
           clip-path="none" />
        <path
           style="fill:#131313;fill-opacity:0.255223;stroke-width:1.04797;stroke-linecap:round"
           d="m 113.41671,134.32687 c -12.36956,1.41806 -6.68408,11.93627 -2.18307,9.13013 2.27157,-2.00092 0.46614,-3.75787 -0.11299,-3.05748 1.42662,1.69499 -2.12772,2.67311 -3.22691,1.27763 -0.77282,-1.13708 -2.63035,-6.00337 5.52297,-7.35028 z"
           id="path13990"
           sodipodi:nodetypes="ccccc"
           clip-path="none" />
        <path
           style="fill:#131313;fill-opacity:0.255223;stroke-width:1.04797;stroke-linecap:round"
           d="m 132.30735,115.87192 c 10.58358,-3.63727 2.41613,-14.73418 -2.94171,-11.04493 -2.27156,2.00091 -0.46613,3.75786 0.11299,3.05748 -1.42662,-1.695 3.28708,-3.83937 5.82034,-0.30409 0.52935,0.86046 2.82469,4.56478 -2.99162,8.29154 z"
           id="path13992"
           sodipodi:nodetypes="ccccc"
           clip-path="none" />
        <path
           style="fill:#131313;fill-opacity:0.255223;stroke-width:1.04797;stroke-linecap:round"
           d="m 138.66676,115.26925 c 6.64821,-9.0024 10.63552,-11.27436 14.38294,-8.07586 2.50403,2.44008 0.0649,5.15288 -0.36011,4.40769 -0.0227,-0.93918 0.35524,-4.67032 -3.21154,-4.03923 -4.05351,1.04268 -5.33124,3.13003 -10.81129,7.7074 z"
           id="path13994"
           sodipodi:nodetypes="ccccc"
           clip-path="none" />
        <path
           style="fill:#131313;fill-opacity:0.255223;stroke-width:1.04797;stroke-linecap:round"
           d="m 159.85273,105.35986 c 1.89256,0.6628 3.40775,0.61431 4.46815,-1.40619 0.68552,-1.74992 -1.33428,-3.68127 -2.42275,-2.35807 1.81017,0.55207 1.4347,1.87384 1.05832,2.50914 -1.07435,1.3156 -2.31788,1.00573 -3.10372,1.25512 z"
           id="path13996"
           sodipodi:nodetypes="ccccc" />
      </g>
      <path
         id="lpe_path-effect13972"
         class="powerclip"
         d="M 0.22698353,94.617449 H 171.23 V 191.45559 H 0.22698353 Z M 26.407998,170.74605 c 1.491014,-1.28084 5.602075,1.22302 1.267129,4.79265 -5.409246,3.88182 -14.188238,-8.37679 -1.654557,-15.40087 -8.546334,2.67945 -8.856314,10.79628 -5.294234,14.81642 5.000773,5.64384 13.098495,0.20532 8.985593,-5.0348 -0.984991,-1.03829 -3.018741,-1.52427 -3.303931,0.8266 z m 84.760132,-45.61214 c 1.50852,-0.37768 0.0537,-2.34025 -0.3914,-2.68222 -4.32914,-4.11811 -10.32795,7.10203 -0.2864,9.40219 8.40135,1.92444 17.55579,-13.11909 2.74613,-20.19393 10.91776,7.75329 6.18248,16.73536 0.87182,18.78887 -3.62655,1.4023 -7.63523,-1.51703 -7.59816,-4.07678 0.2852,-5.60827 5.93887,-2.72914 4.65801,-1.23813 z m -97.410432,45.95233 c 0,0 -0.962786,3.61495 -4.1047667,2.35331 -0.6296806,-0.40444 -1.7232401,-1.42711 -0.1968225,-2.32593 -1.0884756,-1.3232 -3.1402817,2.00814 -0.9374369,3.32064 4.9566611,2.17385 6.1695161,-3.41172 5.2390261,-3.34802 z m 65.889027,-15.5028 c -1.117485,1.88987 1.691752,7.53762 5.693296,4.60738 2.271563,-2.00092 -0.631005,-4.60607 -1.210136,-3.90569 1.426621,1.695 0.396569,2.93244 0.09832,3.10854 -3.14198,1.26164 -4.436816,-2.49478 -4.581482,-3.81023 z m -0.800156,-30.85546 c 2.645128,5.44317 -6.607951,5.33672 -6.885316,0.17371 -0.743921,-4.92775 3.441442,-8.96019 7.567571,-8.88759 5.070285,0.0892 9.156748,-0.6013 14.111858,11.83886 -3.775881,-17.961 -16.226994,-13.60141 -19.311288,-11.48345 -8.173482,5.61271 -2.310016,16.89501 4.162616,13.39336 3.185725,-1.98753 1.863069,-4.65721 0.354559,-5.03489 z m -55.329406,19.44238 c -0.764151,1.48675 -0.234995,2.74398 1.660759,2.89668 2.076115,0.10184 2.988379,-0.81111 2.822407,-2.195 -0.622663,1.05331 -1.452742,1.08463 -2.171583,1.1763 -1.900406,0.0161 -1.970463,-0.76624 -2.311583,-1.87798 z m 15.698433,0.77857 v -3.5e-4 c -1.491014,1.28085 -5.652723,-2.83705 -1.317777,-6.40668 4.262199,-2.20348 5.843697,0.29417 8.294459,2.1177 -1.982132,-3.74578 -4.4859,-4.20962 -7.416748,-3.61165 -2.492744,0.50859 -5.986728,4.42262 -3.284353,7.89798 0.984991,1.03865 3.439229,2.35387 3.724419,0.003 z m 24.502023,12.40465 c -0.377678,-1.50852 -5.331074,0.28215 -2.972107,4.31672 1.597876,3.05612 6.519891,5.63436 11.52822,1.82613 3.455639,-2.6276 6.181777,-9.94594 -0.738023,-15.43625 5.065198,7.13949 3.480613,10.40602 1.841705,12.89824 -1.731331,2.63275 -6.648467,3.95041 -8.793314,2.52434 -3.702178,-1.39216 -4.53196,-5.69836 -0.866481,-6.12918 z m 49.699091,-23.02671 c -12.36956,1.41806 -6.68408,11.93627 -2.18307,9.13013 2.27157,-2.00092 0.46614,-3.75787 -0.11299,-3.05748 1.42662,1.69499 -2.12772,2.67311 -3.22691,1.27763 -0.77282,-1.13708 -2.63035,-6.00337 5.52297,-7.35028 z m 18.89064,-18.45495 c 10.58358,-3.63727 2.41613,-14.73418 -2.94171,-11.04493 -2.27156,2.00091 -0.46613,3.75786 0.11299,3.05748 -1.42662,-1.695 3.28708,-3.83937 5.82034,-0.30409 0.52935,0.86046 2.82469,4.56478 -2.99162,8.29154 z m 6.35941,-0.60267 c 5.48005,-4.57737 6.75778,-6.66472 10.81129,-7.7074 3.56678,-0.63109 3.18884,3.10005 3.21154,4.03923 0.42501,0.74519 2.86414,-1.96761 0.36011,-4.40769 -3.74742,-3.1985 -7.73473,-0.92654 -14.38294,8.07586 z m 21.18597,-9.90939 c 1.89256,0.6628 3.40775,0.61431 4.46815,-1.40619 0.68552,-1.74992 -1.33428,-3.68127 -2.42275,-2.35807 1.81017,0.55207 1.4347,1.87384 1.05832,2.50914 -1.07435,1.3156 -2.31788,1.00573 -3.10372,1.25512 z" />
    </clipPath>
    <linearGradient
       inkscape:collect="always"
       xlink:href="#linearGradient4214"
       id="linearGradient14003"
       gradientUnits="userSpaceOnUse"
       x1="5.2269835"
       y1="143.03651"
       x2="166.23"
       y2="143.03651" />
    <clipPath
       clipPathUnits="userSpaceOnUse"
       id="clipath_lpe_path-effect14009">
      <g
         id="g14035"
         style="display:none">
        <path
           style="fill:#131313;fill-opacity:0.255223;stroke-width:1.04797;stroke-linecap:round"
           d="m 26.407998,170.74605 c 0.28519,-2.35087 2.31894,-1.86489 3.303931,-0.8266 4.112902,5.24012 -3.98482,10.67864 -8.985593,5.0348 -3.56208,-4.02014 -3.2521,-12.13697 5.294234,-14.81642 -12.533681,7.02408 -3.754689,19.28269 1.654557,15.40087 4.334946,-3.56963 0.223885,-6.07349 -1.267129,-4.79265 z"
           id="path14011"
           sodipodi:nodetypes="ccsccc"
           clip-path="none" />
        <path
           style="fill:#131313;fill-opacity:0.255223;stroke-width:1.04797;stroke-linecap:round"
           d="m 111.16813,125.13391 c 1.50852,-0.37768 0.0537,-2.34025 -0.3914,-2.68222 -4.32914,-4.11811 -10.32795,7.10203 -0.2864,9.40219 8.40135,1.92444 17.55579,-13.11909 2.74613,-20.19393 10.91776,7.75329 6.18248,16.73536 0.87182,18.78887 -3.62655,1.4023 -7.63523,-1.51703 -7.59816,-4.07678 0.2852,-5.60827 5.93887,-2.72914 4.65801,-1.23813 z"
           id="path14013"
           sodipodi:nodetypes="ccscscc"
           clip-path="none" />
        <path
           style="fill:#131313;fill-opacity:0.255223;stroke-width:1.04797;stroke-linecap:round"
           d="m 13.757698,171.08624 c 0.93049,-0.0637 -0.282365,5.52187 -5.2390261,3.34802 -2.2028448,-1.3125 -0.1510387,-4.64384 0.9374369,-3.32064 -1.5264176,0.89882 -0.4328581,1.92149 0.1968225,2.32593 3.1419807,1.26164 4.1047667,-2.35331 4.1047667,-2.35331 z"
           id="path14015"
           sodipodi:nodetypes="ccccc"
           clip-path="none" />
        <path
           style="fill:#131313;fill-opacity:0.255223;stroke-width:1.04797;stroke-linecap:round"
           d="m 79.646725,155.58344 c -1.117485,1.88987 1.691752,7.53762 5.693296,4.60738 2.271563,-2.00092 -0.631005,-4.60607 -1.210136,-3.90569 1.426621,1.695 0.396569,2.93244 0.09832,3.10854 -3.14198,1.26164 -4.436816,-2.49478 -4.581482,-3.81023 z"
           id="path14017"
           sodipodi:nodetypes="ccccc"
           clip-path="none" />
        <path
           style="fill:#131313;fill-opacity:0.255223;stroke-width:1.04797;stroke-linecap:round"
           d="m 78.846569,124.72798 c 1.50851,0.37768 2.831166,3.04736 -0.354559,5.03489 -6.472632,3.50165 -12.336098,-7.78065 -4.162616,-13.39336 3.084294,-2.11796 15.535407,-6.47755 19.311288,11.48345 -4.95511,-12.44016 -9.041573,-11.74962 -14.111858,-11.83886 -4.126129,-0.0726 -8.311492,3.95984 -7.567571,8.88759 0.277365,5.16301 9.530444,5.26946 6.885316,-0.17371 z"
           id="path14019"
           sodipodi:nodetypes="ccscscc"
           clip-path="none" />
        <path
           style="fill:#131313;fill-opacity:0.255223;stroke-width:1.04797;stroke-linecap:round"
           d="m 23.517163,144.17036 c -0.764151,1.48675 -0.234995,2.74398 1.660759,2.89668 2.076115,0.10184 2.988379,-0.81111 2.822407,-2.195 -0.622663,1.05331 -1.452742,1.08463 -2.171583,1.1763 -1.900406,0.0161 -1.970463,-0.76624 -2.311583,-1.87798 z"
           id="path14021"
           sodipodi:nodetypes="ccccc"
           clip-path="none" />
        <path
           style="fill:#131313;fill-opacity:0.255223;stroke-width:1.04797;stroke-linecap:round"
           d="m 39.215596,144.94893 c -0.28519,2.35087 -2.739428,1.03565 -3.724419,-0.003 -2.702375,-3.47536 0.791609,-7.38939 3.284353,-7.89798 2.930848,-0.59797 5.434616,-0.13413 7.416748,3.61165 -2.450762,-1.82353 -4.03226,-4.32118 -8.294459,-2.1177 -4.334946,3.56963 -0.173237,7.68753 1.317777,6.40668 z"
           id="path14023"
           sodipodi:nodetypes="ccsccc"
           clip-path="none" />
        <path
           style="fill:#131313;fill-opacity:0.255223;stroke-width:1.04797;stroke-linecap:round"
           d="m 63.717619,157.35358 c -0.377678,-1.50852 -5.331074,0.28215 -2.972107,4.31672 1.597876,3.05612 6.519891,5.63436 11.52822,1.82613 3.455639,-2.6276 6.181777,-9.94594 -0.738023,-15.43625 5.065198,7.13949 3.480613,10.40602 1.841705,12.89824 -1.731331,2.63275 -6.648467,3.95041 -8.793314,2.52434 -3.702178,-1.39216 -4.53196,-5.69836 -0.866481,-6.12918 z"
           id="path14025"
           sodipodi:nodetypes="ccscscc"
           clip-path="none" />
        <path
           style="fill:#131313;fill-opacity:0.255223;stroke-width:1.04797;stroke-linecap:round"
           d="m 113.41671,134.32687 c -12.36956,1.41806 -6.68408,11.93627 -2.18307,9.13013 2.27157,-2.00092 0.46614,-3.75787 -0.11299,-3.05748 1.42662,1.69499 -2.12772,2.67311 -3.22691,1.27763 -0.77282,-1.13708 -2.63035,-6.00337 5.52297,-7.35028 z"
           id="path14027"
           sodipodi:nodetypes="ccccc"
           clip-path="none" />
        <path
           style="fill:#131313;fill-opacity:0.255223;stroke-width:1.04797;stroke-linecap:round"
           d="m 132.30735,115.87192 c 10.58358,-3.63727 2.41613,-14.73418 -2.94171,-11.04493 -2.27156,2.00091 -0.46613,3.75786 0.11299,3.05748 -1.42662,-1.695 3.28708,-3.83937 5.82034,-0.30409 0.52935,0.86046 2.82469,4.56478 -2.99162,8.29154 z"
           id="path14029"
           sodipodi:nodetypes="ccccc"
           clip-path="none" />
        <path
           style="fill:#131313;fill-opacity:0.255223;stroke-width:1.04797;stroke-linecap:round"
           d="m 138.66676,115.26925 c 6.64821,-9.0024 10.63552,-11.27436 14.38294,-8.07586 2.50403,2.44008 0.0649,5.15288 -0.36011,4.40769 -0.0227,-0.93918 0.35524,-4.67032 -3.21154,-4.03923 -4.05351,1.04268 -5.33124,3.13003 -10.81129,7.7074 z"
           id="path14031"
           sodipodi:nodetypes="ccccc"
           clip-path="none" />
        <path
           style="fill:#131313;fill-opacity:0.255223;stroke-width:1.04797;stroke-linecap:round"
           d="m 159.85273,105.35986 c 1.89256,0.6628 3.40775,0.61431 4.46815,-1.40619 0.68552,-1.74992 -1.33428,-3.68127 -2.42275,-2.35807 1.81017,0.55207 1.4347,1.87384 1.05832,2.50914 -1.07435,1.3156 -2.31788,1.00573 -3.10372,1.25512 z"
           id="path14033"
           sodipodi:nodetypes="ccccc" />
      </g>
      <path
         id="lpe_path-effect14009"
         class="powerclip"
         d="M 0.22698353,94.617449 H 171.23 V 191.45559 H 0.22698353 Z M 26.407998,170.74605 c 1.491014,-1.28084 5.602075,1.22302 1.267129,4.79265 -5.409246,3.88182 -14.188238,-8.37679 -1.654557,-15.40087 -8.546334,2.67945 -8.856314,10.79628 -5.294234,14.81642 5.000773,5.64384 13.098495,0.20532 8.985593,-5.0348 -0.984991,-1.03829 -3.018741,-1.52427 -3.303931,0.8266 z m 84.760132,-45.61214 c 1.50852,-0.37768 0.0537,-2.34025 -0.3914,-2.68222 -4.32914,-4.11811 -10.32795,7.10203 -0.2864,9.40219 8.40135,1.92444 17.55579,-13.11909 2.74613,-20.19393 10.91776,7.75329 6.18248,16.73536 0.87182,18.78887 -3.62655,1.4023 -7.63523,-1.51703 -7.59816,-4.07678 0.2852,-5.60827 5.93887,-2.72914 4.65801,-1.23813 z m -97.410432,45.95233 c 0,0 -0.962786,3.61495 -4.1047667,2.35331 -0.6296806,-0.40444 -1.7232401,-1.42711 -0.1968225,-2.32593 -1.0884756,-1.3232 -3.1402817,2.00814 -0.9374369,3.32064 4.9566611,2.17385 6.1695161,-3.41172 5.2390261,-3.34802 z m 65.889027,-15.5028 c -1.117485,1.88987 1.691752,7.53762 5.693296,4.60738 2.271563,-2.00092 -0.631005,-4.60607 -1.210136,-3.90569 1.426621,1.695 0.396569,2.93244 0.09832,3.10854 -3.14198,1.26164 -4.436816,-2.49478 -4.581482,-3.81023 z m -0.800156,-30.85546 c 2.645128,5.44317 -6.607951,5.33672 -6.885316,0.17371 -0.743921,-4.92775 3.441442,-8.96019 7.567571,-8.88759 5.070285,0.0892 9.156748,-0.6013 14.111858,11.83886 -3.775881,-17.961 -16.226994,-13.60141 -19.311288,-11.48345 -8.173482,5.61271 -2.310016,16.89501 4.162616,13.39336 3.185725,-1.98753 1.863069,-4.65721 0.354559,-5.03489 z m -55.329406,19.44238 c -0.764151,1.48675 -0.234995,2.74398 1.660759,2.89668 2.076115,0.10184 2.988379,-0.81111 2.822407,-2.195 -0.622663,1.05331 -1.452742,1.08463 -2.171583,1.1763 -1.900406,0.0161 -1.970463,-0.76624 -2.311583,-1.87798 z m 15.698433,0.77857 v -3.5e-4 c -1.491014,1.28085 -5.652723,-2.83705 -1.317777,-6.40668 4.262199,-2.20348 5.843697,0.29417 8.294459,2.1177 -1.982132,-3.74578 -4.4859,-4.20962 -7.416748,-3.61165 -2.492744,0.50859 -5.986728,4.42262 -3.284353,7.89798 0.984991,1.03865 3.439229,2.35387 3.724419,0.003 z m 24.502023,12.40465 c -0.377678,-1.50852 -5.331074,0.28215 -2.972107,4.31672 1.597876,3.05612 6.519891,5.63436 11.52822,1.82613 3.455639,-2.6276 6.181777,-9.94594 -0.738023,-15.43625 5.065198,7.13949 3.480613,10.40602 1.841705,12.89824 -1.731331,2.63275 -6.648467,3.95041 -8.793314,2.52434 -3.702178,-1.39216 -4.53196,-5.69836 -0.866481,-6.12918 z m 49.699091,-23.02671 c -12.36956,1.41806 -6.68408,11.93627 -2.18307,9.13013 2.27157,-2.00092 0.46614,-3.75787 -0.11299,-3.05748 1.42662,1.69499 -2.12772,2.67311 -3.22691,1.27763 -0.77282,-1.13708 -2.63035,-6.00337 5.52297,-7.35028 z m 18.89064,-18.45495 c 10.58358,-3.63727 2.41613,-14.73418 -2.94171,-11.04493 -2.27156,2.00091 -0.46613,3.75786 0.11299,3.05748 -1.42662,-1.695 3.28708,-3.83937 5.82034,-0.30409 0.52935,0.86046 2.82469,4.56478 -2.99162,8.29154 z m 6.35941,-0.60267 c 5.48005,-4.57737 6.75778,-6.66472 10.81129,-7.7074 3.56678,-0.63109 3.18884,3.10005 3.21154,4.03923 0.42501,0.74519 2.86414,-1.96761 0.36011,-4.40769 -3.74742,-3.1985 -7.73473,-0.92654 -14.38294,8.07586 z m 21.18597,-9.90939 c 1.89256,0.6628 3.40775,0.61431 4.46815,-1.40619 0.68552,-1.74992 -1.33428,-3.68127 -2.42275,-2.35807 1.81017,0.55207 1.4347,1.87384 1.05832,2.50914 -1.07435,1.3156 -2.31788,1.00573 -3.10372,1.25512 z" />
    </clipPath>
    <linearGradient
       inkscape:collect="always"
       xlink:href="#linearGradient6599"
       id="linearGradient14040"
       gradientUnits="userSpaceOnUse"
       x1="5.2269835"
       y1="143.03651"
       x2="166.23"
       y2="143.03651" />
  </defs>
  <g
     inkscape:label="Layer 1"
     inkscape:groupmode="layer"
     id="layer1">
    <path
       style="fill:none;fill-opacity:0.588235;stroke:url(#linearGradient8842);stroke-width:0.419461;stroke-linecap:round;stroke-dasharray:none;stroke-opacity:0.47451"
       d="M 4.5538023,15.232487 H 80.719803"
       id="path8834" />
    <path
       style="fill:url(#linearGradient14003);fill-opacity:1;stroke-width:1.04797;stroke-linecap:round"
       d="m 74.691381,183.42693 c -3.371605,5.29738 -16.270049,3.22952 -25.04424,-2.97941 -4.064555,-2.89658 -5.609651,-7.29787 -10.507627,-14.08808 -3.787091,-8.70028 -20.750521,-6.9222 -17.184123,5.76697 3.256441,4.58978 6.186638,1.61554 6.062272,1.0264 -0.544592,-2.5798 -1.02101,0.3109 -2.809053,-0.54156 -4.306163,-2.66463 5.52338,-11.67531 9.846303,-2.08115 3.581764,10.37123 -14.589813,16.8124 -17.296224,1.22402 -0.659632,1.4031 -0.130993,2.59906 -0.330464,3.89391 -0.258736,1.67957 -1.399878,3.31388 -4.41044,3.59707 -11.2729204,1.06041 -8.2569742,-10.11007 -3.713515,-9.7359 0.6346158,0.67384 0.5607853,0.12096 0.926646,1.40432 3.068681,1.80003 3.590494,-4.56466 8.530133,-10.95654 3.221596,-4.16875 13.416235,-5.68733 19.892161,-0.62218 0.154834,1.81832 1.126265,3.89275 1.126265,3.89275 -1.092164,-10.04739 7.048204,-16.38012 4.733633,-21.56229 -1.593493,-3.75427 -10.102986,-1.98472 -4.475484,3.10131 1.533102,4.13992 -6.960984,8.22921 -10.267478,1.5811 -0.672158,4.81676 -9.262618,5.59833 -8.249043,-1.2712 0,0 1.396501,-2.28685 2.571785,-1.65187 0.52461,0.83295 4.287286,2.62877 4.685633,-3.69518 0.16639,-14.26383 28.060095,-11.24344 19.961581,4.67539 3.686112,-5.62757 16.654584,-5.41792 22.612627,-2.30974 10.032176,5.23357 17.860724,3.93799 21.114885,-6.7346 2.161861,-9.55002 -10.047381,-24.16267 -17.580869,-14.4731 -2.857503,3.84781 3.526301,8.39998 2.533797,2.89 7.925901,-4.65779 11.360336,6.72002 4.93549,11.0161 -12.008778,8.02988 -19.883563,-2.95842 -19.455421,-9.73062 1.344026,-0.26015 5.211489,-0.24474 4.596076,-2.6118 -7.044324,3.91653 -6.302315,-7.11662 -3.19304,-9.81312 10.245964,-8.88572 24.46484,-6.36201 30.523309,9.19072 0.241608,-1.49339 0.115926,-2.06493 -0.896743,-4.92794 4.353086,-12.75039 16.025827,-13.51946 22.264407,-10.66362 6.80253,3.11402 11.09071,10.19339 16.5632,7.96702 7.29145,-3.78387 -3.94011,-10.56647 -1.21029,-4.44062 -6.2959,4.16866 -9.78938,-1.67877 -6.10245,-7.08533 3.8612,-5.662092 16.84301,-0.49334 12.85944,9.34605 4.95901,-9.5492 10.8623,-9.91453 16.55477,-8.75673 5.18593,1.86246 7.96444,0.35131 6.37587,-0.51485 -3.33153,-0.80783 2.88191,-6.17 4.75124,-0.71924 1.4509,4.89601 -3.83753,8.58533 -9.01585,3.95153 -0.28968,-0.25921 -0.78472,0.0361 -0.59888,0.31991 5.87615,5.52969 -4.69404,11.79915 -6.26402,5.74184 2.15784,-0.51177 0.5927,-5.39936 -4.05277,-1.10833 -4.18539,4.02219 -14.13038,12.41943 -20.23583,6.28048 -0.93857,-1.1613 -1.78672,-2.35978 -3.32697,-3.96752 8.73273,14.92546 -4.3624,23.01029 -10.88157,23.92171 -3.85495,0.58534 -2.14309,4.32125 -0.23372,2.09713 6.24595,1.47386 3.14389,8.03046 -1.92702,9.01656 -4.72552,0.91893 -11.471054,-3.61567 -7.24922,-13.15703 0,0 2.19066,0.60548 3.95689,-0.5379 -6.1501,1.60012 -11.550411,-18.21972 3.86976,-18.20121 4.18443,-0.0748 8.27039,8.8028 1.24259,9.79072 -3.14577,-2.46561 -2.37485,5.26223 3.25645,2.10621 13.69111,-9.13113 -12.68903,-28.16554 -16.884226,-2.51403 0.829923,21.7079 -12.777994,24.19523 -17.776629,23.69029 0,0 -0.09689,-1.86125 -3.747283,-2.82024 3.00841,2.11283 4.628243,6.79184 5.182614,9.49869 0.591671,2.88899 2.38159,1.72682 1.840963,-0.20692 5.905972,-4.30602 9.950241,7.3055 4.018878,11.79634 -2.971166,2.24958 -10.293054,2.44981 -11.274525,-3.48519 0,0 -0.636018,0.0795 -0.403919,3.41931 -0.638497,3.98392 -18.659358,13.54203 -23.116404,-2.62955 -2.550769,-13.86548 16.241928,-14.23119 12.60953,-6.95058 -3.523079,5.29632 11.436805,5.09323 7.980419,-4.76529 -6.480972,-14.73154 -32.584901,-5.94574 -26.7872,14.42107 5.754735,18.40138 24.364566,17.86503 28.522923,15.68554 z"
       id="path13968"
       sodipodi:nodetypes="ccccscccssccscccccccccscccsccsccsccsccccscccccccsccccccccscsccccccc"
       clip-path="url(#clipath_lpe_path-effect13972)"
       inkscape:path-effect="#path-effect13972"
       inkscape:original-d="m 74.691381,183.42693 c -3.371605,5.29738 -16.270049,3.22952 -25.04424,-2.97941 -4.064555,-2.89658 -5.609651,-7.29787 -10.507627,-14.08808 -3.787091,-8.70028 -20.750521,-6.9222 -17.184123,5.76697 3.256441,4.58978 6.186638,1.61554 6.062272,1.0264 -0.544592,-2.5798 -1.02101,0.3109 -2.809053,-0.54156 -4.306163,-2.66463 5.52338,-11.67531 9.846303,-2.08115 3.581764,10.37123 -14.589813,16.8124 -17.296224,1.22402 -0.659632,1.4031 -0.130993,2.59906 -0.330464,3.89391 -0.258736,1.67957 -1.399878,3.31388 -4.41044,3.59707 -11.2729204,1.06041 -8.2569742,-10.11007 -3.713515,-9.7359 0.6346158,0.67384 0.5607853,0.12096 0.926646,1.40432 3.068681,1.80003 3.590494,-4.56466 8.530133,-10.95654 3.221596,-4.16875 13.416235,-5.68733 19.892161,-0.62218 0.154834,1.81832 1.126265,3.89275 1.126265,3.89275 -1.092164,-10.04739 7.048204,-16.38012 4.733633,-21.56229 -1.593493,-3.75427 -10.102986,-1.98472 -4.475484,3.10131 1.533102,4.13992 -6.960984,8.22921 -10.267478,1.5811 -0.672158,4.81676 -9.262618,5.59833 -8.249043,-1.2712 0,0 1.396501,-2.28685 2.571785,-1.65187 0.52461,0.83295 4.287286,2.62877 4.685633,-3.69518 0.16639,-14.26383 28.060095,-11.24344 19.961581,4.67539 3.686112,-5.62757 16.654584,-5.41792 22.612627,-2.30974 10.032176,5.23357 17.860724,3.93799 21.114885,-6.7346 2.161861,-9.55002 -10.047381,-24.16267 -17.580869,-14.4731 -2.857503,3.84781 3.526301,8.39998 2.533797,2.89 7.925901,-4.65779 11.360336,6.72002 4.93549,11.0161 -12.008778,8.02988 -19.883563,-2.95842 -19.455421,-9.73062 1.344026,-0.26015 5.211489,-0.24474 4.596076,-2.6118 -7.044324,3.91653 -6.302315,-7.11662 -3.19304,-9.81312 10.245964,-8.88572 24.46484,-6.36201 30.523309,9.19072 0.241608,-1.49339 0.115926,-2.06493 -0.896743,-4.92794 4.353086,-12.75039 16.025827,-13.51946 22.264407,-10.66362 6.80253,3.11402 11.09071,10.19339 16.5632,7.96702 7.29145,-3.78387 -3.94011,-10.56647 -1.21029,-4.44062 -6.2959,4.16866 -9.78938,-1.67877 -6.10245,-7.08533 3.8612,-5.662092 16.84301,-0.49334 12.85944,9.34605 4.95901,-9.5492 10.8623,-9.91453 16.55477,-8.75673 5.18593,1.86246 7.96444,0.35131 6.37587,-0.51485 -3.33153,-0.80783 2.88191,-6.17 4.75124,-0.71924 1.4509,4.89601 -3.83753,8.58533 -9.01585,3.95153 -0.28968,-0.25921 -0.78472,0.0361 -0.59888,0.31991 5.87615,5.52969 -4.69404,11.79915 -6.26402,5.74184 2.15784,-0.51177 0.5927,-5.39936 -4.05277,-1.10833 -4.18539,4.02219 -14.13038,12.41943 -20.23583,6.28048 -0.93857,-1.1613 -1.78672,-2.35978 -3.32697,-3.96752 8.73273,14.92546 -4.3624,23.01029 -10.88157,23.92171 -3.85495,0.58534 -2.14309,4.32125 -0.23372,2.09713 6.24595,1.47386 3.14389,8.03046 -1.92702,9.01656 -4.72552,0.91893 -11.471054,-3.61567 -7.24922,-13.15703 0,0 2.19066,0.60548 3.95689,-0.5379 -6.1501,1.60012 -11.550411,-18.21972 3.86976,-18.20121 4.18443,-0.0748 8.27039,8.8028 1.24259,9.79072 -3.14577,-2.46561 -2.37485,5.26223 3.25645,2.10621 13.69111,-9.13113 -12.68903,-28.16554 -16.884226,-2.51403 0.829923,21.7079 -12.777994,24.19523 -17.776629,23.69029 0,0 -0.09689,-1.86125 -3.747283,-2.82024 3.00841,2.11283 4.628243,6.79184 5.182614,9.49869 0.591671,2.88899 2.38159,1.72682 1.840963,-0.20692 5.905972,-4.30602 9.950241,7.3055 4.018878,11.79634 -2.971166,2.24958 -10.293054,2.44981 -11.274525,-3.48519 0,0 -0.636018,0.0795 -0.403919,3.41931 -0.638497,3.98392 -18.659358,13.54203 -23.116404,-2.62955 -2.550769,-13.86548 16.241928,-14.23119 12.60953,-6.95058 -3.523079,5.29632 11.436805,5.09323 7.980419,-4.76529 -6.480972,-14.73154 -32.584901,-5.94574 -26.7872,14.42107 5.754735,18.40138 24.364566,17.86503 28.522923,15.68554 z"
       transform="matrix(-0.07283885,0.11197915,-0.10402467,-0.07840867,121.52911,20.32678)" />
    <path
       style="fill:url(#linearGradient14040);fill-opacity:1;stroke-width:1.04797;stroke-linecap:round"
       d="m 74.691381,183.42693 c -3.371605,5.29738 -16.270049,3.22952 -25.04424,-2.97941 -4.064555,-2.89658 -5.609651,-7.29787 -10.507627,-14.08808 -3.787091,-8.70028 -20.750521,-6.9222 -17.184123,5.76697 3.256441,4.58978 6.186638,1.61554 6.062272,1.0264 -0.544592,-2.5798 -1.02101,0.3109 -2.809053,-0.54156 -4.306163,-2.66463 5.52338,-11.67531 9.846303,-2.08115 3.581764,10.37123 -14.589813,16.8124 -17.296224,1.22402 -0.659632,1.4031 -0.130993,2.59906 -0.330464,3.89391 -0.258736,1.67957 -1.399878,3.31388 -4.41044,3.59707 -11.2729204,1.06041 -8.2569742,-10.11007 -3.713515,-9.7359 0.6346158,0.67384 0.5607853,0.12096 0.926646,1.40432 3.068681,1.80003 3.590494,-4.56466 8.530133,-10.95654 3.221596,-4.16875 13.416235,-5.68733 19.892161,-0.62218 0.154834,1.81832 1.126265,3.89275 1.126265,3.89275 -1.092164,-10.04739 7.048204,-16.38012 4.733633,-21.56229 -1.593493,-3.75427 -10.102986,-1.98472 -4.475484,3.10131 1.533102,4.13992 -6.960984,8.22921 -10.267478,1.5811 -0.672158,4.81676 -9.262618,5.59833 -8.249043,-1.2712 0,0 1.396501,-2.28685 2.571785,-1.65187 0.52461,0.83295 4.287286,2.62877 4.685633,-3.69518 0.16639,-14.26383 28.060095,-11.24344 19.961581,4.67539 3.686112,-5.62757 16.654584,-5.41792 22.612627,-2.30974 10.032176,5.23357 17.860724,3.93799 21.114885,-6.7346 2.161861,-9.55002 -10.047381,-24.16267 -17.580869,-14.4731 -2.857503,3.84781 3.526301,8.39998 2.533797,2.89 7.925901,-4.65779 11.360336,6.72002 4.93549,11.0161 -12.008778,8.02988 -19.883563,-2.95842 -19.455421,-9.73062 1.344026,-0.26015 5.211489,-0.24474 4.596076,-2.6118 -7.044324,3.91653 -6.302315,-7.11662 -3.19304,-9.81312 10.245964,-8.88572 24.46484,-6.36201 30.523309,9.19072 0.241608,-1.49339 0.115926,-2.06493 -0.896743,-4.92794 4.353086,-12.75039 16.025827,-13.51946 22.264407,-10.66362 6.80253,3.11402 11.09071,10.19339 16.5632,7.96702 7.29145,-3.78387 -3.94011,-10.56647 -1.21029,-4.44062 -6.2959,4.16866 -9.78938,-1.67877 -6.10245,-7.08533 3.8612,-5.662092 16.84301,-0.49334 12.85944,9.34605 4.95901,-9.5492 10.8623,-9.91453 16.55477,-8.75673 5.18593,1.86246 7.96444,0.35131 6.37587,-0.51485 -3.33153,-0.80783 2.88191,-6.17 4.75124,-0.71924 1.4509,4.89601 -3.83753,8.58533 -9.01585,3.95153 -0.28968,-0.25921 -0.78472,0.0361 -0.59888,0.31991 5.87615,5.52969 -4.69404,11.79915 -6.26402,5.74184 2.15784,-0.51177 0.5927,-5.39936 -4.05277,-1.10833 -4.18539,4.02219 -14.13038,12.41943 -20.23583,6.28048 -0.93857,-1.1613 -1.78672,-2.35978 -3.32697,-3.96752 8.73273,14.92546 -4.3624,23.01029 -10.88157,23.92171 -3.85495,0.58534 -2.14309,4.32125 -0.23372,2.09713 6.24595,1.47386 3.14389,8.03046 -1.92702,9.01656 -4.72552,0.91893 -11.471054,-3.61567 -7.24922,-13.15703 0,0 2.19066,0.60548 3.95689,-0.5379 -6.1501,1.60012 -11.550411,-18.21972 3.86976,-18.20121 4.18443,-0.0748 8.27039,8.8028 1.24259,9.79072 -3.14577,-2.46561 -2.37485,5.26223 3.25645,2.10621 13.69111,-9.13113 -12.68903,-28.16554 -16.884226,-2.51403 0.829923,21.7079 -12.777994,24.19523 -17.776629,23.69029 0,0 -0.09689,-1.86125 -3.747283,-2.82024 3.00841,2.11283 4.628243,6.79184 5.182614,9.49869 0.591671,2.88899 2.38159,1.72682 1.840963,-0.20692 5.905972,-4.30602 9.950241,7.3055 4.018878,11.79634 -2.971166,2.24958 -10.293054,2.44981 -11.274525,-3.48519 0,0 -0.636018,0.0795 -0.403919,3.41931 -0.638497,3.98392 -18.659358,13.54203 -23.116404,-2.62955 -2.550769,-13.86548 16.241928,-14.23119 12.60953,-6.95058 -3.523079,5.29632 11.436805,5.09323 7.980419,-4.76529 -6.480972,-14.73154 -32.584901,-5.94574 -26.7872,14.42107 5.754735,18.40138 24.364566,17.86503 28.522923,15.68554 z"
       id="path14005"
       sodipodi:nodetypes="ccccscccssccscccccccccscccsccsccsccsccccscccccccsccccccccscsccccccc"
       clip-path="url(#clipath_lpe_path-effect14009)"
       inkscape:path-effect="#path-effect14009"
       inkscape:original-d="m 74.691381,183.42693 c -3.371605,5.29738 -16.270049,3.22952 -25.04424,-2.97941 -4.064555,-2.89658 -5.609651,-7.29787 -10.507627,-14.08808 -3.787091,-8.70028 -20.750521,-6.9222 -17.184123,5.76697 3.256441,4.58978 6.186638,1.61554 6.062272,1.0264 -0.544592,-2.5798 -1.02101,0.3109 -2.809053,-0.54156 -4.306163,-2.66463 5.52338,-11.67531 9.846303,-2.08115 3.581764,10.37123 -14.589813,16.8124 -17.296224,1.22402 -0.659632,1.4031 -0.130993,2.59906 -0.330464,3.89391 -0.258736,1.67957 -1.399878,3.31388 -4.41044,3.59707 -11.2729204,1.06041 -8.2569742,-10.11007 -3.713515,-9.7359 0.6346158,0.67384 0.5607853,0.12096 0.926646,1.40432 3.068681,1.80003 3.590494,-4.56466 8.530133,-10.95654 3.221596,-4.16875 13.416235,-5.68733 19.892161,-0.62218 0.154834,1.81832 1.126265,3.89275 1.126265,3.89275 -1.092164,-10.04739 7.048204,-16.38012 4.733633,-21.56229 -1.593493,-3.75427 -10.102986,-1.98472 -4.475484,3.10131 1.533102,4.13992 -6.960984,8.22921 -10.267478,1.5811 -0.672158,4.81676 -9.262618,5.59833 -8.249043,-1.2712 0,0 1.396501,-2.28685 2.571785,-1.65187 0.52461,0.83295 4.287286,2.62877 4.685633,-3.69518 0.16639,-14.26383 28.060095,-11.24344 19.961581,4.67539 3.686112,-5.62757 16.654584,-5.41792 22.612627,-2.30974 10.032176,5.23357 17.860724,3.93799 21.114885,-6.7346 2.161861,-9.55002 -10.047381,-24.16267 -17.580869,-14.4731 -2.857503,3.84781 3.526301,8.39998 2.533797,2.89 7.925901,-4.65779 11.360336,6.72002 4.93549,11.0161 -12.008778,8.02988 -19.883563,-2.95842 -19.455421,-9.73062 1.344026,-0.26015 5.211489,-0.24474 4.596076,-2.6118 -7.044324,3.91653 -6.302315,-7.11662 -3.19304,-9.81312 10.245964,-8.88572 24.46484,-6.36201 30.523309,9.19072 0.241608,-1.49339 0.115926,-2.06493 -0.896743,-4.92794 4.353086,-12.75039 16.025827,-13.51946 22.264407,-10.66362 6.80253,3.11402 11.09071,10.19339 16.5632,7.96702 7.29145,-3.78387 -3.94011,-10.56647 -1.21029,-4.44062 -6.2959,4.16866 -9.78938,-1.67877 -6.10245,-7.08533 3.8612,-5.662092 16.84301,-0.49334 12.85944,9.34605 4.95901,-9.5492 10.8623,-9.91453 16.55477,-8.75673 5.18593,1.86246 7.96444,0.35131 6.37587,-0.51485 -3.33153,-0.80783 2.88191,-6.17 4.75124,-0.71924 1.4509,4.89601 -3.83753,8.58533 -9.01585,3.95153 -0.28968,-0.25921 -0.78472,0.0361 -0.59888,0.31991 5.87615,5.52969 -4.69404,11.79915 -6.26402,5.74184 2.15784,-0.51177 0.5927,-5.39936 -4.05277,-1.10833 -4.18539,4.02219 -14.13038,12.41943 -20.23583,6.28048 -0.93857,-1.1613 -1.78672,-2.35978 -3.32697,-3.96752 8.73273,14.92546 -4.3624,23.01029 -10.88157,23.92171 -3.85495,0.58534 -2.14309,4.32125 -0.23372,2.09713 6.24595,1.47386 3.14389,8.03046 -1.92702,9.01656 -4.72552,0.91893 -11.471054,-3.61567 -7.24922,-13.15703 0,0 2.19066,0.60548 3.95689,-0.5379 -6.1501,1.60012 -11.550411,-18.21972 3.86976,-18.20121 4.18443,-0.0748 8.27039,8.8028 1.24259,9.79072 -3.14577,-2.46561 -2.37485,5.26223 3.25645,2.10621 13.69111,-9.13113 -12.68903,-28.16554 -16.884226,-2.51403 0.829923,21.7079 -12.777994,24.19523 -17.776629,23.69029 0,0 -0.09689,-1.86125 -3.747283,-2.82024 3.00841,2.11283 4.628243,6.79184 5.182614,9.49869 0.591671,2.88899 2.38159,1.72682 1.840963,-0.20692 5.905972,-4.30602 9.950241,7.3055 4.018878,11.79634 -2.971166,2.24958 -10.293054,2.44981 -11.274525,-3.48519 0,0 -0.636018,0.0795 -0.403919,3.41931 -0.638497,3.98392 -18.659358,13.54203 -23.116404,-2.62955 -2.550769,-13.86548 16.241928,-14.23119 12.60953,-6.95058 -3.523079,5.29632 11.436805,5.09323 7.980419,-4.76529 -6.480972,-14.73154 -32.584901,-5.94574 -26.7872,14.42107 5.754735,18.40138 24.364566,17.86503 28.522923,15.68554 z"
       transform="matrix(-0.19166674,0.12467309,0.13420653,0.17805162,81.342703,-26.996134)" />
  </g>
</svg>
