<?xml version="1.0" encoding="UTF-8" standalone="no"?>
<!-- Created with Inkscape (http://www.inkscape.org/) -->

<svg
   version="1.1"
   id="svg2"
   width="424.18524"
   height="424.54199"
   viewBox="0 0 424.18524 424.54199"
   sodipodi:docname="sojong.svg"
   inkscape:version="1.2.2 (b0a8486541, 2022-12-01)"
   xmlns:inkscape="http://www.inkscape.org/namespaces/inkscape"
   xmlns:sodipodi="http://sodipodi.sourceforge.net/DTD/sodipodi-0.dtd"
   xmlns:xlink="http://www.w3.org/1999/xlink"
   xmlns="http://www.w3.org/2000/svg"
   xmlns:svg="http://www.w3.org/2000/svg">
  <defs
     id="defs6">
    <linearGradient
       inkscape:collect="always"
       id="linearGradient972">
      <stop
         style="stop-color:#f7dcf1;stop-opacity:1;"
         offset="0"
         id="stop968" />
      <stop
         style="stop-color:#e06bd1;stop-opacity:0.97594416;"
         offset="1"
         id="stop970" />
    </linearGradient>
    <radialGradient
       inkscape:collect="always"
       xlink:href="#linearGradient972"
       id="radialGradient974"
       cx="214.99365"
       cy="173.53302"
       fx="214.99365"
       fy="173.53302"
       r="212.09262"
       gradientTransform="matrix(0.95127615,0,0,0.75697031,10.475316,87.305071)"
       gradientUnits="userSpaceOnUse" />
  </defs>
  <sodipodi:namedview
     id="namedview4"
     pagecolor="#505050"
     bordercolor="#ffffff"
     borderopacity="1"
     inkscape:showpageshadow="0"
     inkscape:pageopacity="0"
     inkscape:pagecheckerboard="1"
     inkscape:deskcolor="#505050"
     showgrid="false"
     inkscape:zoom="0.38593904"
     inkscape:cx="-10.364331"
     inkscape:cy="268.17707"
     inkscape:window-width="1920"
     inkscape:window-height="1011"
     inkscape:window-x="0"
     inkscape:window-y="0"
     inkscape:window-maximized="1"
     inkscape:current-layer="g8" />
  <g
     inkscape:groupmode="layer"
     inkscape:label="Image"
     id="g8"
     transform="translate(-2.9010299,-4.7620286)">
    <path
       style="fill:url(#radialGradient974);fill-opacity:1;stroke-width:0.315856"
       d="m 298.29817,378.89086 c -15.55422,-1.49775 -31.05005,-7.00314 -44.41862,-15.78117 -5.9644,-3.91633 -10.5996,-7.71226 -16.16378,-13.23711 -5.85581,-5.81444 -9.14844,-9.80101 -13.30684,-16.11134 -2.80285,-4.25329 -7.28997,-12.92793 -8.26735,-15.98271 -0.99061,-3.0961 -1.17845,-3.07868 -2.53937,0.2355 -5.60831,13.65756 -14.96081,26.41308 -26.85748,36.62983 -14.76857,12.68313 -31.62299,20.5784 -50.22117,23.52559 -4.3325,0.68654 -16.11513,0.94372 -20.88712,0.45587 -10.97934,-1.12243 -22.022871,-4.21096 -33.045382,-9.2418 -4.885952,-2.23003 -6.368456,-3.08906 -5.331119,-3.08906 0.625206,0 5.122117,-3.20628 7.125974,-5.08078 6.497865,-6.07842 11.730381,-15.00493 14.392091,-24.55244 0.710872,-2.54976 0.756757,-2.62132 1.551076,-2.41898 5.63856,1.43636 13.82757,2.63402 19.83858,2.90143 2.29611,0.10216 4.10673,0.2958 4.0236,0.43032 -0.0831,0.13453 -2.67247,2.16407 -5.75407,4.51006 -5.58178,4.2494 -7.50133,5.90147 -15.74676,13.55256 -5.775974,5.3596 -11.199671,9.1258 -15.338152,10.65075 -0.577448,0.21277 -0.890462,0.44932 -0.695578,0.52564 0.194883,0.0763 1.443905,-0.29404 2.775651,-0.82306 6.819217,-2.70889 10.49582,-5.18623 21.348909,-14.38519 4.83566,-4.09868 15.54346,-12.38855 17.68795,-13.69385 0.84703,-0.51556 1.62245,-0.67393 3.31649,-0.67734 5.00249,-0.01 14.44269,-1.08285 20.86171,-2.37076 15.78581,-3.1673 34.10208,-11.69866 47.83708,-22.28158 3.60142,-2.77493 10.34896,-9.42813 12.53979,-12.36451 l 1.57937,-2.11679 0.93922,1.0113 c 0.51657,0.55621 1.6623,1.93517 2.54606,3.06435 2.05462,2.62521 7.72155,8.16563 10.97741,10.73233 11.48048,9.05049 27.00307,16.53179 42.95964,20.70493 8.83461,2.31052 15.81254,3.36424 25.19884,3.80523 l 4.66819,0.21932 3.22822,2.36903 c 3.70665,2.72009 6.84586,5.30903 12.82867,10.57994 6.88331,6.06426 10.74195,8.74156 17.3552,12.04189 3.16705,1.58049 6.99605,3.14263 7.20092,2.93779 0.0776,-0.0776 -1.17976,-0.82116 -2.7942,-1.65232 -6.73768,-3.46879 -10.65718,-6.31773 -17.30674,-12.57968 -2.51894,-2.37213 -7.11195,-6.40806 -10.20664,-8.96877 l -5.62674,-4.65583 4.04745,-0.38555 c 5.23602,-0.49877 11.68354,-1.49362 16.01347,-2.47088 1.89084,-0.42675 3.60952,-0.77592 3.81925,-0.77592 0.20972,0 0.55906,0.60408 0.77628,1.34239 0.85922,2.92037 3.31052,8.77453 5.26093,12.56399 3.56176,6.92014 8.8428,13.1398 14.61584,17.2135 1.22471,0.8642 2.23288,1.65651 2.24042,1.7607 0.0148,0.20507 -7.19743,3.44435 -11.0413,4.95907 -14.3778,5.66567 -30.7114,8.25425 -44.00587,6.97411 z m -4.40327,-44.18742 c -24.65692,-2.21037 -48.14302,-11.3311 -64.66748,-25.11334 -2.65559,-2.2149 -8.61891,-8.25987 -9.78627,-9.92024 -0.68728,-0.97755 -0.70176,-1.06036 -0.14695,-0.84055 1.29268,0.51218 7.38855,1.74943 10.56494,2.14433 5.15744,0.64119 24.76979,0.53754 30.796,-0.16276 17.79604,-2.06807 33.04291,-6.49005 46.47866,-13.47998 l 4.78559,-2.48971 8.08447,-0.66675 c 25.13707,-2.07313 40.53772,-1.26855 57.98513,3.02931 5.97379,1.47155 16.38101,4.77318 19.71744,6.25529 1.02561,0.45558 1.91648,0.77658 1.97975,0.71331 0.23323,-0.23324 -3.66094,-2.08361 -8.26648,-3.92792 -19.44282,-7.78597 -38.39095,-10.86104 -61.29337,-9.94719 -4.85221,0.19362 -8.86073,0.3135 -8.9078,0.26643 -0.0471,-0.0471 1.79966,-1.2034 4.10386,-2.56963 8.12388,-4.81688 16.70647,-10.80742 22.75856,-15.88522 l 2.80076,-2.3499 3.52862,0.71936 c 17.51333,3.57033 36.0819,13.75431 50.39484,27.63915 4.41144,4.27954 8.19628,8.66986 10.47379,12.14946 0.84792,1.29545 1.51022,2.38683 1.47174,2.4253 -0.0384,0.0384 -2.12921,-0.0667 -4.64613,-0.23364 -9.01848,-0.59827 -16.80191,0.80302 -25.79407,4.64379 -1.82473,0.7794 -8.58592,4.05195 -15.02487,7.27235 -26.29034,13.14889 -39.37362,17.91347 -54.56596,19.87137 -4.62168,0.59562 -18.23883,0.8685 -22.82477,0.45738 z m -172.37453,-0.21396 c -3.58535,-0.21148 -10.72664,-1.10997 -14.84525,-1.86777 -13.842354,-2.54689 -22.591734,-5.7898 -44.377839,-16.4484 -23.274422,-11.38673 -28.700646,-13.40034 -37.428992,-13.88945 -1.824071,-0.10216 -5.144511,-0.0184 -7.378754,0.18636 -2.234242,0.20469 -4.139078,0.29536 -4.232982,0.20147 -0.264498,-0.26449 1.948235,-3.44005 4.267662,-6.12465 10.832803,-12.5383 22.173914,-21.65304 34.889916,-28.04067 6.895432,-3.46379 10.919379,-4.92408 19.946147,-7.23842 l 6.588576,-1.68922 3.834688,3.2177 c 6.881564,5.77436 14.817706,11.30354 22.249898,15.50172 2.12332,1.19938 3.8087,2.23262 3.74525,2.29606 -0.0634,0.0634 -2.22888,-0.0475 -4.81208,-0.24643 -6.141694,-0.47308 -22.534114,-0.1923 -28.24543,0.48382 -12.483532,1.47783 -23.109765,3.90405 -33.322857,7.60845 -4.275939,1.55093 -12.062022,5.09529 -11.790227,5.36711 0.08605,0.086 1.551771,-0.41135 3.257175,-1.10526 15.148413,-6.16368 32.975668,-9.15016 54.671344,-9.15872 8.577808,-0.004 16.826455,0.37673 24.297705,1.11965 l 4.73784,0.47113 4.89579,2.33876 c 11.02417,5.26633 25.99274,10.03252 37.7781,12.02901 8.48738,1.4378 13.93991,1.8325 25.39319,1.83815 11.59698,0.005 15.72529,-0.3491 21.75608,-1.86989 1.78799,-0.45089 3.33439,-0.73629 3.43646,-0.63422 0.28202,0.28204 -8.8763,9.25217 -11.92658,11.68151 -1.47663,1.17603 -4.67468,3.45775 -7.10677,5.07049 -20.58907,13.65271 -45.53243,20.36138 -70.27806,18.90171 z m 56.69624,-35.78742 C 157.07147,297.67945 137.50293,292.21692 116.6246,281.50866 97.843963,271.87631 86.408121,263.62652 73.178094,250.16644 57.71474,234.43421 48.124738,219.72359 36.708169,194.22333 30.379447,180.08742 27.580232,175.67779 20.395668,168.52621 l -4.643344,-4.62202 1.252308,-0.20026 c 2.116113,-0.33837 16.020714,-0.24507 19.866202,0.13332 1.997792,0.19657 5.667603,0.69925 8.155131,1.11705 4.493563,0.75473 16.019008,3.42592 16.657448,3.8606 0.183513,0.12496 0.645959,2.15445 1.02764,4.50997 0.95755,5.90947 2.80509,13.01634 5.080362,19.54257 1.055718,3.02812 1.882977,5.54216 1.838379,5.58677 -0.0446,0.0446 -2.28121,-2.28397 -4.970224,-5.17461 -9.50115,-10.21351 -15.610732,-14.97954 -26.572973,-20.7293 -3.637686,-1.90799 -7.217035,-3.50313 -7.217035,-3.21629 0,0.0686 1.030481,0.69097 2.289958,1.383 2.904617,1.59596 8.493129,5.27697 11.765655,7.74975 10.960377,8.28184 20.456349,18.20995 35.336189,36.94413 6.493568,8.17563 10.471275,12.69266 17.405433,19.76537 20.809343,21.22517 42.413393,35.85625 70.999543,48.08361 8.3646,3.57784 15.81526,5.72172 26.29066,7.56494 9.93528,1.7482 8.10855,2.02193 -5.22765,0.78336 -13.38816,-1.24341 -21.66357,-2.57282 -31.61455,-5.07878 -30.38341,-7.65146 -56.12933,-23.59698 -73.646638,-45.61241 -6.043377,-7.59523 -9.938108,-13.5114 -18.829562,-28.60255 -8.979863,-15.2412 -13.668468,-21.69916 -20.784304,-28.62758 -5.79843,-5.64574 -6.518551,-5.70116 -1.011119,-0.0778 8.373891,8.55015 11.366032,12.89998 20.832187,30.28467 10.759588,19.76019 17.247943,29.0514 27.47035,39.33709 22.398756,22.53743 53.356256,36.40033 89.861166,40.24026 4.18655,0.44037 22.16048,1.42371 26.49358,1.44945 2.38284,0.0142 1.38733,0.39442 -4.38363,1.6745 -9.074,2.01274 -16.07436,2.58224 -25.90022,2.10705 z m 59.02994,0.003 c -3.83672,-0.40577 -8.05106,-1.17606 -12.27544,-2.24363 -2.0804,-0.52576 -3.83065,-1.00405 -3.88947,-1.06285 -0.0588,-0.0588 1.5012,-0.18995 3.46668,-0.29143 17.16633,-0.8863 19.90341,-1.09704 27.5787,-2.12339 25.51642,-3.4121 47.19021,-11.09819 65.22436,-23.13032 7.56844,-5.04955 12.26031,-8.94397 19.44077,-16.13654 11.48621,-11.50557 19.18464,-22.32817 29.67537,-41.71828 10.10137,-18.67038 13.28818,-23.4178 20.72543,-30.87497 2.03575,-2.04121 3.55652,-3.71131 3.37942,-3.71131 -0.59916,0 -8.83969,8.34814 -11.53611,11.68669 -3.75176,4.64527 -7.92729,11.01748 -12.41829,18.95139 -6.31858,11.1625 -8.45672,14.77141 -11.60214,19.5831 -22.59713,34.5677 -53.71278,54.56095 -96.09789,61.74742 -8.21549,1.39296 -30.56541,3.52411 -29.94643,2.85553 0.11981,-0.12943 2.39397,-0.62834 5.05369,-1.10872 11.43775,-2.06572 21.65436,-5.48317 35.15807,-11.76035 21.95252,-10.20462 41.28871,-23.66463 59.34518,-41.31051 8.26843,-8.08036 11.50984,-11.71167 23.25128,-26.04806 12.48213,-15.24078 18.14155,-21.74361 23.25382,-26.7193 6.5605,-6.38525 10.81252,-9.44782 18.91301,-13.62226 2.95325,-1.52193 5.20977,-2.77068 5.01444,-2.77503 -0.70035,-0.0156 -5.95449,2.25773 -10.21757,4.42084 -9.76262,4.95363 -16.72204,10.5027 -25.34413,20.20805 l -2.10452,2.36893 0.27762,-1.26343 c 2.67102,-12.15465 4.19989,-19.36329 4.72349,-22.2711 0.3541,-1.96643 0.70913,-3.64065 0.78894,-3.72047 0.0799,-0.0798 1.46589,-0.48257 3.08017,-0.89498 13.43319,-3.43186 27.70396,-5.02295 38.59058,-4.30254 2.92136,0.19331 5.38093,0.42085 5.46571,0.50565 0.0847,0.0847 -0.46254,0.69646 -1.2163,1.35923 -5.25443,4.62015 -9.49045,9.27443 -12.02793,13.21552 -2.13337,3.31345 -3.62323,6.45651 -7.18671,15.16112 -9.00495,21.99663 -19.12263,38.28555 -32.94233,53.0354 -13.15867,14.04429 -29.16097,25.43516 -51.70891,36.80776 -17.36272,8.75732 -30.64326,12.77539 -48.6419,14.71678 -5.33119,0.57503 -19.52959,0.85971 -23.25066,0.46617 z m -27.4443,-6.13539 c -6.07914,-1.19331 -11.54684,-4.23637 -17.23817,-9.59396 -9.75578,-9.18367 -18.05998,-23.05263 -21.41865,-35.77159 -1.79709,-6.80542 -2.07107,-9.0054 -2.06355,-16.56986 0.005,-6.00473 0.10379,-7.39942 0.71969,-10.26533 3.19465,-14.86468 12.67999,-30.47176 26.59758,-43.76345 5.75814,-5.49919 18.15034,-15.74216 18.76149,-15.50762 0.59371,0.22782 14.05714,11.53833 16.90949,14.2055 8.40957,7.86362 16.65197,18.3043 21.11457,26.7459 9.49241,17.95619 9.98222,37.83748 1.40553,57.05036 -4.60759,10.32162 -13.26725,21.60427 -20.91984,27.25642 -3.3931,2.50612 -8.26866,4.88167 -11.70766,5.70439 -3.5184,0.84172 -9.24501,1.08153 -12.16048,0.50924 z m 28.94266,-6.90877 c 1.40516,-1.18187 6.5317,-6.84948 8.65383,-9.56717 5.12375,-6.56171 10.39943,-16.21701 12.75821,-23.34951 4.61252,-13.94736 4.2245,-30.47485 -1.03933,-44.26839 -1.41379,-3.70477 -3.18029,-7.2003 -6.24039,-12.34849 -1.36808,-2.3016 -2.48743,-4.27776 -2.48743,-4.39148 0,-0.3762 6.10409,-7.76372 9.38462,-11.3578 5.43334,-5.95265 11.22715,-10.97994 22.51689,-19.53787 9.15581,-6.94035 11.87104,-9.22335 14.64527,-12.3139 l 2.16894,-2.41625 1.4931,2.93799 c 0.82119,1.61588 2.95036,5.35428 4.73149,8.30753 7.14915,11.85389 11.66142,22.87905 13.12096,32.05944 1.39663,8.78452 -0.47599,24.46237 -4.33297,36.27674 -3.19931,9.79984 -10.40151,21.31713 -18.1227,28.98068 -12.83921,12.74335 -33.80219,24.55661 -54.8111,30.88769 -3.28937,0.99126 -3.50886,1.00032 -2.43939,0.10075 z m -55.15875,-1.62157 c -20.11701,-6.75169 -32.21197,-13.61653 -45.8147,-26.00347 -6.6048,-6.01446 -11.57873,-11.86897 -14.98893,-17.64254 -5.38875,-9.1234 -9.33741,-19.3331 -11.08555,-28.66315 -0.94349,-5.03562 -1.17074,-15.04587 -0.46329,-20.40896 1.8458,-13.99251 8.0898,-28.70709 17.65355,-41.6021 l 2.4711,-3.33183 2.31203,2.35746 c 3.09652,3.15737 5.96481,5.65523 14.22402,12.38713 15.53693,12.66379 23.04876,19.79039 30.69224,29.11825 l 1.12503,1.37294 -2.57703,3.93423 c -4.94781,7.55362 -8.33456,15.46276 -10.01147,23.37998 -0.97885,4.62138 -1.37337,14.04406 -0.78101,18.65297 1.11127,8.64643 3.54524,16.59402 7.49212,24.46391 4.00805,7.99188 8.59394,14.53158 14.79001,21.09126 2.61444,2.76785 2.71244,2.92131 1.86144,2.91487 -0.49405,-0.004 -3.59886,-0.91317 -6.89956,-2.02095 z m -55.28644,-29.61955 c -11.44363,-8.67531 -19.31649,-15.6031 -30.960687,-27.24413 -5.047992,-5.0466 -12.155835,-12.46205 -15.795229,-16.47877 -6.5803,-7.26256 -6.624773,-7.32133 -8.005792,-10.58119 -3.593562,-8.48253 -5.733299,-15.32729 -7.436903,-23.78964 -1.277419,-6.34521 -1.786011,-10.2539 -2.858881,-21.97112 -1.931304,-21.09218 -3.586866,-28.54424 -8.538896,-38.43486 -1.75654,-3.50832 -2.146623,-4.52162 -1.740684,-4.52162 1.010078,0 13.549327,2.19131 17.108238,2.98977 10.221842,2.29332 21.697283,6.16793 27.918167,9.42643 l 2.526857,1.32355 -0.0803,1.42137 c -0.0442,0.78173 -0.22173,2.06096 -0.39463,2.84271 -0.92887,4.19969 -1.52979,16.43768 -1.041948,21.21902 l 0.279693,2.74142 -3.332508,-3.21521 C 88.055522,142.53458 76.231436,134.47974 68.770844,131.635 c -2.092267,-0.79778 -1.489959,-0.23983 1.580765,1.46436 7.734315,4.29241 19.538597,14.03836 27.732449,22.89673 3.741452,4.04486 8.219022,9.30552 11.988222,14.08482 l 2.56285,3.24966 -0.48118,1.62023 c -1.08497,3.65349 -0.67435,3.6896 -4.43326,-0.38991 -4.61454,-5.0081 -11.411116,-11.63422 -16.739385,-16.31956 -4.738072,-4.16637 -9.94045,-8.36381 -10.130595,-8.17367 -0.150253,0.15026 1.927451,12.12951 2.951173,17.0155 5.582763,26.64454 14.731924,46.54795 32.048627,69.71985 6.60557,8.8391 13.39483,17.15423 15.65815,19.17735 1.18923,1.06303 2.0882,2.00681 1.99771,2.09731 -0.0905,0.0905 -2.43349,-1.55556 -5.20666,-3.6579 z m 171.3847,0.68526 c 5.65625,-6.33489 10.81956,-12.99188 16.16635,-20.84305 14.33706,-21.05241 22.47391,-38.60693 29.71814,-64.11423 2.54123,-8.94773 5.14214,-19.49365 4.87385,-19.76193 -0.30294,-0.30295 -14.15359,10.35548 -17.77235,13.67627 -4.19966,3.85387 -8.34978,8.4255 -11.37474,12.53001 l -1.98876,2.69852 -0.82384,-2.05789 c -0.94921,-2.37114 -1.056,-2.00082 1.81544,-6.29534 4.81532,-7.20172 10.25613,-13.74296 17.08163,-20.53643 7.68688,-7.65082 14.45082,-12.73258 21.9411,-16.48441 2.18228,-1.09309 3.81906,-1.98744 3.63727,-1.98744 -0.98307,0 -6.77717,2.18882 -10.07329,3.80533 -5.68589,2.78855 -7.91457,4.3791 -14.99245,10.69962 -5.44457,4.86201 -6.50038,5.68049 -6.69274,5.18851 -0.19009,-0.48611 -2.80784,-25.34248 -2.79713,-26.55936 0.004,-0.47791 3.33675,-2.18259 7.49133,-3.83201 9.3248,-3.70204 21.98632,-6.8951 36.64241,-9.24069 2.46968,-0.39525 4.5682,-0.64077 4.66337,-0.54559 0.0951,0.0951 -0.59858,1.79375 -1.54169,3.77461 -4.57914,9.61781 -5.87513,14.94012 -8.56803,35.18719 -2.56197,19.26275 -4.52207,29.03954 -8.84839,44.13535 -2.07275,7.23238 -2.43211,8.07113 -4.54593,10.61061 -4.30826,5.17572 -29.72117,30.86606 -35.39702,35.78339 -4.80021,4.15871 -18.51288,15.25988 -20.08809,16.26241 -0.57185,0.36396 -0.0179,-0.4231 1.47356,-2.09345 z m -121.40091,-72.0275 c -3.31403,-5.18962 -3.37968,-5.45922 -3.37986,-13.87776 -2.3e-4,-11.64662 2.26196,-20.99841 7.6981,-31.82361 5.90082,-11.75049 15.94884,-22.22224 28.63618,-29.84376 l 3.54313,-2.12842 1.77466,0.94989 c 2.04042,1.09216 8.34074,5.54397 11.52246,8.14178 1.19199,0.97324 3.39673,2.98412 4.89944,4.46863 15.23731,15.05273 23.07524,35.59852 21.57598,56.55769 -0.4134,5.77928 -0.70962,6.60693 -3.49025,9.75236 l -1.50558,1.70309 0.3988,-2.65067 c 0.49244,-3.273 0.54674,-11.22807 0.10118,-14.81941 -0.81535,-6.57181 -2.7508,-13.51786 -5.30494,-19.03861 -3.44557,-7.44757 -10.2959,-15.74045 -19.49826,-23.60423 -6.98386,-5.96798 -8.73545,-7.42231 -9.60529,-7.97521 l -0.88587,-0.56307 -5.95498,4.86091 c -9.91483,8.09325 -13.86143,11.94094 -18.1956,17.73959 -5.74655,7.6883 -9.25794,16.43364 -10.34822,25.77292 -0.50959,4.36521 -0.25769,14.04742 0.45815,17.60932 0.29102,1.44809 0.48581,2.74143 0.43287,2.87411 -0.053,0.13269 -1.34539,-1.7148 -2.87208,-4.10554 z m 79.371,-13.00877 c 0,-11.12255 -2.69018,-22.35047 -7.88956,-32.92843 -4.02329,-8.18525 -8.41766,-14.29561 -14.43352,-20.06978 -4.8155,-4.62203 -9.96148,-8.23597 -18.13963,-12.73913 l -2.08614,-1.1487 -3.28341,1.68414 c -15.2182,7.80574 -25.42755,18.06174 -32.66707,32.81635 -4.83747,9.85911 -6.92393,18.58132 -7.14242,29.85831 -0.0446,2.30181 -0.11201,4.18509 -0.14978,4.18509 -0.0378,0 -1.02671,-1.67008 -2.19763,-3.7113 -9.39165,-16.3722 -19.54159,-27.27708 -32.94671,-35.39725 -4.91363,-2.97644 -12.89214,-7.10256 -13.27565,-6.86555 -0.16333,0.10097 -0.72432,1.56742 -1.24662,3.25882 -4.09157,13.24967 -5.97304,22.50855 -6.69035,32.92373 -0.30584,4.44089 -0.99877,7.89643 -1.58348,7.89643 -0.11457,0 -0.91147,-0.91572 -1.77085,-2.03493 -0.85941,-1.1192 -3.40263,-4.11629 -5.65159,-6.66017 -4.72881,-5.3489 -4.31811,-4.15588 -4.72711,-13.73072 -0.40954,-9.58768 0.71295,-19.61122 3.30591,-29.52106 0.68349,-2.61215 2.53289,-8.58702 4.10977,-13.27749 4.29546,-12.776758 6.0093,-19.550981 6.01331,-23.768201 0,-0.940126 0.13393,-1.34239 0.44393,-1.34239 0.24346,0 1.98463,0.620401 3.86925,1.37867 15.26746,6.142813 32.58357,16.189887 44.94887,26.080021 1.64329,1.31436 3.10229,2.47051 3.24221,2.56922 0.13993,0.0987 -0.58297,1.94646 -1.60644,4.10614 -3.99255,8.42482 -5.81084,13.95279 -6.88963,20.94581 -0.31133,2.0182 -0.65103,3.66945 -0.75489,3.66945 -0.10389,0 -0.3905,-0.38676 -0.63701,-0.85947 -0.2465,-0.4727 -1.49991,-2.28492 -2.78534,-4.02717 -9.3422,-12.66212 -22.03992,-23.14724 -35.34914,-29.18948 -3.71561,-1.68685 -5.69698,-2.39965 -5.95445,-2.14217 -0.0925,0.0925 0.59216,0.54995 1.52148,1.01656 5.34132,2.68193 13.2456,7.87112 18.43003,12.09937 10.50486,8.56744 17.379,16.67959 26.93709,31.7884 l 0.99908,1.57929 -0.0621,-5.68542 c -0.067,-6.12486 0.29021,-8.89672 1.84098,-14.28801 2.8753,-9.996 8.67184,-21.16044 16.35802,-31.506321 5.96017,-8.022636 9.96218,-12.457422 22.66444,-25.115445 4.44538,-4.429887 9.07011,-9.347033 10.27717,-10.926988 l 2.19468,-2.872648 2.50975,3.178454 c 1.38036,1.74815 6.36147,7.020634 11.06913,11.71663 4.70766,4.695996 9.9563,10.101664 11.66365,12.012595 19.27766,21.576173 28.06558,40.963093 27.18702,59.976883 l -0.20266,4.38616 3.37929,-5.01787 c 5.85788,-8.69826 9.81196,-13.62642 16.03125,-19.98046 8.80365,-8.99438 16.09453,-14.44864 26.97088,-20.17678 2.13707,-1.1255 3.82149,-2.11047 3.74312,-2.18881 -0.24922,-0.24922 -7.09284,2.68873 -11.65298,5.00258 -4.78804,2.42949 -10.31979,5.95881 -14.29539,9.12061 -4.482,3.56456 -8.92615,8.19266 -14.94518,15.5638 l -5.88692,7.20935 -0.71201,-4.36399 c -1.13775,-6.97338 -3.49765,-14.55742 -6.60589,-21.22949 -0.76042,-1.63229 -1.38259,-3.08006 -1.38259,-3.21724 0,-0.60827 10.03939,-8.24804 16.55035,-12.594498 8.44812,-5.639605 16.98779,-10.484273 24.8098,-14.074915 5.76428,-2.646057 11.29696,-4.876033 11.52698,-4.646013 0.0972,0.09722 0.17734,1.041425 0.17804,2.098229 0.002,2.388722 0.73174,6.96906 1.74063,10.918963 0.7111,2.784106 1.28382,4.670176 4.41313,14.533804 4.47002,14.08958 6.82517,27.96208 7.58859,44.69883 l 0.18753,4.11128 -2.65721,3.37736 c -1.46147,1.85753 -4.26439,5.52615 -6.22874,8.15247 -2.33478,3.12159 -3.64592,4.62997 -3.78637,4.35598 -0.11815,-0.23052 -2.32381,-10.54628 -4.90146,-22.92389 -3.1898,-15.31717 -4.81293,-22.50479 -5.08209,-22.50479 -0.2175,0 -2.35875,0.9894 -4.75831,2.19867 -17.88137,9.01132 -31.4577,22.32389 -39.83493,39.06101 -1.03227,2.06243 -2.2024,4.53161 -2.60024,5.48708 -0.39786,0.95547 -0.84228,1.87224 -0.9876,2.03727 -0.14532,0.16504 -0.26423,-1.78204 -0.26423,-4.32684 z"
       id="path293" />
  </g>
</svg>
