<?xml version="1.0" encoding="UTF-8" standalone="no"?>
<svg
   enable-background="new 0 0 64 64"
   viewBox="0 0 47.166897 47.166885"
   version="1.1"
   id="svg1995"
   sodipodi:docname="specialbg.svg"
   inkscape:export-filename="wheel-of-dharma.png"
   inkscape:export-xdpi="320"
   inkscape:export-ydpi="320"
   inkscape:version="1.2.2 (b0a8486541, 2022-12-01)"
   width="47.166897"
   height="47.166885"
   xmlns:inkscape="http://www.inkscape.org/namespaces/inkscape"
   xmlns:sodipodi="http://sodipodi.sourceforge.net/DTD/sodipodi-0.dtd"
   xmlns="http://www.w3.org/2000/svg"
   xmlns:svg="http://www.w3.org/2000/svg">
  <defs
     id="defs1999" />
  <sodipodi:namedview
     id="namedview1997"
     pagecolor="#505050"
     bordercolor="#ffffff"
     borderopacity="1"
     inkscape:showpageshadow="0"
     inkscape:pageopacity="0"
     inkscape:pagecheckerboard="1"
     inkscape:deskcolor="#505050"
     showgrid="false"
     inkscape:zoom="6.1328125"
     inkscape:cx="13.370701"
     inkscape:cy="22.909554"
     inkscape:window-width="1920"
     inkscape:window-height="1011"
     inkscape:window-x="0"
     inkscape:window-y="0"
     inkscape:window-maximized="1"
     inkscape:current-layer="svg1995" />
  <path
     d="m 45.865873,22.283215 c -0.400133,0 -0.752312,0.18395 -0.991291,0.467737 0.05581,-0.14543 0.0904,-0.301867 0.0904,-0.467737 0,-0.71851 -0.582511,-1.301807 -1.30102,-1.301807 -0.141501,0 -0.27514,0.0283 -0.402491,0.06996 -0.456732,-3.583897 -1.867808,-6.867498 -3.973023,-9.590599 0.11949,-0.05974 0.234262,-0.135212 0.334099,-0.235049 0.50783,-0.50783 0.507043,-1.3324636 0,-1.8395066 -0.50783,-0.508617 -1.331679,-0.508617 -1.841081,0 -0.0566,0.0566 -0.10534,0.119488 -0.149362,0.183164 -0.01179,-0.01179 -0.02201,-0.02201 -0.0338,-0.03381 0.06446,-0.04402 0.126564,-0.09276 0.183165,-0.149361 0.508616,-0.508616 0.508616,-1.331679 0,-1.84108 -0.507044,-0.50783 -1.331678,-0.50783 -1.839508,0 -0.09983,0.09983 -0.175304,0.213822 -0.235835,0.334097 -2.723101,-2.105215 -6.007488,-3.515503 -9.590599,-3.972236 0.04166,-0.128137 0.06996,-0.261777 0.06996,-0.403277 0,-0.718509 -0.582511,-1.300234 -1.30102,-1.300234 -0.165083,0 -0.322306,0.0338 -0.468524,0.0904 0.283787,-0.238979 0.468524,-0.591944 0.468524,-0.9920762 C 24.884466,0.583297 24.301956,0 23.583447,0 c -0.71851,0 -1.30102,0.583297 -1.30102,1.3018056 0,0.4001318 0.184737,0.7530968 0.468524,0.9920758 -0.145431,-0.0566 -0.302654,-0.0904 -0.468524,-0.0904 -0.717723,0 -1.300234,0.581725 -1.300234,1.300234 0,0.1415 0.0283,0.27514 0.06996,0.403277 -3.584682,0.456733 -6.868283,1.867808 -9.591384,3.973023 -0.06053,-0.119489 -0.135212,-0.235048 -0.235049,-0.334884 -0.50783,-0.50783 -1.3316781,-0.50783 -1.8402941,0 -0.50783,0.50783 -0.50783,1.332464 0,1.841081 0.05738,0.0566 0.11949,0.106119 0.183951,0.150147 -0.01179,0.011 -0.02202,0.02202 -0.03381,0.0338 -0.04481,-0.06446 -0.09276,-0.127351 -0.150148,-0.183951 -0.507829,-0.50783 -1.331677,-0.50783 -1.840294,0 -0.50783,0.507044 -0.50783,1.3308916 0,1.8395076 0.100624,0.09983 0.21461,0.174518 0.334099,0.235049 -2.105215,2.723101 -3.51629,6.007487 -3.973023,9.590599 -0.127351,-0.04166 -0.26099,-0.06996 -0.402491,-0.06996 -0.718508,0 -1.30102,0.583297 -1.30102,1.301807 0,0.165083 0.0338,0.32152 0.08962,0.466952 -0.238979,-0.282216 -0.591158,-0.466952 -0.9905041,-0.466952 -0.718509,0 -1.3010197,0.583297 -1.3018058,1.301019 0,0.717723 0.5832968,1.30102 1.3010198,1.30102 0.4001321,0 0.7530981,-0.183951 0.9920771,-0.466952 -0.05581,0.144645 -0.0904,0.301082 -0.0904,0.466165 0,0.718509 0.58251,1.30102 1.30102,1.30102 0.1415,0 0.27514,-0.0283 0.402491,-0.06996 0.456731,3.583896 1.867808,6.867498 3.973809,9.590599 -0.11949,0.06132 -0.234263,0.135211 -0.334885,0.23662 -0.50783,0.507045 -0.50783,1.330893 0,1.839509 0.50783,0.50783 1.332464,0.50783 1.840294,0 0.05738,-0.0566 0.106911,-0.11949 0.150148,-0.183951 0.01179,0.011 0.02279,0.0228 0.03381,0.0338 -0.06446,0.04481 -0.126566,0.09355 -0.183952,0.150149 -0.50783,0.50783 -0.50783,1.330891 0,1.841079 0.50783,0.507045 1.3316781,0.507045 1.8402941,0 0.09983,-0.09983 0.175305,-0.214608 0.235835,-0.334884 2.723102,2.105215 6.006702,3.516291 9.590598,3.97381 -0.04166,0.12735 -0.06996,0.26099 -0.06996,0.40249 0,0.718509 0.58251,1.300234 1.300233,1.300234 0.165084,0 0.321522,-0.0338 0.466952,-0.08883 -0.283,0.238193 -0.466952,0.591159 -0.466952,0.990504 0,0.718509 0.582511,1.300234 1.301021,1.300234 0.718508,0 1.301019,-0.581725 1.301019,-1.300234 0,-0.399345 -0.183165,-0.752311 -0.466166,-0.990504 0.145431,0.05502 0.301868,0.08883 0.466166,0.08883 0.718508,0 1.30102,-0.581725 1.30102,-1.300234 0,-0.1415 -0.0283,-0.27514 -0.06996,-0.40249 3.584683,-0.457519 6.868284,-1.868595 9.591386,-3.97381 0.06053,0.11949 0.135211,0.233477 0.235048,0.334884 0.50783,0.507045 1.331678,0.507045 1.839508,0 0.508616,-0.507829 0.508616,-1.332464 0,-1.841079 -0.0566,-0.0566 -0.119489,-0.10613 -0.183165,-0.150149 0.011,-0.011 0.02202,-0.02123 0.03302,-0.0338 0.04481,0.06446 0.09355,0.127351 0.150148,0.183951 0.508616,0.50783 1.332464,0.50783 1.841081,0 0.50783,-0.50783 0.50783,-1.330892 0,-1.839509 -0.100624,-0.09983 -0.214609,-0.175303 -0.334886,-0.235048 2.105215,-2.723887 3.516292,-6.008275 3.97381,-9.592171 0.126565,0.04166 0.260205,0.06996 0.401705,0.06996 0.718509,0 1.301019,-0.582511 1.301019,-1.300233 0,-0.165084 -0.0338,-0.321521 -0.08962,-0.466952 0.238979,0.282215 0.591945,0.466952 0.991291,0.466952 0.717722,-7.87e-4 1.300234,-0.583297 1.301019,-1.301806 0,-0.716936 -0.583297,-1.300233 -1.301019,-1.300233 M 25.428464,7.6190314 c 3.057986,0.349035 5.850265,1.557294 8.140217,3.3763626 -0.106911,0.482674 -4.682099,5.589276 -5.112103,5.828254 -1.029025,-0.742092 -2.23178,-1.253853 -3.538302,-1.463745 -0.135213,-0.473241 0.244481,-7.3265886 0.510188,-7.7408716 m -3.68845,0 c 0.264921,0.413496 0.643828,7.2668446 0.50783,7.7408716 -1.305736,0.210679 -2.507706,0.721653 -3.53673,1.463745 -0.430004,-0.238978 -5.004406,-5.34558 -5.111318,-5.828254 2.289953,-1.8182826 5.083018,-3.0265416 8.140218,-3.3763626 M 10.995398,13.600578 c 0.483462,0.10613 5.590062,4.67974 5.82904,5.110531 -0.742092,1.029025 -1.253852,2.23178 -1.463745,3.538302 -0.474026,0.135212 -7.3265881,-0.244481 -7.7408701,-0.50783 0.349821,-3.058772 1.558079,-5.851837 3.3755751,-8.141003 m 7.87e-4,19.966526 C 9.1779019,31.277153 7.9696439,28.484873 7.6198229,25.427673 c 0.414282,-0.264921 7.2668441,-0.643828 7.7408701,-0.508616 0.211465,1.305737 0.721653,2.508492 1.463745,3.536729 -0.238978,0.430791 -5.344006,5.003621 -5.828253,5.111318 m 10.745401,5.979975 c -3.058772,-0.348249 -5.851052,-1.556508 -8.141003,-3.376363 0.107697,-0.48346 4.681312,-5.587703 5.112103,-5.826682 1.028239,0.741307 2.230207,1.253067 3.535944,1.462959 0.135997,0.473242 -0.241337,7.325017 -0.507044,7.740086 m 1.841867,-12.033057 c -2.170463,0 -3.930574,-1.757753 -3.930574,-3.930574 0,-2.169677 1.760111,-3.930574 3.930574,-3.930574 2.171248,0 3.930573,1.760897 3.930573,3.930574 0,2.172821 -1.759325,3.930574 -3.930573,3.930574 m 1.843438,12.033057 c -0.265706,-0.415855 -0.643041,-7.266059 -0.50783,-7.740086 1.305737,-0.210679 2.508492,-0.721652 3.53673,-1.463745 0.430791,0.238978 5.004406,5.345579 5.111318,5.829041 -2.289952,1.817496 -5.083018,3.025754 -8.140218,3.37479 m 10.745402,-5.979975 c -0.483461,-0.106912 -5.589275,-4.680527 -5.828254,-5.112103 0.742092,-1.028239 1.253067,-2.230994 1.463745,-3.53673 0.474027,-0.135212 7.325803,0.244481 7.740871,0.508616 -0.350607,3.057986 -1.558079,5.850266 -3.376362,8.140217 M 31.807784,22.249411 c -0.210678,-1.306522 -0.720867,-2.509277 -1.463745,-3.538302 0.238979,-0.430791 5.34558,-5.004405 5.828254,-5.112103 1.818283,2.290738 3.027327,5.083803 3.376362,8.14179 -0.414282,0.264134 -7.26763,0.643827 -7.740871,0.508615"
     id="path1993"
     style="fill:#ceccbf;fill-opacity:0.34223506;stroke:none;stroke-width:0;stroke-dasharray:none;stroke-opacity:1" />
</svg>
